<?xml version="1.0" encoding="utf-8" standalone="no"?>
<!DOCTYPE svg PUBLIC "-//W3C//DTD SVG 1.1//EN"
  "http://www.w3.org/Graphics/SVG/1.1/DTD/svg11.dtd">
<svg xmlns:xlink="http://www.w3.org/1999/xlink" width="624.158437pt" height="446.613581pt" viewBox="0 0 624.158437 446.613581" xmlns="http://www.w3.org/2000/svg" version="1.1">
 <metadata>
  <rdf:RDF xmlns:dc="http://purl.org/dc/elements/1.1/" xmlns:cc="http://creativecommons.org/ns#" xmlns:rdf="http://www.w3.org/1999/02/22-rdf-syntax-ns#">
   <cc:Work>
    <dc:type rdf:resource="http://purl.org/dc/dcmitype/StillImage"/>
    <dc:date>2025-03-14T11:49:25.653704</dc:date>
    <dc:format>image/svg+xml</dc:format>
    <dc:creator>
     <cc:Agent>
      <dc:title>Matplotlib v3.9.2, https://matplotlib.org/</dc:title>
     </cc:Agent>
    </dc:creator>
   </cc:Work>
  </rdf:RDF>
 </metadata>
 <defs>
  <style type="text/css">*{stroke-linejoin: round; stroke-linecap: butt}</style>
 </defs>
 <g id="figure_1">
  <g id="patch_1">
   <path d="M 0 446.613581 
L 624.158437 446.613581 
L 624.158437 0 
L 0 0 
z
" style="fill: #ffffff"/>
  </g>
  <g id="axes_1">
   <g id="patch_2">
    <path d="M 66.870938 288.624188 
L 616.958437 288.624188 
L 616.958437 26.877187 
L 66.870938 26.877187 
z
" style="fill: #ffffff"/>
   </g>
   <g id="matplotlib.axis_1">
    <g id="xtick_1">
     <g id="line2d_1">
      <defs>
       <path id="mcc3a992f21" d="M 0 0 
L 0 3 
" style="stroke: #262626; stroke-width: 0.8"/>
      </defs>
      <g>
       <use xlink:href="#mcc3a992f21" x="136.753848" y="288.624188" style="fill: #262626; stroke: #262626; stroke-width: 0.8"/>
      </g>
     </g>
     <g id="text_1">
      <!-- 4×8 -->
      <g style="fill: #262626" transform="translate(119.342481 307.661609) scale(0.165 -0.165)">
       <defs>
        <path id="DejaVuSerif-34" d="M 2234 1581 
L 2234 4063 
L 641 1581 
L 2234 1581 
z
M 3609 0 
L 1484 0 
L 1484 331 
L 2234 331 
L 2234 1247 
L 197 1247 
L 197 1588 
L 2241 4750 
L 2859 4750 
L 2859 1581 
L 3750 1581 
L 3750 1247 
L 2859 1247 
L 2859 331 
L 3609 331 
L 3609 0 
z
" transform="scale(0.015625)"/>
        <path id="DejaVuSerif-d7" d="M 4481 3450 
L 3034 2003 
L 4481 563 
L 4122 213 
L 2681 1650 
L 1241 213 
L 884 563 
L 2322 2003 
L 884 3450 
L 1241 3803 
L 2681 2363 
L 4122 3803 
L 4481 3450 
z
" transform="scale(0.015625)"/>
        <path id="DejaVuSerif-38" d="M 2981 1275 
Q 2981 1775 2732 2051 
Q 2484 2328 2034 2328 
Q 1584 2328 1336 2051 
Q 1088 1775 1088 1275 
Q 1088 772 1336 495 
Q 1584 219 2034 219 
Q 2484 219 2732 495 
Q 2981 772 2981 1275 
z
M 2853 3541 
Q 2853 3966 2637 4203 
Q 2422 4441 2034 4441 
Q 1650 4441 1433 4203 
Q 1216 3966 1216 3541 
Q 1216 3113 1433 2875 
Q 1650 2638 2034 2638 
Q 2422 2638 2637 2875 
Q 2853 3113 2853 3541 
z
M 2516 2484 
Q 3047 2413 3344 2092 
Q 3641 1772 3641 1275 
Q 3641 619 3225 264 
Q 2809 -91 2034 -91 
Q 1263 -91 845 264 
Q 428 619 428 1275 
Q 428 1772 725 2092 
Q 1022 2413 1556 2484 
Q 1084 2569 832 2842 
Q 581 3116 581 3541 
Q 581 4103 968 4426 
Q 1356 4750 2034 4750 
Q 2713 4750 3100 4426 
Q 3488 4103 3488 3541 
Q 3488 3116 3236 2842 
Q 2984 2569 2516 2484 
z
" transform="scale(0.015625)"/>
       </defs>
       <use xlink:href="#DejaVuSerif-34"/>
       <use xlink:href="#DejaVuSerif-d7" x="63.623047"/>
       <use xlink:href="#DejaVuSerif-38" x="147.412109"/>
      </g>
     </g>
    </g>
    <g id="xtick_2">
     <g id="line2d_2">
      <g>
       <use xlink:href="#mcc3a992f21" x="239.334268" y="288.624188" style="fill: #262626; stroke: #262626; stroke-width: 0.8"/>
      </g>
     </g>
     <g id="text_2">
      <!-- 4×16 -->
      <g style="fill: #262626" transform="translate(216.673838 307.661609) scale(0.165 -0.165)">
       <defs>
        <path id="DejaVuSerif-31" d="M 909 0 
L 909 331 
L 1722 331 
L 1722 4213 
L 781 3603 
L 781 4013 
L 1919 4750 
L 2350 4750 
L 2350 331 
L 3163 331 
L 3163 0 
L 909 0 
z
" transform="scale(0.015625)"/>
        <path id="DejaVuSerif-36" d="M 2094 219 
Q 2534 219 2771 542 
Q 3009 866 3009 1472 
Q 3009 2078 2771 2401 
Q 2534 2725 2094 2725 
Q 1647 2725 1412 2412 
Q 1178 2100 1178 1509 
Q 1178 888 1415 553 
Q 1653 219 2094 219 
z
M 1075 2569 
Q 1288 2803 1556 2918 
Q 1825 3034 2163 3034 
Q 2859 3034 3264 2615 
Q 3669 2197 3669 1472 
Q 3669 763 3233 336 
Q 2797 -91 2069 -91 
Q 1278 -91 853 498 
Q 428 1088 428 2181 
Q 428 3406 931 4078 
Q 1434 4750 2350 4750 
Q 2597 4750 2869 4703 
Q 3141 4656 3425 4563 
L 3425 3794 
L 3072 3794 
Q 3034 4109 2831 4275 
Q 2628 4441 2284 4441 
Q 1678 4441 1381 3981 
Q 1084 3522 1075 2569 
z
" transform="scale(0.015625)"/>
       </defs>
       <use xlink:href="#DejaVuSerif-34"/>
       <use xlink:href="#DejaVuSerif-d7" x="63.623047"/>
       <use xlink:href="#DejaVuSerif-31" x="147.412109"/>
       <use xlink:href="#DejaVuSerif-36" x="211.035156"/>
      </g>
     </g>
    </g>
    <g id="xtick_3">
     <g id="line2d_3">
      <g>
       <use xlink:href="#mcc3a992f21" x="341.914688" y="288.624188" style="fill: #262626; stroke: #262626; stroke-width: 0.8"/>
      </g>
     </g>
     <g id="text_3">
      <!-- 4×32 -->
      <g style="fill: #262626" transform="translate(319.254258 307.661609) scale(0.165 -0.165)">
       <defs>
        <path id="DejaVuSerif-33" d="M 622 4469 
Q 988 4606 1323 4678 
Q 1659 4750 1953 4750 
Q 2638 4750 3022 4454 
Q 3406 4159 3406 3634 
Q 3406 3213 3140 2930 
Q 2875 2647 2388 2547 
Q 2963 2466 3280 2130 
Q 3597 1794 3597 1259 
Q 3597 606 3158 257 
Q 2719 -91 1894 -91 
Q 1528 -91 1179 -12 
Q 831 66 488 225 
L 488 1131 
L 838 1131 
Q 869 681 1141 450 
Q 1413 219 1906 219 
Q 2384 219 2661 495 
Q 2938 772 2938 1253 
Q 2938 1803 2653 2086 
Q 2369 2369 1819 2369 
L 1522 2369 
L 1522 2688 
L 1678 2688 
Q 2225 2688 2498 2914 
Q 2772 3141 2772 3597 
Q 2772 4006 2547 4223 
Q 2322 4441 1900 4441 
Q 1478 4441 1245 4241 
Q 1013 4041 972 3647 
L 622 3647 
L 622 4469 
z
" transform="scale(0.015625)"/>
        <path id="DejaVuSerif-32" d="M 819 3553 
L 469 3553 
L 469 4384 
Q 803 4563 1142 4656 
Q 1481 4750 1806 4750 
Q 2534 4750 2956 4397 
Q 3378 4044 3378 3438 
Q 3378 2753 2422 1800 
Q 2347 1728 2309 1691 
L 1131 513 
L 3078 513 
L 3078 1088 
L 3444 1088 
L 3444 0 
L 434 0 
L 434 341 
L 1850 1753 
Q 2319 2222 2519 2614 
Q 2719 3006 2719 3438 
Q 2719 3909 2473 4175 
Q 2228 4441 1797 4441 
Q 1350 4441 1106 4219 
Q 863 3997 819 3553 
z
" transform="scale(0.015625)"/>
       </defs>
       <use xlink:href="#DejaVuSerif-34"/>
       <use xlink:href="#DejaVuSerif-d7" x="63.623047"/>
       <use xlink:href="#DejaVuSerif-33" x="147.412109"/>
       <use xlink:href="#DejaVuSerif-32" x="211.035156"/>
      </g>
     </g>
    </g>
    <g id="xtick_4">
     <g id="line2d_4">
      <g>
       <use xlink:href="#mcc3a992f21" x="444.495107" y="288.624188" style="fill: #262626; stroke: #262626; stroke-width: 0.8"/>
      </g>
     </g>
     <g id="text_4">
      <!-- 8×8 -->
      <g style="fill: #262626" transform="translate(427.08374 307.661609) scale(0.165 -0.165)">
       <use xlink:href="#DejaVuSerif-38"/>
       <use xlink:href="#DejaVuSerif-d7" x="63.623047"/>
       <use xlink:href="#DejaVuSerif-38" x="147.412109"/>
      </g>
     </g>
    </g>
    <g id="xtick_5">
     <g id="line2d_5">
      <g>
       <use xlink:href="#mcc3a992f21" x="547.075527" y="288.624188" style="fill: #262626; stroke: #262626; stroke-width: 0.8"/>
      </g>
     </g>
     <g id="text_5">
      <!-- 8×16 -->
      <g style="fill: #262626" transform="translate(524.415097 307.661609) scale(0.165 -0.165)">
       <use xlink:href="#DejaVuSerif-38"/>
       <use xlink:href="#DejaVuSerif-d7" x="63.623047"/>
       <use xlink:href="#DejaVuSerif-31" x="147.412109"/>
       <use xlink:href="#DejaVuSerif-36" x="211.035156"/>
      </g>
     </g>
    </g>
    <g id="text_6">
     <!-- MPI ranks × CPU cores per Rank -->
     <g style="fill: #262626" transform="translate(188.789531 328.770281) scale(0.18 -0.18)">
      <defs>
       <path id="DejaVuSerif-4d" d="M 353 0 
L 353 331 
L 947 331 
L 947 4331 
L 319 4331 
L 319 4666 
L 1678 4666 
L 3316 1344 
L 4953 4666 
L 6228 4666 
L 6228 4331 
L 5606 4331 
L 5606 331 
L 6203 331 
L 6203 0 
L 4378 0 
L 4378 331 
L 4972 331 
L 4972 3938 
L 3372 684 
L 2931 684 
L 1331 3938 
L 1331 331 
L 1925 331 
L 1925 0 
L 353 0 
z
" transform="scale(0.015625)"/>
       <path id="DejaVuSerif-50" d="M 1581 2375 
L 2406 2375 
Q 2872 2375 3115 2626 
Q 3359 2878 3359 3353 
Q 3359 3831 3115 4081 
Q 2872 4331 2406 4331 
L 1581 4331 
L 1581 2375 
z
M 353 0 
L 353 331 
L 947 331 
L 947 4331 
L 353 4331 
L 353 4666 
L 2559 4666 
Q 3259 4666 3668 4311 
Q 4078 3956 4078 3353 
Q 4078 2753 3668 2397 
Q 3259 2041 2559 2041 
L 1581 2041 
L 1581 331 
L 2303 331 
L 2303 0 
L 353 0 
z
" transform="scale(0.015625)"/>
       <path id="DejaVuSerif-49" d="M 1581 331 
L 2175 331 
L 2175 0 
L 353 0 
L 353 331 
L 947 331 
L 947 4331 
L 353 4331 
L 353 4666 
L 2175 4666 
L 2175 4331 
L 1581 4331 
L 1581 331 
z
" transform="scale(0.015625)"/>
       <path id="DejaVuSerif-20" transform="scale(0.015625)"/>
       <path id="DejaVuSerif-72" d="M 3059 3328 
L 3059 2497 
L 2728 2497 
Q 2713 2744 2591 2866 
Q 2469 2988 2234 2988 
Q 1809 2988 1582 2694 
Q 1356 2400 1356 1850 
L 1356 331 
L 2022 331 
L 2022 0 
L 263 0 
L 263 331 
L 781 331 
L 781 2994 
L 231 2994 
L 231 3322 
L 1356 3322 
L 1356 2731 
Q 1525 3078 1790 3245 
Q 2056 3413 2438 3413 
Q 2578 3413 2733 3391 
Q 2888 3369 3059 3328 
z
" transform="scale(0.015625)"/>
       <path id="DejaVuSerif-61" d="M 2547 1044 
L 2547 1747 
L 1806 1747 
Q 1378 1747 1168 1562 
Q 959 1378 959 997 
Q 959 650 1171 447 
Q 1384 244 1747 244 
Q 2106 244 2326 466 
Q 2547 688 2547 1044 
z
M 3122 2075 
L 3122 331 
L 3634 331 
L 3634 0 
L 2547 0 
L 2547 359 
Q 2356 128 2106 18 
Q 1856 -91 1522 -91 
Q 969 -91 644 203 
Q 319 497 319 997 
Q 319 1513 691 1797 
Q 1063 2081 1741 2081 
L 2547 2081 
L 2547 2309 
Q 2547 2688 2317 2895 
Q 2088 3103 1672 3103 
Q 1328 3103 1125 2947 
Q 922 2791 872 2484 
L 575 2484 
L 575 3156 
Q 875 3284 1158 3348 
Q 1441 3413 1709 3413 
Q 2400 3413 2761 3070 
Q 3122 2728 3122 2075 
z
" transform="scale(0.015625)"/>
       <path id="DejaVuSerif-6e" d="M 263 0 
L 263 331 
L 781 331 
L 781 2988 
L 231 2988 
L 231 3322 
L 1356 3322 
L 1356 2731 
Q 1516 3069 1770 3241 
Q 2025 3413 2363 3413 
Q 2913 3413 3172 3097 
Q 3431 2781 3431 2113 
L 3431 331 
L 3944 331 
L 3944 0 
L 2356 0 
L 2356 331 
L 2853 331 
L 2853 1931 
Q 2853 2541 2703 2767 
Q 2553 2994 2175 2994 
Q 1775 2994 1565 2701 
Q 1356 2409 1356 1850 
L 1356 331 
L 1856 331 
L 1856 0 
L 263 0 
z
" transform="scale(0.015625)"/>
       <path id="DejaVuSerif-6b" d="M 1831 0 
L 219 0 
L 219 331 
L 738 331 
L 738 4531 
L 184 4531 
L 184 4863 
L 1313 4863 
L 1313 1697 
L 2713 2988 
L 2234 2988 
L 2234 3322 
L 3738 3322 
L 3738 2988 
L 3169 2988 
L 2181 2075 
L 3444 331 
L 3922 331 
L 3922 0 
L 2284 0 
L 2284 331 
L 2759 331 
L 1766 1697 
L 1313 1275 
L 1313 331 
L 1831 331 
L 1831 0 
z
" transform="scale(0.015625)"/>
       <path id="DejaVuSerif-73" d="M 359 184 
L 359 959 
L 691 959 
Q 703 588 923 403 
Q 1144 219 1575 219 
Q 1963 219 2166 364 
Q 2369 509 2369 788 
Q 2369 1006 2220 1140 
Q 2072 1275 1594 1428 
L 1178 1569 
Q 750 1706 558 1912 
Q 366 2119 366 2438 
Q 366 2894 700 3153 
Q 1034 3413 1625 3413 
Q 1888 3413 2178 3344 
Q 2469 3275 2778 3144 
L 2778 2419 
L 2447 2419 
Q 2434 2741 2221 2922 
Q 2009 3103 1644 3103 
Q 1281 3103 1095 2975 
Q 909 2847 909 2591 
Q 909 2381 1050 2254 
Q 1191 2128 1613 1997 
L 2069 1856 
Q 2541 1709 2748 1489 
Q 2956 1269 2956 922 
Q 2956 450 2595 179 
Q 2234 -91 1600 -91 
Q 1278 -91 972 -22 
Q 666 47 359 184 
z
" transform="scale(0.015625)"/>
       <path id="DejaVuSerif-43" d="M 4513 1234 
Q 4306 581 3820 245 
Q 3334 -91 2591 -91 
Q 2134 -91 1743 65 
Q 1353 222 1050 525 
Q 700 875 529 1320 
Q 359 1766 359 2328 
Q 359 3416 987 4083 
Q 1616 4750 2644 4750 
Q 3025 4750 3456 4650 
Q 3888 4550 4384 4347 
L 4384 3272 
L 4031 3272 
Q 3916 3859 3567 4137 
Q 3219 4416 2591 4416 
Q 1844 4416 1459 3886 
Q 1075 3356 1075 2328 
Q 1075 1303 1459 773 
Q 1844 244 2591 244 
Q 3113 244 3450 492 
Q 3788 741 3938 1234 
L 4513 1234 
z
" transform="scale(0.015625)"/>
       <path id="DejaVuSerif-55" d="M 897 4331 
L 300 4331 
L 300 4666 
L 2125 4666 
L 2125 4331 
L 1528 4331 
L 1528 1919 
Q 1528 1025 1820 672 
Q 2113 319 2828 319 
Q 3544 319 3836 672 
Q 4128 1025 4128 1919 
L 4128 4331 
L 3531 4331 
L 3531 4666 
L 5106 4666 
L 5106 4331 
L 4513 4331 
L 4513 1856 
Q 4513 791 4103 350 
Q 3694 -91 2713 -91 
Q 1731 -91 1314 353 
Q 897 797 897 1856 
L 897 4331 
z
" transform="scale(0.015625)"/>
       <path id="DejaVuSerif-63" d="M 3291 997 
Q 3169 466 2822 187 
Q 2475 -91 1925 -91 
Q 1200 -91 759 389 
Q 319 869 319 1663 
Q 319 2459 759 2936 
Q 1200 3413 1925 3413 
Q 2241 3413 2553 3339 
Q 2866 3266 3181 3116 
L 3181 2266 
L 2847 2266 
Q 2781 2703 2561 2903 
Q 2341 3103 1931 3103 
Q 1466 3103 1228 2742 
Q 991 2381 991 1663 
Q 991 944 1227 581 
Q 1463 219 1931 219 
Q 2303 219 2525 412 
Q 2747 606 2828 997 
L 3291 997 
z
" transform="scale(0.015625)"/>
       <path id="DejaVuSerif-6f" d="M 1925 219 
Q 2388 219 2623 584 
Q 2859 950 2859 1663 
Q 2859 2375 2623 2739 
Q 2388 3103 1925 3103 
Q 1463 3103 1227 2739 
Q 991 2375 991 1663 
Q 991 950 1228 584 
Q 1466 219 1925 219 
z
M 1925 -91 
Q 1200 -91 759 389 
Q 319 869 319 1663 
Q 319 2456 758 2934 
Q 1197 3413 1925 3413 
Q 2653 3413 3092 2934 
Q 3531 2456 3531 1663 
Q 3531 869 3092 389 
Q 2653 -91 1925 -91 
z
" transform="scale(0.015625)"/>
       <path id="DejaVuSerif-65" d="M 3469 1600 
L 991 1600 
L 991 1575 
Q 991 903 1244 561 
Q 1497 219 1991 219 
Q 2369 219 2611 417 
Q 2853 616 2950 1006 
L 3413 1006 
Q 3275 459 2904 184 
Q 2534 -91 1931 -91 
Q 1203 -91 761 389 
Q 319 869 319 1663 
Q 319 2450 753 2931 
Q 1188 3413 1894 3413 
Q 2647 3413 3050 2948 
Q 3453 2484 3469 1600 
z
M 2791 1931 
Q 2772 2513 2545 2808 
Q 2319 3103 1894 3103 
Q 1497 3103 1269 2806 
Q 1041 2509 991 1931 
L 2791 1931 
z
" transform="scale(0.015625)"/>
       <path id="DejaVuSerif-70" d="M 1313 1825 
L 1313 1497 
Q 1313 897 1542 583 
Q 1772 269 2209 269 
Q 2650 269 2876 622 
Q 3103 975 3103 1663 
Q 3103 2353 2876 2703 
Q 2650 3053 2209 3053 
Q 1772 3053 1542 2737 
Q 1313 2422 1313 1825 
z
M 738 2988 
L 184 2988 
L 184 3322 
L 1313 3322 
L 1313 2803 
Q 1481 3116 1742 3264 
Q 2003 3413 2388 3413 
Q 3000 3413 3387 2928 
Q 3775 2444 3775 1663 
Q 3775 881 3387 395 
Q 3000 -91 2388 -91 
Q 2003 -91 1742 57 
Q 1481 206 1313 519 
L 1313 -997 
L 1856 -997 
L 1856 -1331 
L 184 -1331 
L 184 -997 
L 738 -997 
L 738 2988 
z
" transform="scale(0.015625)"/>
       <path id="DejaVuSerif-52" d="M 3066 2316 
Q 3284 2256 3442 2114 
Q 3600 1972 3725 1716 
L 4403 331 
L 4972 331 
L 4972 0 
L 3872 0 
L 3144 1484 
Q 2934 1916 2759 2042 
Q 2584 2169 2278 2169 
L 1581 2169 
L 1581 331 
L 2241 331 
L 2241 0 
L 353 0 
L 353 331 
L 947 331 
L 947 4331 
L 353 4331 
L 353 4666 
L 2719 4666 
Q 3400 4666 3770 4341 
Q 4141 4016 4141 3419 
Q 4141 2938 3870 2661 
Q 3600 2384 3066 2316 
z
M 1581 2503 
L 2503 2503 
Q 2975 2503 3200 2726 
Q 3425 2950 3425 3419 
Q 3425 3888 3200 4109 
Q 2975 4331 2503 4331 
L 1581 4331 
L 1581 2503 
z
" transform="scale(0.015625)"/>
      </defs>
      <use xlink:href="#DejaVuSerif-4d"/>
      <use xlink:href="#DejaVuSerif-50" x="102.392578"/>
      <use xlink:href="#DejaVuSerif-49" x="169.677734"/>
      <use xlink:href="#DejaVuSerif-20" x="209.179688"/>
      <use xlink:href="#DejaVuSerif-72" x="240.966797"/>
      <use xlink:href="#DejaVuSerif-61" x="288.769531"/>
      <use xlink:href="#DejaVuSerif-6e" x="348.388672"/>
      <use xlink:href="#DejaVuSerif-6b" x="412.792969"/>
      <use xlink:href="#DejaVuSerif-73" x="473.388672"/>
      <use xlink:href="#DejaVuSerif-20" x="524.707031"/>
      <use xlink:href="#DejaVuSerif-d7" x="556.494141"/>
      <use xlink:href="#DejaVuSerif-20" x="640.283203"/>
      <use xlink:href="#DejaVuSerif-43" x="672.070312"/>
      <use xlink:href="#DejaVuSerif-50" x="748.583984"/>
      <use xlink:href="#DejaVuSerif-55" x="814.119141"/>
      <use xlink:href="#DejaVuSerif-20" x="898.396484"/>
      <use xlink:href="#DejaVuSerif-63" x="930.183594"/>
      <use xlink:href="#DejaVuSerif-6f" x="986.189453"/>
      <use xlink:href="#DejaVuSerif-72" x="1046.394531"/>
      <use xlink:href="#DejaVuSerif-65" x="1094.197266"/>
      <use xlink:href="#DejaVuSerif-73" x="1153.376953"/>
      <use xlink:href="#DejaVuSerif-20" x="1204.695312"/>
      <use xlink:href="#DejaVuSerif-70" x="1236.482422"/>
      <use xlink:href="#DejaVuSerif-65" x="1300.496094"/>
      <use xlink:href="#DejaVuSerif-72" x="1359.675781"/>
      <use xlink:href="#DejaVuSerif-20" x="1407.478516"/>
      <use xlink:href="#DejaVuSerif-52" x="1439.265625"/>
      <use xlink:href="#DejaVuSerif-61" x="1516.808594"/>
      <use xlink:href="#DejaVuSerif-6e" x="1576.427734"/>
      <use xlink:href="#DejaVuSerif-6b" x="1640.832031"/>
     </g>
    </g>
   </g>
   <g id="matplotlib.axis_2">
    <g id="ytick_1">
     <g id="line2d_6">
      <path d="M 66.870938 288.624188 
L 616.958437 288.624188 
" clip-path="url(#p8c53741b88)" style="fill: none; stroke: #808080; stroke-opacity: 0.5; stroke-width: 0.5; stroke-linecap: round"/>
     </g>
     <g id="line2d_7">
      <defs>
       <path id="m764df44076" d="M 0 0 
L -3 0 
" style="stroke: #262626; stroke-width: 0.8"/>
      </defs>
      <g>
       <use xlink:href="#m764df44076" x="66.870938" y="288.624188" style="fill: #262626; stroke: #262626; stroke-width: 0.8"/>
      </g>
     </g>
     <g id="text_7">
      <!-- 0 -->
      <g style="fill: #262626" transform="translate(49.872813 294.892898) scale(0.165 -0.165)">
       <defs>
        <path id="DejaVuSerif-30" d="M 2034 219 
Q 2513 219 2750 744 
Q 2988 1269 2988 2328 
Q 2988 3391 2750 3916 
Q 2513 4441 2034 4441 
Q 1556 4441 1318 3916 
Q 1081 3391 1081 2328 
Q 1081 1269 1318 744 
Q 1556 219 2034 219 
z
M 2034 -91 
Q 1275 -91 848 546 
Q 422 1184 422 2328 
Q 422 3475 848 4112 
Q 1275 4750 2034 4750 
Q 2797 4750 3222 4112 
Q 3647 3475 3647 2328 
Q 3647 1184 3222 546 
Q 2797 -91 2034 -91 
z
" transform="scale(0.015625)"/>
       </defs>
       <use xlink:href="#DejaVuSerif-30"/>
      </g>
     </g>
    </g>
    <g id="ytick_2">
     <g id="line2d_8">
      <path d="M 66.870938 229.068556 
L 616.958437 229.068556 
" clip-path="url(#p8c53741b88)" style="fill: none; stroke: #808080; stroke-opacity: 0.5; stroke-width: 0.5; stroke-linecap: round"/>
     </g>
     <g id="line2d_9">
      <g>
       <use xlink:href="#m764df44076" x="66.870938" y="229.068556" style="fill: #262626; stroke: #262626; stroke-width: 0.8"/>
      </g>
     </g>
     <g id="text_8">
      <!-- 200 -->
      <g style="fill: #262626" transform="translate(28.876563 235.337267) scale(0.165 -0.165)">
       <use xlink:href="#DejaVuSerif-32"/>
       <use xlink:href="#DejaVuSerif-30" x="63.623047"/>
       <use xlink:href="#DejaVuSerif-30" x="127.246094"/>
      </g>
     </g>
    </g>
    <g id="ytick_3">
     <g id="line2d_10">
      <path d="M 66.870938 169.512925 
L 616.958437 169.512925 
" clip-path="url(#p8c53741b88)" style="fill: none; stroke: #808080; stroke-opacity: 0.5; stroke-width: 0.5; stroke-linecap: round"/>
     </g>
     <g id="line2d_11">
      <g>
       <use xlink:href="#m764df44076" x="66.870938" y="169.512925" style="fill: #262626; stroke: #262626; stroke-width: 0.8"/>
      </g>
     </g>
     <g id="text_9">
      <!-- 400 -->
      <g style="fill: #262626" transform="translate(28.876563 175.781636) scale(0.165 -0.165)">
       <use xlink:href="#DejaVuSerif-34"/>
       <use xlink:href="#DejaVuSerif-30" x="63.623047"/>
       <use xlink:href="#DejaVuSerif-30" x="127.246094"/>
      </g>
     </g>
    </g>
    <g id="ytick_4">
     <g id="line2d_12">
      <path d="M 66.870938 109.957293 
L 616.958437 109.957293 
" clip-path="url(#p8c53741b88)" style="fill: none; stroke: #808080; stroke-opacity: 0.5; stroke-width: 0.5; stroke-linecap: round"/>
     </g>
     <g id="line2d_13">
      <g>
       <use xlink:href="#m764df44076" x="66.870938" y="109.957293" style="fill: #262626; stroke: #262626; stroke-width: 0.8"/>
      </g>
     </g>
     <g id="text_10">
      <!-- 600 -->
      <g style="fill: #262626" transform="translate(28.876563 116.226004) scale(0.165 -0.165)">
       <use xlink:href="#DejaVuSerif-36"/>
       <use xlink:href="#DejaVuSerif-30" x="63.623047"/>
       <use xlink:href="#DejaVuSerif-30" x="127.246094"/>
      </g>
     </g>
    </g>
    <g id="ytick_5">
     <g id="line2d_14">
      <path d="M 66.870938 50.401662 
L 616.958437 50.401662 
" clip-path="url(#p8c53741b88)" style="fill: none; stroke: #808080; stroke-opacity: 0.5; stroke-width: 0.5; stroke-linecap: round"/>
     </g>
     <g id="line2d_15">
      <g>
       <use xlink:href="#m764df44076" x="66.870938" y="50.401662" style="fill: #262626; stroke: #262626; stroke-width: 0.8"/>
      </g>
     </g>
     <g id="text_11">
      <!-- 800 -->
      <g style="fill: #262626" transform="translate(28.876563 56.670373) scale(0.165 -0.165)">
       <use xlink:href="#DejaVuSerif-38"/>
       <use xlink:href="#DejaVuSerif-30" x="63.623047"/>
       <use xlink:href="#DejaVuSerif-30" x="127.246094"/>
      </g>
     </g>
    </g>
    <g id="text_12">
     <!-- Average execution time (s) -->
     <g style="fill: #262626" transform="translate(20.877188 279.913031) rotate(-90) scale(0.18 -0.18)">
      <defs>
       <path id="DejaVuSerif-41" d="M 1281 1691 
L 2994 1691 
L 2138 3909 
L 1281 1691 
z
M -38 0 
L -38 331 
L 372 331 
L 2034 4666 
L 2559 4666 
L 4225 331 
L 4684 331 
L 4684 0 
L 2988 0 
L 2988 331 
L 3506 331 
L 3116 1356 
L 1153 1356 
L 763 331 
L 1275 331 
L 1275 0 
L -38 0 
z
" transform="scale(0.015625)"/>
       <path id="DejaVuSerif-76" d="M 1581 0 
L 359 2988 
L -19 2988 
L -19 3322 
L 1509 3322 
L 1509 2988 
L 978 2988 
L 1913 703 
L 2847 2988 
L 2350 2988 
L 2350 3322 
L 3597 3322 
L 3597 2988 
L 3225 2988 
L 2003 0 
L 1581 0 
z
" transform="scale(0.015625)"/>
       <path id="DejaVuSerif-67" d="M 3359 2988 
L 3359 72 
Q 3359 -644 2965 -1033 
Q 2572 -1422 1844 -1422 
Q 1516 -1422 1216 -1362 
Q 916 -1303 641 -1184 
L 641 -488 
L 941 -488 
Q 997 -813 1206 -963 
Q 1416 -1113 1806 -1113 
Q 2313 -1113 2548 -827 
Q 2784 -541 2784 72 
L 2784 519 
Q 2616 206 2355 57 
Q 2094 -91 1709 -91 
Q 1097 -91 708 395 
Q 319 881 319 1663 
Q 319 2444 706 2928 
Q 1094 3413 1709 3413 
Q 2094 3413 2355 3264 
Q 2616 3116 2784 2803 
L 2784 3322 
L 3909 3322 
L 3909 2988 
L 3359 2988 
z
M 2784 1825 
Q 2784 2422 2554 2737 
Q 2325 3053 1888 3053 
Q 1444 3053 1217 2703 
Q 991 2353 991 1663 
Q 991 975 1217 622 
Q 1444 269 1888 269 
Q 2325 269 2554 583 
Q 2784 897 2784 1497 
L 2784 1825 
z
" transform="scale(0.015625)"/>
       <path id="DejaVuSerif-78" d="M 1863 2028 
L 2559 2988 
L 2113 2988 
L 2113 3322 
L 3391 3322 
L 3391 2988 
L 2950 2988 
L 2059 1759 
L 3097 331 
L 3531 331 
L 3531 0 
L 1997 0 
L 1997 331 
L 2419 331 
L 1697 1325 
L 972 331 
L 1403 331 
L 1403 0 
L 141 0 
L 141 331 
L 581 331 
L 1497 1594 
L 488 2988 
L 78 2988 
L 78 3322 
L 1563 3322 
L 1563 2988 
L 1166 2988 
L 1863 2028 
z
" transform="scale(0.015625)"/>
       <path id="DejaVuSerif-75" d="M 2266 3322 
L 3341 3322 
L 3341 331 
L 3884 331 
L 3884 0 
L 2766 0 
L 2766 588 
Q 2606 256 2353 82 
Q 2100 -91 1766 -91 
Q 1213 -91 952 223 
Q 691 538 691 1209 
L 691 2988 
L 172 2988 
L 172 3322 
L 1269 3322 
L 1269 1388 
Q 1269 781 1417 556 
Q 1566 331 1947 331 
Q 2347 331 2556 625 
Q 2766 919 2766 1478 
L 2766 2988 
L 2266 2988 
L 2266 3322 
z
" transform="scale(0.015625)"/>
       <path id="DejaVuSerif-74" d="M 691 2988 
L 184 2988 
L 184 3322 
L 691 3322 
L 691 4353 
L 1269 4353 
L 1269 3322 
L 2350 3322 
L 2350 2988 
L 1269 2988 
L 1269 878 
Q 1269 456 1350 337 
Q 1431 219 1650 219 
Q 1875 219 1978 351 
Q 2081 484 2088 781 
L 2522 781 
Q 2497 328 2275 118 
Q 2053 -91 1600 -91 
Q 1103 -91 897 129 
Q 691 350 691 878 
L 691 2988 
z
" transform="scale(0.015625)"/>
       <path id="DejaVuSerif-69" d="M 622 4353 
Q 622 4497 726 4603 
Q 831 4709 978 4709 
Q 1122 4709 1226 4603 
Q 1331 4497 1331 4353 
Q 1331 4206 1228 4103 
Q 1125 4000 978 4000 
Q 831 4000 726 4103 
Q 622 4206 622 4353 
z
M 1356 331 
L 1900 331 
L 1900 0 
L 231 0 
L 231 331 
L 781 331 
L 781 2988 
L 231 2988 
L 231 3322 
L 1356 3322 
L 1356 331 
z
" transform="scale(0.015625)"/>
       <path id="DejaVuSerif-6d" d="M 3316 2675 
Q 3481 3041 3739 3227 
Q 3997 3413 4341 3413 
Q 4863 3413 5119 3089 
Q 5375 2766 5375 2113 
L 5375 331 
L 5894 331 
L 5894 0 
L 4300 0 
L 4300 331 
L 4800 331 
L 4800 2047 
Q 4800 2556 4650 2772 
Q 4500 2988 4153 2988 
Q 3769 2988 3567 2697 
Q 3366 2406 3366 1850 
L 3366 331 
L 3866 331 
L 3866 0 
L 2291 0 
L 2291 331 
L 2791 331 
L 2791 2069 
Q 2791 2566 2641 2777 
Q 2491 2988 2144 2988 
Q 1759 2988 1557 2697 
Q 1356 2406 1356 1850 
L 1356 331 
L 1856 331 
L 1856 0 
L 263 0 
L 263 331 
L 781 331 
L 781 2994 
L 231 2994 
L 231 3322 
L 1356 3322 
L 1356 2731 
Q 1516 3063 1762 3238 
Q 2009 3413 2322 3413 
Q 2709 3413 2968 3220 
Q 3228 3028 3316 2675 
z
" transform="scale(0.015625)"/>
       <path id="DejaVuSerif-28" d="M 2041 -997 
Q 1281 -656 893 83 
Q 506 822 506 1931 
Q 506 3044 893 3783 
Q 1281 4522 2041 4863 
L 2041 4556 
Q 1559 4225 1350 3623 
Q 1141 3022 1141 1931 
Q 1141 844 1350 242 
Q 1559 -359 2041 -691 
L 2041 -997 
z
" transform="scale(0.015625)"/>
       <path id="DejaVuSerif-29" d="M 453 -997 
L 453 -691 
Q 934 -359 1145 242 
Q 1356 844 1356 1931 
Q 1356 3022 1145 3623 
Q 934 4225 453 4556 
L 453 4863 
Q 1216 4522 1603 3783 
Q 1991 3044 1991 1931 
Q 1991 822 1603 83 
Q 1216 -656 453 -997 
z
" transform="scale(0.015625)"/>
      </defs>
      <use xlink:href="#DejaVuSerif-41"/>
      <use xlink:href="#DejaVuSerif-76" x="68.216797"/>
      <use xlink:href="#DejaVuSerif-65" x="124.710938"/>
      <use xlink:href="#DejaVuSerif-72" x="183.890625"/>
      <use xlink:href="#DejaVuSerif-61" x="231.693359"/>
      <use xlink:href="#DejaVuSerif-67" x="291.3125"/>
      <use xlink:href="#DejaVuSerif-65" x="355.326172"/>
      <use xlink:href="#DejaVuSerif-20" x="414.505859"/>
      <use xlink:href="#DejaVuSerif-65" x="446.292969"/>
      <use xlink:href="#DejaVuSerif-78" x="505.472656"/>
      <use xlink:href="#DejaVuSerif-65" x="561.869141"/>
      <use xlink:href="#DejaVuSerif-63" x="621.048828"/>
      <use xlink:href="#DejaVuSerif-75" x="677.054688"/>
      <use xlink:href="#DejaVuSerif-74" x="741.458984"/>
      <use xlink:href="#DejaVuSerif-69" x="781.644531"/>
      <use xlink:href="#DejaVuSerif-6f" x="813.626953"/>
      <use xlink:href="#DejaVuSerif-6e" x="873.832031"/>
      <use xlink:href="#DejaVuSerif-20" x="938.236328"/>
      <use xlink:href="#DejaVuSerif-74" x="970.023438"/>
      <use xlink:href="#DejaVuSerif-69" x="1010.208984"/>
      <use xlink:href="#DejaVuSerif-6d" x="1042.191406"/>
      <use xlink:href="#DejaVuSerif-65" x="1137.015625"/>
      <use xlink:href="#DejaVuSerif-20" x="1196.195312"/>
      <use xlink:href="#DejaVuSerif-28" x="1227.982422"/>
      <use xlink:href="#DejaVuSerif-73" x="1266.996094"/>
      <use xlink:href="#DejaVuSerif-29" x="1318.314453"/>
     </g>
    </g>
   </g>
   <g id="patch_3">
    <path d="M 91.874915 288.624188 
L 109.826488 288.624188 
L 109.826488 230.099854 
L 91.874915 230.099854 
z
" clip-path="url(#p8c53741b88)" style="fill: #7798ec; stroke: #ffffff; stroke-linejoin: miter"/>
   </g>
   <g id="patch_4">
    <path d="M 194.455334 288.624188 
L 212.406908 288.624188 
L 212.406908 227.232854 
L 194.455334 227.232854 
z
" clip-path="url(#p8c53741b88)" style="fill: #7798ec; stroke: #ffffff; stroke-linejoin: miter"/>
   </g>
   <g id="patch_5">
    <path d="M 297.035754 288.624188 
L 314.987327 288.624188 
L 314.987327 227.694973 
L 297.035754 227.694973 
z
" clip-path="url(#p8c53741b88)" style="fill: #7798ec; stroke: #ffffff; stroke-linejoin: miter"/>
   </g>
   <g id="patch_6">
    <path d="M 399.616174 288.624188 
L 417.567747 288.624188 
L 417.567747 248.27552 
L 399.616174 248.27552 
z
" clip-path="url(#p8c53741b88)" style="fill: #7798ec; stroke: #ffffff; stroke-linejoin: miter"/>
   </g>
   <g id="patch_7">
    <path d="M 502.196593 288.624188 
L 520.148167 288.624188 
L 520.148167 248.796235 
L 502.196593 248.796235 
z
" clip-path="url(#p8c53741b88)" style="fill: #7798ec; stroke: #ffffff; stroke-linejoin: miter"/>
   </g>
   <g id="patch_8">
    <path d="M 109.826488 288.624188 
L 127.778062 288.624188 
L 127.778062 217.756866 
L 109.826488 217.756866 
z
" clip-path="url(#p8c53741b88)" style="fill: #8470de; stroke: #ffffff; stroke-linejoin: miter"/>
   </g>
   <g id="patch_9">
    <path d="M 212.406908 288.624188 
L 230.358481 288.624188 
L 230.358481 238.041697 
L 212.406908 238.041697 
z
" clip-path="url(#p8c53741b88)" style="fill: #8470de; stroke: #ffffff; stroke-linejoin: miter"/>
   </g>
   <g id="patch_10">
    <path d="M 314.987327 288.624188 
L 332.938901 288.624188 
L 332.938901 244.420509 
L 314.987327 244.420509 
z
" clip-path="url(#p8c53741b88)" style="fill: #8470de; stroke: #ffffff; stroke-linejoin: miter"/>
   </g>
   <g id="patch_11">
    <path d="M 417.567747 288.624188 
L 435.51932 288.624188 
L 435.51932 226.448819 
L 417.567747 226.448819 
z
" clip-path="url(#p8c53741b88)" style="fill: #8470de; stroke: #ffffff; stroke-linejoin: miter"/>
   </g>
   <g id="patch_12">
    <path d="M 520.148167 288.624188 
L 538.09974 288.624188 
L 538.09974 246.058195 
L 520.148167 246.058195 
z
" clip-path="url(#p8c53741b88)" style="fill: #8470de; stroke: #ffffff; stroke-linejoin: miter"/>
   </g>
   <g id="patch_13">
    <path d="M 127.778062 288.624188 
L 145.729635 288.624188 
L 145.729635 214.697782 
L 127.778062 214.697782 
z
" clip-path="url(#p8c53741b88)" style="fill: #c53d7f; stroke: #ffffff; stroke-linejoin: miter"/>
   </g>
   <g id="patch_14">
    <path d="M 230.358481 288.624188 
L 248.310055 288.624188 
L 248.310055 215.103468 
L 230.358481 215.103468 
z
" clip-path="url(#p8c53741b88)" style="fill: #c53d7f; stroke: #ffffff; stroke-linejoin: miter"/>
   </g>
   <g id="patch_15">
    <path d="M 332.938901 288.624188 
L 350.890474 288.624188 
L 350.890474 214.732921 
L 332.938901 214.732921 
z
" clip-path="url(#p8c53741b88)" style="fill: #c53d7f; stroke: #ffffff; stroke-linejoin: miter"/>
   </g>
   <g id="patch_16">
    <path d="M 435.51932 288.624188 
L 453.470894 288.624188 
L 453.470894 214.324684 
L 435.51932 214.324684 
z
" clip-path="url(#p8c53741b88)" style="fill: #c53d7f; stroke: #ffffff; stroke-linejoin: miter"/>
   </g>
   <g id="patch_17">
    <path d="M 538.09974 288.624188 
L 556.051313 288.624188 
L 556.051313 212.085563 
L 538.09974 212.085563 
z
" clip-path="url(#p8c53741b88)" style="fill: #c53d7f; stroke: #ffffff; stroke-linejoin: miter"/>
   </g>
   <g id="patch_18">
    <path d="M 145.729635 288.624188 
L 163.681208 288.624188 
L 163.681208 263.66871 
L 145.729635 263.66871 
z
" clip-path="url(#p8c53741b88)" style="fill: #de6920; stroke: #ffffff; stroke-linejoin: miter"/>
   </g>
   <g id="patch_19">
    <path d="M 248.310055 288.624188 
L 266.261628 288.624188 
L 266.261628 263.691051 
L 248.310055 263.691051 
z
" clip-path="url(#p8c53741b88)" style="fill: #de6920; stroke: #ffffff; stroke-linejoin: miter"/>
   </g>
   <g id="patch_20">
    <path d="M 350.890474 288.624188 
L 368.842048 288.624188 
L 368.842048 263.410599 
L 350.890474 263.410599 
z
" clip-path="url(#p8c53741b88)" style="fill: #de6920; stroke: #ffffff; stroke-linejoin: miter"/>
   </g>
   <g id="patch_21">
    <path d="M 453.470894 288.624188 
L 471.422467 288.624188 
L 471.422467 263.628825 
L 453.470894 263.628825 
z
" clip-path="url(#p8c53741b88)" style="fill: #de6920; stroke: #ffffff; stroke-linejoin: miter"/>
   </g>
   <g id="patch_22">
    <path d="M 556.051313 288.624188 
L 574.002887 288.624188 
L 574.002887 263.760133 
L 556.051313 263.760133 
z
" clip-path="url(#p8c53741b88)" style="fill: #de6920; stroke: #ffffff; stroke-linejoin: miter"/>
   </g>
   <g id="patch_23">
    <path d="M 163.681208 288.624188 
L 181.632782 288.624188 
L 181.632782 273.650381 
L 163.681208 273.650381 
z
" clip-path="url(#p8c53741b88)" style="fill: #dfa420; stroke: #ffffff; stroke-linejoin: miter"/>
   </g>
   <g id="patch_24">
    <path d="M 266.261628 288.624188 
L 284.213201 288.624188 
L 284.213201 273.654774 
L 266.261628 273.654774 
z
" clip-path="url(#p8c53741b88)" style="fill: #dfa420; stroke: #ffffff; stroke-linejoin: miter"/>
   </g>
   <g id="patch_25">
    <path d="M 368.842048 288.624188 
L 386.793621 288.624188 
L 386.793621 273.620843 
L 368.842048 273.620843 
z
" clip-path="url(#p8c53741b88)" style="fill: #dfa420; stroke: #ffffff; stroke-linejoin: miter"/>
   </g>
   <g id="patch_26">
    <path d="M 471.422467 288.624188 
L 489.374041 288.624188 
L 489.374041 276.112151 
L 471.422467 276.112151 
z
" clip-path="url(#p8c53741b88)" style="fill: #dfa420; stroke: #ffffff; stroke-linejoin: miter"/>
   </g>
   <g id="patch_27">
    <path d="M 574.002887 288.624188 
L 591.95446 288.624188 
L 591.95446 276.344336 
L 574.002887 276.344336 
z
" clip-path="url(#p8c53741b88)" style="fill: #dfa420; stroke: #ffffff; stroke-linejoin: miter"/>
   </g>
   <g id="patch_28">
    <path d="M 145.729635 288.624188 
L 145.729635 288.624188 
L 145.729635 288.624188 
L 145.729635 288.624188 
z
" clip-path="url(#p8c53741b88)" style="fill: #7798ec; stroke: #ffffff; stroke-linejoin: miter"/>
   </g>
   <g id="patch_29">
    <path d="M 145.729635 288.624188 
L 145.729635 288.624188 
L 145.729635 288.624188 
L 145.729635 288.624188 
z
" clip-path="url(#p8c53741b88)" style="fill: #8470de; stroke: #ffffff; stroke-linejoin: miter"/>
   </g>
   <g id="patch_30">
    <path d="M 145.729635 288.624188 
L 145.729635 288.624188 
L 145.729635 288.624188 
L 145.729635 288.624188 
z
" clip-path="url(#p8c53741b88)" style="fill: #c53d7f; stroke: #ffffff; stroke-linejoin: miter"/>
   </g>
   <g id="patch_31">
    <path d="M 145.729635 288.624188 
L 145.729635 288.624188 
L 145.729635 288.624188 
L 145.729635 288.624188 
z
" clip-path="url(#p8c53741b88)" style="fill: #de6920; stroke: #ffffff; stroke-linejoin: miter"/>
   </g>
   <g id="patch_32">
    <path d="M 145.729635 288.624188 
L 145.729635 288.624188 
L 145.729635 288.624188 
L 145.729635 288.624188 
z
" clip-path="url(#p8c53741b88)" style="fill: #dfa420; stroke: #ffffff; stroke-linejoin: miter"/>
   </g>
   <g id="patch_33">
    <path d="M 145.729635 288.624188 
L 145.729635 288.624188 
L 145.729635 288.624188 
L 145.729635 288.624188 
z
" clip-path="url(#p8c53741b88)" style="fill: #d3d3d3; stroke: #ffffff; stroke-linejoin: miter"/>
   </g>
   <g id="line2d_16">
    <path d="M 140.600614 45.341269 
L 243.181034 63.225471 
L 345.761453 69.365545 
L 448.341873 74.291502 
L 550.922292 92.545955 
" clip-path="url(#p8c53741b88)" style="fill: none; stroke: #000000; stroke-width: 2; stroke-linecap: round"/>
    <defs>
     <path id="m03128babd4" d="M 0 4 
C 1.060812 4 2.078319 3.578535 2.828427 2.828427 
C 3.578535 2.078319 4 1.060812 4 0 
C 4 -1.060812 3.578535 -2.078319 2.828427 -2.828427 
C 2.078319 -3.578535 1.060812 -4 0 -4 
C -1.060812 -4 -2.078319 -3.578535 -2.828427 -2.828427 
C -3.578535 -2.078319 -4 -1.060812 -4 0 
C -4 1.060812 -3.578535 2.078319 -2.828427 2.828427 
C -2.078319 3.578535 -1.060812 4 0 4 
z
" style="stroke: #000000"/>
    </defs>
    <g clip-path="url(#p8c53741b88)">
     <use xlink:href="#m03128babd4" x="140.600614" y="45.341269" style="stroke: #000000"/>
     <use xlink:href="#m03128babd4" x="243.181034" y="63.225471" style="stroke: #000000"/>
     <use xlink:href="#m03128babd4" x="345.761453" y="69.365545" style="stroke: #000000"/>
     <use xlink:href="#m03128babd4" x="448.341873" y="74.291502" style="stroke: #000000"/>
     <use xlink:href="#m03128babd4" x="550.922292" y="92.545955" style="stroke: #000000"/>
    </g>
   </g>
   <g id="patch_34">
    <path d="M 66.870938 288.624188 
L 66.870938 26.877187 
" style="fill: none; stroke: #262626; stroke-width: 0.8; stroke-linejoin: miter; stroke-linecap: square"/>
   </g>
   <g id="patch_35">
    <path d="M 616.958437 288.624188 
L 616.958437 26.877187 
" style="fill: none; stroke: #262626; stroke-width: 0.8; stroke-linejoin: miter; stroke-linecap: square"/>
   </g>
   <g id="patch_36">
    <path d="M 66.870938 288.624188 
L 616.958438 288.624188 
" style="fill: none; stroke: #262626; stroke-width: 0.8; stroke-linejoin: miter; stroke-linecap: square"/>
   </g>
   <g id="patch_37">
    <path d="M 66.870938 26.877187 
L 616.958438 26.877187 
" style="fill: none; stroke: #262626; stroke-width: 0.8; stroke-linejoin: miter; stroke-linecap: square"/>
   </g>
   <g id="text_13">
    <g id="patch_38">
     <path d="M 126.459635 79.119085 
L 164.999635 79.119085 
L 164.999635 55.634085 
L 126.459635 55.634085 
z
" style="fill: #ffffff; stroke: #ffffff; stroke-linejoin: miter"/>
    </g>
    <!-- 817 -->
    <g style="fill: #262626" transform="translate(130.459635 71.791585) scale(0.16 -0.16)">
     <defs>
      <path id="DejaVuSerif-37" d="M 3609 4347 
L 1784 0 
L 1319 0 
L 3059 4153 
L 903 4153 
L 903 3578 
L 538 3578 
L 538 4666 
L 3609 4666 
L 3609 4347 
z
" transform="scale(0.015625)"/>
     </defs>
     <use xlink:href="#DejaVuSerif-38"/>
     <use xlink:href="#DejaVuSerif-31" x="63.623047"/>
     <use xlink:href="#DejaVuSerif-37" x="127.246094"/>
    </g>
   </g>
   <g id="text_14">
    <g id="patch_39">
     <path d="M 229.040055 97.003286 
L 267.580055 97.003286 
L 267.580055 73.518286 
L 229.040055 73.518286 
z
" style="fill: #ffffff; stroke: #ffffff; stroke-linejoin: miter"/>
    </g>
    <!-- 757 -->
    <g style="fill: #262626" transform="translate(233.040055 89.675786) scale(0.16 -0.16)">
     <defs>
      <path id="DejaVuSerif-35" d="M 3219 4666 
L 3219 4153 
L 1081 4153 
L 1081 2816 
Q 1244 2928 1461 2984 
Q 1678 3041 1947 3041 
Q 2703 3041 3140 2622 
Q 3578 2203 3578 1478 
Q 3578 738 3136 323 
Q 2694 -91 1894 -91 
Q 1572 -91 1234 -12 
Q 897 66 544 225 
L 544 1131 
L 897 1131 
Q 925 688 1179 453 
Q 1434 219 1894 219 
Q 2388 219 2653 544 
Q 2919 869 2919 1478 
Q 2919 2084 2655 2407 
Q 2391 2731 1894 2731 
Q 1613 2731 1398 2631 
Q 1184 2531 1019 2322 
L 750 2322 
L 750 4666 
L 3219 4666 
z
" transform="scale(0.015625)"/>
     </defs>
     <use xlink:href="#DejaVuSerif-37"/>
     <use xlink:href="#DejaVuSerif-35" x="63.623047"/>
     <use xlink:href="#DejaVuSerif-37" x="127.246094"/>
    </g>
   </g>
   <g id="text_15">
    <g id="patch_40">
     <path d="M 331.620474 103.143361 
L 370.160474 103.143361 
L 370.160474 79.658361 
L 331.620474 79.658361 
z
" style="fill: #ffffff; stroke: #ffffff; stroke-linejoin: miter"/>
    </g>
    <!-- 736 -->
    <g style="fill: #262626" transform="translate(335.620474 95.815861) scale(0.16 -0.16)">
     <use xlink:href="#DejaVuSerif-37"/>
     <use xlink:href="#DejaVuSerif-33" x="63.623047"/>
     <use xlink:href="#DejaVuSerif-36" x="127.246094"/>
    </g>
   </g>
   <g id="text_16">
    <g id="patch_41">
     <path d="M 434.200894 108.069318 
L 472.740894 108.069318 
L 472.740894 84.584318 
L 434.200894 84.584318 
z
" style="fill: #ffffff; stroke: #ffffff; stroke-linejoin: miter"/>
    </g>
    <!-- 720 -->
    <g style="fill: #262626" transform="translate(438.200894 100.741818) scale(0.16 -0.16)">
     <use xlink:href="#DejaVuSerif-37"/>
     <use xlink:href="#DejaVuSerif-32" x="63.623047"/>
     <use xlink:href="#DejaVuSerif-30" x="127.246094"/>
    </g>
   </g>
   <g id="text_17">
    <g id="patch_42">
     <path d="M 536.781313 126.323771 
L 575.321313 126.323771 
L 575.321313 102.838771 
L 536.781313 102.838771 
z
" style="fill: #ffffff; stroke: #ffffff; stroke-linejoin: miter"/>
    </g>
    <!-- 658 -->
    <g style="fill: #262626" transform="translate(540.781313 118.996271) scale(0.16 -0.16)">
     <use xlink:href="#DejaVuSerif-36"/>
     <use xlink:href="#DejaVuSerif-35" x="63.623047"/>
     <use xlink:href="#DejaVuSerif-38" x="127.246094"/>
    </g>
   </g>
   <g id="text_18">
    <g id="patch_43">
     <path d="M 110.337164 228.403844 
L 110.337164 197.543844 
L 94.532164 197.543844 
L 94.532164 228.403844 
z
" style="fill: #ffffff"/>
    </g>
    <!-- 197 -->
    <g transform="translate(106.849664 228.243844) rotate(-90) scale(0.16 -0.16)">
     <defs>
      <path id="DejaVuSerif-39" d="M 2994 2091 
Q 2784 1856 2512 1740 
Q 2241 1625 1900 1625 
Q 1206 1625 804 2044 
Q 403 2463 403 3188 
Q 403 3897 839 4323 
Q 1275 4750 2003 4750 
Q 2794 4750 3217 4161 
Q 3641 3572 3641 2478 
Q 3641 1253 3137 581 
Q 2634 -91 1722 -91 
Q 1475 -91 1203 -44 
Q 931 3 647 97 
L 647 872 
L 997 872 
Q 1038 556 1241 387 
Q 1444 219 1784 219 
Q 2391 219 2687 676 
Q 2984 1134 2994 2091 
z
M 1978 4441 
Q 1534 4441 1298 4117 
Q 1063 3794 1063 3188 
Q 1063 2581 1298 2256 
Q 1534 1931 1978 1931 
Q 2422 1931 2658 2245 
Q 2894 2559 2894 3150 
Q 2894 3772 2656 4106 
Q 2419 4441 1978 4441 
z
" transform="scale(0.015625)"/>
     </defs>
     <use xlink:href="#DejaVuSerif-31"/>
     <use xlink:href="#DejaVuSerif-39" x="63.623047"/>
     <use xlink:href="#DejaVuSerif-37" x="127.246094"/>
    </g>
   </g>
   <g id="text_19">
    <g id="patch_44">
     <path d="M 212.917583 225.536844 
L 212.917583 194.676844 
L 197.112583 194.676844 
L 197.112583 225.536844 
z
" style="fill: #ffffff"/>
    </g>
    <!-- 206 -->
    <g transform="translate(209.430083 225.376844) rotate(-90) scale(0.16 -0.16)">
     <use xlink:href="#DejaVuSerif-32"/>
     <use xlink:href="#DejaVuSerif-30" x="63.623047"/>
     <use xlink:href="#DejaVuSerif-36" x="127.246094"/>
    </g>
   </g>
   <g id="text_20">
    <g id="patch_45">
     <path d="M 315.498003 225.998963 
L 315.498003 195.138963 
L 299.693003 195.138963 
L 299.693003 225.998963 
z
" style="fill: #ffffff"/>
    </g>
    <!-- 205 -->
    <g transform="translate(312.010503 225.838963) rotate(-90) scale(0.16 -0.16)">
     <use xlink:href="#DejaVuSerif-32"/>
     <use xlink:href="#DejaVuSerif-30" x="63.623047"/>
     <use xlink:href="#DejaVuSerif-35" x="127.246094"/>
    </g>
   </g>
   <g id="text_21">
    <g id="patch_46">
     <path d="M 418.078423 246.579509 
L 418.078423 215.719509 
L 402.273423 215.719509 
L 402.273423 246.579509 
z
" style="fill: #ffffff"/>
    </g>
    <!-- 135 -->
    <g transform="translate(414.590923 246.419509) rotate(-90) scale(0.16 -0.16)">
     <use xlink:href="#DejaVuSerif-31"/>
     <use xlink:href="#DejaVuSerif-33" x="63.623047"/>
     <use xlink:href="#DejaVuSerif-35" x="127.246094"/>
    </g>
   </g>
   <g id="text_22">
    <g id="patch_47">
     <path d="M 520.658842 247.100224 
L 520.658842 216.240224 
L 504.853842 216.240224 
L 504.853842 247.100224 
z
" style="fill: #ffffff"/>
    </g>
    <!-- 134 -->
    <g transform="translate(517.171342 246.940224) rotate(-90) scale(0.16 -0.16)">
     <use xlink:href="#DejaVuSerif-31"/>
     <use xlink:href="#DejaVuSerif-33" x="63.623047"/>
     <use xlink:href="#DejaVuSerif-34" x="127.246094"/>
    </g>
   </g>
   <g id="text_23">
    <g id="patch_48">
     <path d="M 128.288737 216.060856 
L 128.288737 185.200856 
L 112.483737 185.200856 
L 112.483737 216.060856 
z
" style="fill: #ffffff"/>
    </g>
    <!-- 238 -->
    <g transform="translate(124.801237 215.900856) rotate(-90) scale(0.16 -0.16)">
     <use xlink:href="#DejaVuSerif-32"/>
     <use xlink:href="#DejaVuSerif-33" x="63.623047"/>
     <use xlink:href="#DejaVuSerif-38" x="127.246094"/>
    </g>
   </g>
   <g id="text_24">
    <g id="patch_49">
     <path d="M 230.869157 236.345687 
L 230.869157 205.485687 
L 215.064157 205.485687 
L 215.064157 236.345687 
z
" style="fill: #ffffff"/>
    </g>
    <!-- 170 -->
    <g transform="translate(227.381657 236.185687) rotate(-90) scale(0.16 -0.16)">
     <use xlink:href="#DejaVuSerif-31"/>
     <use xlink:href="#DejaVuSerif-37" x="63.623047"/>
     <use xlink:href="#DejaVuSerif-30" x="127.246094"/>
    </g>
   </g>
   <g id="text_25">
    <g id="patch_50">
     <path d="M 333.449576 242.724499 
L 333.449576 211.864499 
L 317.644576 211.864499 
L 317.644576 242.724499 
z
" style="fill: #ffffff"/>
    </g>
    <!-- 148 -->
    <g transform="translate(329.962076 242.564499) rotate(-90) scale(0.16 -0.16)">
     <use xlink:href="#DejaVuSerif-31"/>
     <use xlink:href="#DejaVuSerif-34" x="63.623047"/>
     <use xlink:href="#DejaVuSerif-38" x="127.246094"/>
    </g>
   </g>
   <g id="text_26">
    <g id="patch_51">
     <path d="M 436.029996 224.752809 
L 436.029996 193.892809 
L 420.224996 193.892809 
L 420.224996 224.752809 
z
" style="fill: #ffffff"/>
    </g>
    <!-- 209 -->
    <g transform="translate(432.542496 224.592809) rotate(-90) scale(0.16 -0.16)">
     <use xlink:href="#DejaVuSerif-32"/>
     <use xlink:href="#DejaVuSerif-30" x="63.623047"/>
     <use xlink:href="#DejaVuSerif-39" x="127.246094"/>
    </g>
   </g>
   <g id="text_27">
    <g id="patch_52">
     <path d="M 538.610416 244.362185 
L 538.610416 213.502185 
L 522.805416 213.502185 
L 522.805416 244.362185 
z
" style="fill: #ffffff"/>
    </g>
    <!-- 143 -->
    <g transform="translate(535.122916 244.202185) rotate(-90) scale(0.16 -0.16)">
     <use xlink:href="#DejaVuSerif-31"/>
     <use xlink:href="#DejaVuSerif-34" x="63.623047"/>
     <use xlink:href="#DejaVuSerif-33" x="127.246094"/>
    </g>
   </g>
   <g id="text_28">
    <g id="patch_53">
     <path d="M 146.240311 213.001772 
L 146.240311 182.141772 
L 130.435311 182.141772 
L 130.435311 213.001772 
z
" style="fill: #ffffff"/>
    </g>
    <!-- 248 -->
    <g transform="translate(142.752811 212.841772) rotate(-90) scale(0.16 -0.16)">
     <use xlink:href="#DejaVuSerif-32"/>
     <use xlink:href="#DejaVuSerif-34" x="63.623047"/>
     <use xlink:href="#DejaVuSerif-38" x="127.246094"/>
    </g>
   </g>
   <g id="text_29">
    <g id="patch_54">
     <path d="M 248.82073 213.407458 
L 248.82073 182.547458 
L 233.01573 182.547458 
L 233.01573 213.407458 
z
" style="fill: #ffffff"/>
    </g>
    <!-- 247 -->
    <g transform="translate(245.33323 213.247458) rotate(-90) scale(0.16 -0.16)">
     <use xlink:href="#DejaVuSerif-32"/>
     <use xlink:href="#DejaVuSerif-34" x="63.623047"/>
     <use xlink:href="#DejaVuSerif-37" x="127.246094"/>
    </g>
   </g>
   <g id="text_30">
    <g id="patch_55">
     <path d="M 351.40115 213.036911 
L 351.40115 182.176911 
L 335.59615 182.176911 
L 335.59615 213.036911 
z
" style="fill: #ffffff"/>
    </g>
    <!-- 248 -->
    <g transform="translate(347.91365 212.876911) rotate(-90) scale(0.16 -0.16)">
     <use xlink:href="#DejaVuSerif-32"/>
     <use xlink:href="#DejaVuSerif-34" x="63.623047"/>
     <use xlink:href="#DejaVuSerif-38" x="127.246094"/>
    </g>
   </g>
   <g id="text_31">
    <g id="patch_56">
     <path d="M 453.981569 212.628674 
L 453.981569 181.768674 
L 438.176569 181.768674 
L 438.176569 212.628674 
z
" style="fill: #ffffff"/>
    </g>
    <!-- 250 -->
    <g transform="translate(450.494069 212.468674) rotate(-90) scale(0.16 -0.16)">
     <use xlink:href="#DejaVuSerif-32"/>
     <use xlink:href="#DejaVuSerif-35" x="63.623047"/>
     <use xlink:href="#DejaVuSerif-30" x="127.246094"/>
    </g>
   </g>
   <g id="text_32">
    <g id="patch_57">
     <path d="M 556.561989 210.389552 
L 556.561989 179.529552 
L 540.756989 179.529552 
L 540.756989 210.389552 
z
" style="fill: #ffffff"/>
    </g>
    <!-- 257 -->
    <g transform="translate(553.074489 210.229552) rotate(-90) scale(0.16 -0.16)">
     <use xlink:href="#DejaVuSerif-32"/>
     <use xlink:href="#DejaVuSerif-35" x="63.623047"/>
     <use xlink:href="#DejaVuSerif-37" x="127.246094"/>
    </g>
   </g>
   <g id="text_33">
    <g id="patch_58">
     <path d="M 164.191884 261.9727 
L 164.191884 241.2927 
L 148.386884 241.2927 
L 148.386884 261.9727 
z
" style="fill: #ffffff"/>
    </g>
    <!-- 84 -->
    <g transform="translate(160.704384 261.8127) rotate(-90) scale(0.16 -0.16)">
     <use xlink:href="#DejaVuSerif-38"/>
     <use xlink:href="#DejaVuSerif-34" x="63.623047"/>
    </g>
   </g>
   <g id="text_34">
    <g id="patch_59">
     <path d="M 266.772304 261.995041 
L 266.772304 241.315041 
L 250.967304 241.315041 
L 250.967304 261.995041 
z
" style="fill: #ffffff"/>
    </g>
    <!-- 84 -->
    <g transform="translate(263.284804 261.835041) rotate(-90) scale(0.16 -0.16)">
     <use xlink:href="#DejaVuSerif-38"/>
     <use xlink:href="#DejaVuSerif-34" x="63.623047"/>
    </g>
   </g>
   <g id="text_35">
    <g id="patch_60">
     <path d="M 369.352723 261.714589 
L 369.352723 241.034589 
L 353.547723 241.034589 
L 353.547723 261.714589 
z
" style="fill: #ffffff"/>
    </g>
    <!-- 85 -->
    <g transform="translate(365.865223 261.554589) rotate(-90) scale(0.16 -0.16)">
     <use xlink:href="#DejaVuSerif-38"/>
     <use xlink:href="#DejaVuSerif-35" x="63.623047"/>
    </g>
   </g>
   <g id="text_36">
    <g id="patch_61">
     <path d="M 471.933143 261.932815 
L 471.933143 241.252815 
L 456.128143 241.252815 
L 456.128143 261.932815 
z
" style="fill: #ffffff"/>
    </g>
    <!-- 84 -->
    <g transform="translate(468.445643 261.772815) rotate(-90) scale(0.16 -0.16)">
     <use xlink:href="#DejaVuSerif-38"/>
     <use xlink:href="#DejaVuSerif-34" x="63.623047"/>
    </g>
   </g>
   <g id="text_37">
    <g id="patch_62">
     <path d="M 574.513562 262.064122 
L 574.513562 241.384122 
L 558.708562 241.384122 
L 558.708562 262.064122 
z
" style="fill: #ffffff"/>
    </g>
    <!-- 83 -->
    <g transform="translate(571.026062 261.904122) rotate(-90) scale(0.16 -0.16)">
     <use xlink:href="#DejaVuSerif-38"/>
     <use xlink:href="#DejaVuSerif-33" x="63.623047"/>
    </g>
   </g>
   <g id="text_38">
    <g id="patch_63">
     <path d="M 182.143458 271.954371 
L 182.143458 251.274371 
L 166.338458 251.274371 
L 166.338458 271.954371 
z
" style="fill: #ffffff"/>
    </g>
    <!-- 50 -->
    <g transform="translate(178.655958 271.794371) rotate(-90) scale(0.16 -0.16)">
     <use xlink:href="#DejaVuSerif-35"/>
     <use xlink:href="#DejaVuSerif-30" x="63.623047"/>
    </g>
   </g>
   <g id="text_39">
    <g id="patch_64">
     <path d="M 284.723877 271.958763 
L 284.723877 251.278763 
L 268.918877 251.278763 
L 268.918877 271.958763 
z
" style="fill: #ffffff"/>
    </g>
    <!-- 50 -->
    <g transform="translate(281.236377 271.798763) rotate(-90) scale(0.16 -0.16)">
     <use xlink:href="#DejaVuSerif-35"/>
     <use xlink:href="#DejaVuSerif-30" x="63.623047"/>
    </g>
   </g>
   <g id="text_40">
    <g id="patch_65">
     <path d="M 387.304297 271.924833 
L 387.304297 251.244833 
L 371.499297 251.244833 
L 371.499297 271.924833 
z
" style="fill: #ffffff"/>
    </g>
    <!-- 50 -->
    <g transform="translate(383.816797 271.764833) rotate(-90) scale(0.16 -0.16)">
     <use xlink:href="#DejaVuSerif-35"/>
     <use xlink:href="#DejaVuSerif-30" x="63.623047"/>
    </g>
   </g>
   <g id="text_41">
    <g id="patch_66">
     <path d="M 489.884716 274.416141 
L 489.884716 253.736141 
L 474.079716 253.736141 
L 474.079716 274.416141 
z
" style="fill: #ffffff"/>
    </g>
    <!-- 42 -->
    <g transform="translate(486.397216 274.256141) rotate(-90) scale(0.16 -0.16)">
     <use xlink:href="#DejaVuSerif-34"/>
     <use xlink:href="#DejaVuSerif-32" x="63.623047"/>
    </g>
   </g>
   <g id="text_42">
    <g id="patch_67">
     <path d="M 592.465136 274.648326 
L 592.465136 253.968326 
L 576.660136 253.968326 
L 576.660136 274.648326 
z
" style="fill: #ffffff"/>
    </g>
    <!-- 41 -->
    <g transform="translate(588.977636 274.488326) rotate(-90) scale(0.16 -0.16)">
     <use xlink:href="#DejaVuSerif-34"/>
     <use xlink:href="#DejaVuSerif-31" x="63.623047"/>
    </g>
   </g>
   <g id="text_43">
    <!-- C.: 10'000 targets on 1 AMD computing node -->
    <g style="fill: #262626" transform="translate(134.948438 20.877187) scale(0.18 -0.18)">
     <defs>
      <path id="DejaVuSerif-2e" d="M 603 325 
Q 603 500 722 622 
Q 841 744 1019 744 
Q 1191 744 1312 622 
Q 1434 500 1434 325 
Q 1434 153 1312 31 
Q 1191 -91 1019 -91 
Q 841 -91 722 29 
Q 603 150 603 325 
z
" transform="scale(0.015625)"/>
      <path id="DejaVuSerif-3a" d="M 666 325 
Q 666 500 786 622 
Q 906 744 1081 744 
Q 1256 744 1376 622 
Q 1497 500 1497 325 
Q 1497 150 1378 29 
Q 1259 -91 1081 -91 
Q 903 -91 784 29 
Q 666 150 666 325 
z
M 666 2363 
Q 666 2538 786 2658 
Q 906 2778 1081 2778 
Q 1259 2778 1378 2659 
Q 1497 2541 1497 2363 
Q 1497 2184 1378 2065 
Q 1259 1947 1081 1947 
Q 906 1947 786 2067 
Q 666 2188 666 2363 
z
" transform="scale(0.015625)"/>
      <path id="DejaVuSerif-27" d="M 1125 4666 
L 1125 2931 
L 628 2931 
L 628 4666 
L 1125 4666 
z
" transform="scale(0.015625)"/>
      <path id="DejaVuSerif-44" d="M 1581 331 
L 2163 331 
Q 3072 331 3558 850 
Q 4044 1369 4044 2338 
Q 4044 3306 3559 3818 
Q 3075 4331 2163 4331 
L 1581 4331 
L 1581 331 
z
M 353 0 
L 353 331 
L 947 331 
L 947 4331 
L 353 4331 
L 353 4666 
L 2209 4666 
Q 3416 4666 4089 4050 
Q 4763 3434 4763 2338 
Q 4763 1238 4088 619 
Q 3413 0 2209 0 
L 353 0 
z
" transform="scale(0.015625)"/>
      <path id="DejaVuSerif-64" d="M 3359 331 
L 3909 331 
L 3909 0 
L 2784 0 
L 2784 519 
Q 2616 206 2355 57 
Q 2094 -91 1709 -91 
Q 1097 -91 708 395 
Q 319 881 319 1663 
Q 319 2444 706 2928 
Q 1094 3413 1709 3413 
Q 2094 3413 2355 3264 
Q 2616 3116 2784 2803 
L 2784 4531 
L 2241 4531 
L 2241 4863 
L 3359 4863 
L 3359 331 
z
M 2784 1497 
L 2784 1825 
Q 2784 2422 2554 2737 
Q 2325 3053 1888 3053 
Q 1444 3053 1217 2703 
Q 991 2353 991 1663 
Q 991 975 1217 622 
Q 1444 269 1888 269 
Q 2325 269 2554 583 
Q 2784 897 2784 1497 
z
" transform="scale(0.015625)"/>
     </defs>
     <use xlink:href="#DejaVuSerif-43"/>
     <use xlink:href="#DejaVuSerif-2e" x="72.888672"/>
     <use xlink:href="#DejaVuSerif-3a" x="104.675781"/>
     <use xlink:href="#DejaVuSerif-20" x="138.367188"/>
     <use xlink:href="#DejaVuSerif-31" x="170.154297"/>
     <use xlink:href="#DejaVuSerif-30" x="233.777344"/>
     <use xlink:href="#DejaVuSerif-27" x="297.400391"/>
     <use xlink:href="#DejaVuSerif-30" x="324.890625"/>
     <use xlink:href="#DejaVuSerif-30" x="388.513672"/>
     <use xlink:href="#DejaVuSerif-30" x="452.136719"/>
     <use xlink:href="#DejaVuSerif-20" x="515.759766"/>
     <use xlink:href="#DejaVuSerif-74" x="547.546875"/>
     <use xlink:href="#DejaVuSerif-61" x="587.732422"/>
     <use xlink:href="#DejaVuSerif-72" x="647.351562"/>
     <use xlink:href="#DejaVuSerif-67" x="695.154297"/>
     <use xlink:href="#DejaVuSerif-65" x="759.167969"/>
     <use xlink:href="#DejaVuSerif-74" x="818.347656"/>
     <use xlink:href="#DejaVuSerif-73" x="858.533203"/>
     <use xlink:href="#DejaVuSerif-20" x="909.851562"/>
     <use xlink:href="#DejaVuSerif-6f" x="941.638672"/>
     <use xlink:href="#DejaVuSerif-6e" x="1001.84375"/>
     <use xlink:href="#DejaVuSerif-20" x="1066.248047"/>
     <use xlink:href="#DejaVuSerif-31" x="1098.035156"/>
     <use xlink:href="#DejaVuSerif-20" x="1161.658203"/>
     <use xlink:href="#DejaVuSerif-41" x="1193.445312"/>
     <use xlink:href="#DejaVuSerif-4d" x="1265.662109"/>
     <use xlink:href="#DejaVuSerif-44" x="1368.054688"/>
     <use xlink:href="#DejaVuSerif-20" x="1448.230469"/>
     <use xlink:href="#DejaVuSerif-63" x="1480.017578"/>
     <use xlink:href="#DejaVuSerif-6f" x="1536.023438"/>
     <use xlink:href="#DejaVuSerif-6d" x="1596.228516"/>
     <use xlink:href="#DejaVuSerif-70" x="1691.052734"/>
     <use xlink:href="#DejaVuSerif-75" x="1755.066406"/>
     <use xlink:href="#DejaVuSerif-74" x="1819.470703"/>
     <use xlink:href="#DejaVuSerif-69" x="1859.65625"/>
     <use xlink:href="#DejaVuSerif-6e" x="1891.638672"/>
     <use xlink:href="#DejaVuSerif-67" x="1956.042969"/>
     <use xlink:href="#DejaVuSerif-20" x="2020.056641"/>
     <use xlink:href="#DejaVuSerif-6e" x="2051.84375"/>
     <use xlink:href="#DejaVuSerif-6f" x="2116.248047"/>
     <use xlink:href="#DejaVuSerif-64" x="2176.453125"/>
     <use xlink:href="#DejaVuSerif-65" x="2240.466797"/>
    </g>
   </g>
   <g id="legend_1">
    <g id="patch_68">
     <path d="M 136.845469 439.413581 
L 546.983906 439.413581 
Q 550.283906 439.413581 550.283906 436.113581 
L 550.283906 339.436238 
Q 550.283906 336.136238 546.983906 336.136238 
L 136.845469 336.136238 
Q 133.545469 336.136238 133.545469 339.436238 
L 133.545469 436.113581 
Q 133.545469 439.413581 136.845469 439.413581 
z
" style="fill: #ffffff; stroke: #cccccc; stroke-linejoin: miter"/>
    </g>
    <g id="text_44">
     <!-- Substep -->
     <g style="fill: #262626" transform="translate(304.868438 356.413425) scale(0.18 -0.18)">
      <defs>
       <path id="DejaVuSerif-53" d="M 594 225 
L 594 1288 
L 953 1284 
Q 969 753 1261 498 
Q 1553 244 2150 244 
Q 2706 244 2998 464 
Q 3291 684 3291 1106 
Q 3291 1444 3114 1625 
Q 2938 1806 2369 1978 
L 1753 2163 
Q 1084 2366 811 2669 
Q 538 2972 538 3500 
Q 538 4094 959 4422 
Q 1381 4750 2144 4750 
Q 2469 4750 2856 4679 
Q 3244 4609 3681 4475 
L 3681 3481 
L 3328 3481 
Q 3275 3975 2998 4195 
Q 2722 4416 2156 4416 
Q 1663 4416 1405 4214 
Q 1147 4013 1147 3628 
Q 1147 3294 1340 3103 
Q 1534 2913 2163 2725 
L 2741 2553 
Q 3375 2363 3645 2067 
Q 3916 1772 3916 1275 
Q 3916 597 3481 253 
Q 3047 -91 2188 -91 
Q 1803 -91 1404 -12 
Q 1006 66 594 225 
z
" transform="scale(0.015625)"/>
       <path id="DejaVuSerif-62" d="M 738 331 
L 738 4531 
L 184 4531 
L 184 4863 
L 1313 4863 
L 1313 2803 
Q 1481 3116 1742 3264 
Q 2003 3413 2388 3413 
Q 3000 3413 3387 2928 
Q 3775 2444 3775 1663 
Q 3775 881 3387 395 
Q 3000 -91 2388 -91 
Q 2003 -91 1742 57 
Q 1481 206 1313 519 
L 1313 0 
L 184 0 
L 184 331 
L 738 331 
z
M 1313 1497 
Q 1313 897 1542 583 
Q 1772 269 2209 269 
Q 2650 269 2876 622 
Q 3103 975 3103 1663 
Q 3103 2353 2876 2703 
Q 2650 3053 2209 3053 
Q 1772 3053 1542 2737 
Q 1313 2422 1313 1825 
L 1313 1497 
z
" transform="scale(0.015625)"/>
      </defs>
      <use xlink:href="#DejaVuSerif-53"/>
      <use xlink:href="#DejaVuSerif-75" x="68.505859"/>
      <use xlink:href="#DejaVuSerif-62" x="132.910156"/>
      <use xlink:href="#DejaVuSerif-73" x="196.923828"/>
      <use xlink:href="#DejaVuSerif-74" x="248.242188"/>
      <use xlink:href="#DejaVuSerif-65" x="288.427734"/>
      <use xlink:href="#DejaVuSerif-70" x="347.607422"/>
     </g>
    </g>
    <g id="patch_69">
     <path d="M 140.145469 380.944284 
L 173.145469 380.944284 
L 173.145469 369.394284 
L 140.145469 369.394284 
z
" style="fill: #7798ec; stroke: #ffffff; stroke-linejoin: miter"/>
    </g>
    <g id="text_45">
     <!-- Parse Assemblies -->
     <g style="fill: #262626" transform="translate(186.345469 380.944284) scale(0.165 -0.165)">
      <defs>
       <path id="DejaVuSerif-6c" d="M 1313 331 
L 1856 331 
L 1856 0 
L 184 0 
L 184 331 
L 738 331 
L 738 4531 
L 184 4531 
L 184 4863 
L 1313 4863 
L 1313 331 
z
" transform="scale(0.015625)"/>
      </defs>
      <use xlink:href="#DejaVuSerif-50"/>
      <use xlink:href="#DejaVuSerif-61" x="62.785156"/>
      <use xlink:href="#DejaVuSerif-72" x="122.404297"/>
      <use xlink:href="#DejaVuSerif-73" x="170.207031"/>
      <use xlink:href="#DejaVuSerif-65" x="221.525391"/>
      <use xlink:href="#DejaVuSerif-20" x="280.705078"/>
      <use xlink:href="#DejaVuSerif-41" x="312.492188"/>
      <use xlink:href="#DejaVuSerif-73" x="384.708984"/>
      <use xlink:href="#DejaVuSerif-73" x="436.027344"/>
      <use xlink:href="#DejaVuSerif-65" x="487.345703"/>
      <use xlink:href="#DejaVuSerif-6d" x="546.525391"/>
      <use xlink:href="#DejaVuSerif-62" x="641.349609"/>
      <use xlink:href="#DejaVuSerif-6c" x="705.363281"/>
      <use xlink:href="#DejaVuSerif-69" x="737.345703"/>
      <use xlink:href="#DejaVuSerif-65" x="769.328125"/>
      <use xlink:href="#DejaVuSerif-73" x="828.507812"/>
     </g>
    </g>
    <g id="patch_70">
     <path d="M 140.145469 405.163191 
L 173.145469 405.163191 
L 173.145469 393.613191 
L 140.145469 393.613191 
z
" style="fill: #8470de; stroke: #ffffff; stroke-linejoin: miter"/>
    </g>
    <g id="text_46">
     <!-- Find Families -->
     <g style="fill: #262626" transform="translate(186.345469 405.163191) scale(0.165 -0.165)">
      <defs>
       <path id="DejaVuSerif-46" d="M 353 0 
L 353 331 
L 947 331 
L 947 4331 
L 353 4331 
L 353 4666 
L 4172 4666 
L 4172 3628 
L 3788 3628 
L 3788 4281 
L 1581 4281 
L 1581 2719 
L 3175 2719 
L 3175 3303 
L 3559 3303 
L 3559 1753 
L 3175 1753 
L 3175 2338 
L 1581 2338 
L 1581 331 
L 2328 331 
L 2328 0 
L 353 0 
z
" transform="scale(0.015625)"/>
      </defs>
      <use xlink:href="#DejaVuSerif-46"/>
      <use xlink:href="#DejaVuSerif-69" x="69.384766"/>
      <use xlink:href="#DejaVuSerif-6e" x="101.367188"/>
      <use xlink:href="#DejaVuSerif-64" x="165.771484"/>
      <use xlink:href="#DejaVuSerif-20" x="229.785156"/>
      <use xlink:href="#DejaVuSerif-46" x="261.572266"/>
      <use xlink:href="#DejaVuSerif-61" x="324.207031"/>
      <use xlink:href="#DejaVuSerif-6d" x="383.826172"/>
      <use xlink:href="#DejaVuSerif-69" x="478.650391"/>
      <use xlink:href="#DejaVuSerif-6c" x="510.632812"/>
      <use xlink:href="#DejaVuSerif-69" x="542.615234"/>
      <use xlink:href="#DejaVuSerif-65" x="574.597656"/>
      <use xlink:href="#DejaVuSerif-73" x="633.777344"/>
     </g>
    </g>
    <g id="patch_71">
     <path d="M 140.145469 429.382097 
L 173.145469 429.382097 
L 173.145469 417.832097 
L 140.145469 417.832097 
z
" style="fill: #c53d7f; stroke: #ffffff; stroke-linejoin: miter"/>
    </g>
    <g id="text_47">
     <!-- Find Operons -->
     <g style="fill: #262626" transform="translate(186.345469 429.382097) scale(0.165 -0.165)">
      <defs>
       <path id="DejaVuSerif-4f" d="M 2625 244 
Q 3391 244 3781 770 
Q 4172 1297 4172 2328 
Q 4172 3363 3781 3889 
Q 3391 4416 2625 4416 
Q 1856 4416 1465 3889 
Q 1075 3363 1075 2328 
Q 1075 1297 1465 770 
Q 1856 244 2625 244 
z
M 2625 -91 
Q 2150 -91 1751 65 
Q 1353 222 1050 525 
Q 700 875 529 1319 
Q 359 1763 359 2328 
Q 359 2894 529 3339 
Q 700 3784 1050 4134 
Q 1356 4441 1750 4595 
Q 2144 4750 2625 4750 
Q 3641 4750 4266 4084 
Q 4891 3419 4891 2328 
Q 4891 1769 4719 1320 
Q 4547 872 4197 525 
Q 3891 219 3497 64 
Q 3103 -91 2625 -91 
z
" transform="scale(0.015625)"/>
      </defs>
      <use xlink:href="#DejaVuSerif-46"/>
      <use xlink:href="#DejaVuSerif-69" x="69.384766"/>
      <use xlink:href="#DejaVuSerif-6e" x="101.367188"/>
      <use xlink:href="#DejaVuSerif-64" x="165.771484"/>
      <use xlink:href="#DejaVuSerif-20" x="229.785156"/>
      <use xlink:href="#DejaVuSerif-4f" x="261.572266"/>
      <use xlink:href="#DejaVuSerif-70" x="343.554688"/>
      <use xlink:href="#DejaVuSerif-65" x="407.568359"/>
      <use xlink:href="#DejaVuSerif-72" x="466.748047"/>
      <use xlink:href="#DejaVuSerif-6f" x="514.550781"/>
      <use xlink:href="#DejaVuSerif-6e" x="574.755859"/>
      <use xlink:href="#DejaVuSerif-73" x="639.160156"/>
     </g>
    </g>
    <g id="patch_72">
     <path d="M 364.517109 380.944284 
L 397.517109 380.944284 
L 397.517109 369.394284 
L 364.517109 369.394284 
z
" style="fill: #de6920; stroke: #ffffff; stroke-linejoin: miter"/>
    </g>
    <g id="text_48">
     <!-- Produce Output -->
     <g style="fill: #262626" transform="translate(410.717109 380.944284) scale(0.165 -0.165)">
      <use xlink:href="#DejaVuSerif-50"/>
      <use xlink:href="#DejaVuSerif-72" x="67.285156"/>
      <use xlink:href="#DejaVuSerif-6f" x="115.087891"/>
      <use xlink:href="#DejaVuSerif-64" x="175.292969"/>
      <use xlink:href="#DejaVuSerif-75" x="239.306641"/>
      <use xlink:href="#DejaVuSerif-63" x="303.710938"/>
      <use xlink:href="#DejaVuSerif-65" x="359.716797"/>
      <use xlink:href="#DejaVuSerif-20" x="418.896484"/>
      <use xlink:href="#DejaVuSerif-4f" x="450.683594"/>
      <use xlink:href="#DejaVuSerif-75" x="532.666016"/>
      <use xlink:href="#DejaVuSerif-74" x="597.070312"/>
      <use xlink:href="#DejaVuSerif-70" x="637.255859"/>
      <use xlink:href="#DejaVuSerif-75" x="701.269531"/>
      <use xlink:href="#DejaVuSerif-74" x="765.673828"/>
     </g>
    </g>
    <g id="patch_73">
     <path d="M 364.517109 405.163191 
L 397.517109 405.163191 
L 397.517109 393.613191 
L 364.517109 393.613191 
z
" style="fill: #dfa420; stroke: #ffffff; stroke-linejoin: miter"/>
    </g>
    <g id="text_49">
     <!-- Other Substeps -->
     <g style="fill: #262626" transform="translate(410.717109 405.163191) scale(0.165 -0.165)">
      <defs>
       <path id="DejaVuSerif-68" d="M 263 0 
L 263 331 
L 781 331 
L 781 4531 
L 231 4531 
L 231 4863 
L 1356 4863 
L 1356 2731 
Q 1516 3069 1770 3241 
Q 2025 3413 2363 3413 
Q 2913 3413 3172 3097 
Q 3431 2781 3431 2113 
L 3431 331 
L 3944 331 
L 3944 0 
L 2356 0 
L 2356 331 
L 2853 331 
L 2853 1931 
Q 2853 2541 2704 2764 
Q 2556 2988 2175 2988 
Q 1775 2988 1565 2697 
Q 1356 2406 1356 1850 
L 1356 331 
L 1856 331 
L 1856 0 
L 263 0 
z
" transform="scale(0.015625)"/>
      </defs>
      <use xlink:href="#DejaVuSerif-4f"/>
      <use xlink:href="#DejaVuSerif-74" x="81.982422"/>
      <use xlink:href="#DejaVuSerif-68" x="122.167969"/>
      <use xlink:href="#DejaVuSerif-65" x="186.572266"/>
      <use xlink:href="#DejaVuSerif-72" x="245.751953"/>
      <use xlink:href="#DejaVuSerif-20" x="293.554688"/>
      <use xlink:href="#DejaVuSerif-53" x="325.341797"/>
      <use xlink:href="#DejaVuSerif-75" x="393.847656"/>
      <use xlink:href="#DejaVuSerif-62" x="458.251953"/>
      <use xlink:href="#DejaVuSerif-73" x="522.265625"/>
      <use xlink:href="#DejaVuSerif-74" x="573.583984"/>
      <use xlink:href="#DejaVuSerif-65" x="613.769531"/>
      <use xlink:href="#DejaVuSerif-70" x="672.949219"/>
      <use xlink:href="#DejaVuSerif-73" x="736.962891"/>
     </g>
    </g>
    <g id="line2d_17">
     <path d="M 364.517109 423.607097 
L 381.017109 423.607097 
L 397.517109 423.607097 
" style="fill: none; stroke: #000000; stroke-width: 2; stroke-linecap: round"/>
     <g>
      <use xlink:href="#m03128babd4" x="381.017109" y="423.607097" style="stroke: #000000"/>
     </g>
    </g>
    <g id="text_50">
     <!-- End-to-end -->
     <g style="fill: #262626" transform="translate(410.717109 429.382097) scale(0.165 -0.165)">
      <defs>
       <path id="DejaVuSerif-45" d="M 353 0 
L 353 331 
L 947 331 
L 947 4331 
L 353 4331 
L 353 4666 
L 4109 4666 
L 4109 3628 
L 3725 3628 
L 3725 4281 
L 1581 4281 
L 1581 2719 
L 3109 2719 
L 3109 3303 
L 3494 3303 
L 3494 1753 
L 3109 1753 
L 3109 2338 
L 1581 2338 
L 1581 384 
L 3775 384 
L 3775 1038 
L 4159 1038 
L 4159 0 
L 353 0 
z
" transform="scale(0.015625)"/>
       <path id="DejaVuSerif-2d" d="M 281 1959 
L 1881 1959 
L 1881 1472 
L 281 1472 
L 281 1959 
z
" transform="scale(0.015625)"/>
      </defs>
      <use xlink:href="#DejaVuSerif-45"/>
      <use xlink:href="#DejaVuSerif-6e" x="72.998047"/>
      <use xlink:href="#DejaVuSerif-64" x="137.402344"/>
      <use xlink:href="#DejaVuSerif-2d" x="201.416016"/>
      <use xlink:href="#DejaVuSerif-74" x="235.205078"/>
      <use xlink:href="#DejaVuSerif-6f" x="275.390625"/>
      <use xlink:href="#DejaVuSerif-2d" x="335.595703"/>
      <use xlink:href="#DejaVuSerif-65" x="369.384766"/>
      <use xlink:href="#DejaVuSerif-6e" x="428.564453"/>
      <use xlink:href="#DejaVuSerif-64" x="492.96875"/>
     </g>
    </g>
   </g>
  </g>
 </g>
 <defs>
  <clipPath id="p8c53741b88">
   <rect x="66.870938" y="26.877187" width="550.0875" height="261.747"/>
  </clipPath>
 </defs>
</svg>
