<?xml version="1.0" encoding="utf-8" standalone="no"?>
<!DOCTYPE svg PUBLIC "-//W3C//DTD SVG 1.1//EN"
  "http://www.w3.org/Graphics/SVG/1.1/DTD/svg11.dtd">
<svg xmlns:xlink="http://www.w3.org/1999/xlink" width="624.158437pt" height="301.482656pt" viewBox="0 0 624.158437 301.482656" xmlns="http://www.w3.org/2000/svg" version="1.1">
 <metadata>
  <rdf:RDF xmlns:dc="http://purl.org/dc/elements/1.1/" xmlns:cc="http://creativecommons.org/ns#" xmlns:rdf="http://www.w3.org/1999/02/22-rdf-syntax-ns#">
   <cc:Work>
    <dc:type rdf:resource="http://purl.org/dc/dcmitype/StillImage"/>
    <dc:date>2025-03-09T15:48:19.548341</dc:date>
    <dc:format>image/svg+xml</dc:format>
    <dc:creator>
     <cc:Agent>
      <dc:title>Matplotlib v3.9.2, https://matplotlib.org/</dc:title>
     </cc:Agent>
    </dc:creator>
   </cc:Work>
  </rdf:RDF>
 </metadata>
 <defs>
  <style type="text/css">*{stroke-linejoin: round; stroke-linecap: butt}</style>
 </defs>
 <g id="figure_1">
  <g id="patch_1">
   <path d="M 0 301.482656 
L 624.158437 301.482656 
L 624.158437 0 
L 0 0 
z
" style="fill: #ffffff"/>
  </g>
  <g id="axes_1">
   <g id="patch_2">
    <path d="M 66.870938 250.137187 
L 616.958437 250.137187 
L 616.958437 26.877187 
L 66.870938 26.877187 
z
" style="fill: #ffffff"/>
   </g>
   <g id="matplotlib.axis_1">
    <g id="xtick_1">
     <g id="line2d_1">
      <defs>
       <path id="m973524d31f" d="M 0 0 
L 0 3 
" style="stroke: #262626; stroke-width: 0.8"/>
      </defs>
      <g>
       <use xlink:href="#m973524d31f" x="135.631875" y="250.137187" style="fill: #262626; stroke: #262626; stroke-width: 0.8"/>
      </g>
     </g>
     <g id="text_1">
      <!-- 10 -->
      <g style="fill: #262626" transform="translate(125.13375 269.174609) scale(0.165 -0.165)">
       <defs>
        <path id="DejaVuSerif-31" d="M 909 0 
L 909 331 
L 1722 331 
L 1722 4213 
L 781 3603 
L 781 4013 
L 1919 4750 
L 2350 4750 
L 2350 331 
L 3163 331 
L 3163 0 
L 909 0 
z
" transform="scale(0.015625)"/>
        <path id="DejaVuSerif-30" d="M 2034 219 
Q 2513 219 2750 744 
Q 2988 1269 2988 2328 
Q 2988 3391 2750 3916 
Q 2513 4441 2034 4441 
Q 1556 4441 1318 3916 
Q 1081 3391 1081 2328 
Q 1081 1269 1318 744 
Q 1556 219 2034 219 
z
M 2034 -91 
Q 1275 -91 848 546 
Q 422 1184 422 2328 
Q 422 3475 848 4112 
Q 1275 4750 2034 4750 
Q 2797 4750 3222 4112 
Q 3647 3475 3647 2328 
Q 3647 1184 3222 546 
Q 2797 -91 2034 -91 
z
" transform="scale(0.015625)"/>
       </defs>
       <use xlink:href="#DejaVuSerif-31"/>
       <use xlink:href="#DejaVuSerif-30" x="63.623047"/>
      </g>
     </g>
    </g>
    <g id="xtick_2">
     <g id="line2d_2">
      <g>
       <use xlink:href="#m973524d31f" x="273.15375" y="250.137187" style="fill: #262626; stroke: #262626; stroke-width: 0.8"/>
      </g>
     </g>
     <g id="text_2">
      <!-- 20 -->
      <g style="fill: #262626" transform="translate(262.655625 269.174609) scale(0.165 -0.165)">
       <defs>
        <path id="DejaVuSerif-32" d="M 819 3553 
L 469 3553 
L 469 4384 
Q 803 4563 1142 4656 
Q 1481 4750 1806 4750 
Q 2534 4750 2956 4397 
Q 3378 4044 3378 3438 
Q 3378 2753 2422 1800 
Q 2347 1728 2309 1691 
L 1131 513 
L 3078 513 
L 3078 1088 
L 3444 1088 
L 3444 0 
L 434 0 
L 434 341 
L 1850 1753 
Q 2319 2222 2519 2614 
Q 2719 3006 2719 3438 
Q 2719 3909 2473 4175 
Q 2228 4441 1797 4441 
Q 1350 4441 1106 4219 
Q 863 3997 819 3553 
z
" transform="scale(0.015625)"/>
       </defs>
       <use xlink:href="#DejaVuSerif-32"/>
       <use xlink:href="#DejaVuSerif-30" x="63.623047"/>
      </g>
     </g>
    </g>
    <g id="xtick_3">
     <g id="line2d_3">
      <g>
       <use xlink:href="#m973524d31f" x="410.675625" y="250.137187" style="fill: #262626; stroke: #262626; stroke-width: 0.8"/>
      </g>
     </g>
     <g id="text_3">
      <!-- 50 -->
      <g style="fill: #262626" transform="translate(400.1775 269.174609) scale(0.165 -0.165)">
       <defs>
        <path id="DejaVuSerif-35" d="M 3219 4666 
L 3219 4153 
L 1081 4153 
L 1081 2816 
Q 1244 2928 1461 2984 
Q 1678 3041 1947 3041 
Q 2703 3041 3140 2622 
Q 3578 2203 3578 1478 
Q 3578 738 3136 323 
Q 2694 -91 1894 -91 
Q 1572 -91 1234 -12 
Q 897 66 544 225 
L 544 1131 
L 897 1131 
Q 925 688 1179 453 
Q 1434 219 1894 219 
Q 2388 219 2653 544 
Q 2919 869 2919 1478 
Q 2919 2084 2655 2407 
Q 2391 2731 1894 2731 
Q 1613 2731 1398 2631 
Q 1184 2531 1019 2322 
L 750 2322 
L 750 4666 
L 3219 4666 
z
" transform="scale(0.015625)"/>
       </defs>
       <use xlink:href="#DejaVuSerif-35"/>
       <use xlink:href="#DejaVuSerif-30" x="63.623047"/>
      </g>
     </g>
    </g>
    <g id="xtick_4">
     <g id="line2d_4">
      <g>
       <use xlink:href="#m973524d31f" x="548.1975" y="250.137187" style="fill: #262626; stroke: #262626; stroke-width: 0.8"/>
      </g>
     </g>
     <g id="text_4">
      <!-- 100 -->
      <g style="fill: #262626" transform="translate(532.450312 269.174609) scale(0.165 -0.165)">
       <use xlink:href="#DejaVuSerif-31"/>
       <use xlink:href="#DejaVuSerif-30" x="63.623047"/>
       <use xlink:href="#DejaVuSerif-30" x="127.246094"/>
      </g>
     </g>
    </g>
    <g id="text_5">
     <!-- Number of target sequences -->
     <g style="fill: #262626" transform="translate(211.386563 290.283281) scale(0.18 -0.18)">
      <defs>
       <path id="DejaVuSerif-4e" d="M 313 0 
L 313 331 
L 941 331 
L 941 4331 
L 313 4331 
L 313 4666 
L 1509 4666 
L 4306 984 
L 4306 4331 
L 3681 4331 
L 3681 4666 
L 5319 4666 
L 5319 4331 
L 4691 4331 
L 4691 -91 
L 4313 -91 
L 1325 3841 
L 1325 331 
L 1953 331 
L 1953 0 
L 313 0 
z
" transform="scale(0.015625)"/>
       <path id="DejaVuSerif-75" d="M 2266 3322 
L 3341 3322 
L 3341 331 
L 3884 331 
L 3884 0 
L 2766 0 
L 2766 588 
Q 2606 256 2353 82 
Q 2100 -91 1766 -91 
Q 1213 -91 952 223 
Q 691 538 691 1209 
L 691 2988 
L 172 2988 
L 172 3322 
L 1269 3322 
L 1269 1388 
Q 1269 781 1417 556 
Q 1566 331 1947 331 
Q 2347 331 2556 625 
Q 2766 919 2766 1478 
L 2766 2988 
L 2266 2988 
L 2266 3322 
z
" transform="scale(0.015625)"/>
       <path id="DejaVuSerif-6d" d="M 3316 2675 
Q 3481 3041 3739 3227 
Q 3997 3413 4341 3413 
Q 4863 3413 5119 3089 
Q 5375 2766 5375 2113 
L 5375 331 
L 5894 331 
L 5894 0 
L 4300 0 
L 4300 331 
L 4800 331 
L 4800 2047 
Q 4800 2556 4650 2772 
Q 4500 2988 4153 2988 
Q 3769 2988 3567 2697 
Q 3366 2406 3366 1850 
L 3366 331 
L 3866 331 
L 3866 0 
L 2291 0 
L 2291 331 
L 2791 331 
L 2791 2069 
Q 2791 2566 2641 2777 
Q 2491 2988 2144 2988 
Q 1759 2988 1557 2697 
Q 1356 2406 1356 1850 
L 1356 331 
L 1856 331 
L 1856 0 
L 263 0 
L 263 331 
L 781 331 
L 781 2994 
L 231 2994 
L 231 3322 
L 1356 3322 
L 1356 2731 
Q 1516 3063 1762 3238 
Q 2009 3413 2322 3413 
Q 2709 3413 2968 3220 
Q 3228 3028 3316 2675 
z
" transform="scale(0.015625)"/>
       <path id="DejaVuSerif-62" d="M 738 331 
L 738 4531 
L 184 4531 
L 184 4863 
L 1313 4863 
L 1313 2803 
Q 1481 3116 1742 3264 
Q 2003 3413 2388 3413 
Q 3000 3413 3387 2928 
Q 3775 2444 3775 1663 
Q 3775 881 3387 395 
Q 3000 -91 2388 -91 
Q 2003 -91 1742 57 
Q 1481 206 1313 519 
L 1313 0 
L 184 0 
L 184 331 
L 738 331 
z
M 1313 1497 
Q 1313 897 1542 583 
Q 1772 269 2209 269 
Q 2650 269 2876 622 
Q 3103 975 3103 1663 
Q 3103 2353 2876 2703 
Q 2650 3053 2209 3053 
Q 1772 3053 1542 2737 
Q 1313 2422 1313 1825 
L 1313 1497 
z
" transform="scale(0.015625)"/>
       <path id="DejaVuSerif-65" d="M 3469 1600 
L 991 1600 
L 991 1575 
Q 991 903 1244 561 
Q 1497 219 1991 219 
Q 2369 219 2611 417 
Q 2853 616 2950 1006 
L 3413 1006 
Q 3275 459 2904 184 
Q 2534 -91 1931 -91 
Q 1203 -91 761 389 
Q 319 869 319 1663 
Q 319 2450 753 2931 
Q 1188 3413 1894 3413 
Q 2647 3413 3050 2948 
Q 3453 2484 3469 1600 
z
M 2791 1931 
Q 2772 2513 2545 2808 
Q 2319 3103 1894 3103 
Q 1497 3103 1269 2806 
Q 1041 2509 991 1931 
L 2791 1931 
z
" transform="scale(0.015625)"/>
       <path id="DejaVuSerif-72" d="M 3059 3328 
L 3059 2497 
L 2728 2497 
Q 2713 2744 2591 2866 
Q 2469 2988 2234 2988 
Q 1809 2988 1582 2694 
Q 1356 2400 1356 1850 
L 1356 331 
L 2022 331 
L 2022 0 
L 263 0 
L 263 331 
L 781 331 
L 781 2994 
L 231 2994 
L 231 3322 
L 1356 3322 
L 1356 2731 
Q 1525 3078 1790 3245 
Q 2056 3413 2438 3413 
Q 2578 3413 2733 3391 
Q 2888 3369 3059 3328 
z
" transform="scale(0.015625)"/>
       <path id="DejaVuSerif-20" transform="scale(0.015625)"/>
       <path id="DejaVuSerif-6f" d="M 1925 219 
Q 2388 219 2623 584 
Q 2859 950 2859 1663 
Q 2859 2375 2623 2739 
Q 2388 3103 1925 3103 
Q 1463 3103 1227 2739 
Q 991 2375 991 1663 
Q 991 950 1228 584 
Q 1466 219 1925 219 
z
M 1925 -91 
Q 1200 -91 759 389 
Q 319 869 319 1663 
Q 319 2456 758 2934 
Q 1197 3413 1925 3413 
Q 2653 3413 3092 2934 
Q 3531 2456 3531 1663 
Q 3531 869 3092 389 
Q 2653 -91 1925 -91 
z
" transform="scale(0.015625)"/>
       <path id="DejaVuSerif-66" d="M 2753 4078 
L 2450 4078 
Q 2447 4313 2317 4434 
Q 2188 4556 1941 4556 
Q 1619 4556 1487 4379 
Q 1356 4203 1356 3750 
L 1356 3322 
L 2284 3322 
L 2284 2988 
L 1356 2988 
L 1356 331 
L 2094 331 
L 2094 0 
L 231 0 
L 231 331 
L 781 331 
L 781 2988 
L 231 2988 
L 231 3322 
L 781 3322 
L 781 3738 
Q 781 4294 1070 4578 
Q 1359 4863 1919 4863 
Q 2128 4863 2337 4825 
Q 2547 4788 2753 4709 
L 2753 4078 
z
" transform="scale(0.015625)"/>
       <path id="DejaVuSerif-74" d="M 691 2988 
L 184 2988 
L 184 3322 
L 691 3322 
L 691 4353 
L 1269 4353 
L 1269 3322 
L 2350 3322 
L 2350 2988 
L 1269 2988 
L 1269 878 
Q 1269 456 1350 337 
Q 1431 219 1650 219 
Q 1875 219 1978 351 
Q 2081 484 2088 781 
L 2522 781 
Q 2497 328 2275 118 
Q 2053 -91 1600 -91 
Q 1103 -91 897 129 
Q 691 350 691 878 
L 691 2988 
z
" transform="scale(0.015625)"/>
       <path id="DejaVuSerif-61" d="M 2547 1044 
L 2547 1747 
L 1806 1747 
Q 1378 1747 1168 1562 
Q 959 1378 959 997 
Q 959 650 1171 447 
Q 1384 244 1747 244 
Q 2106 244 2326 466 
Q 2547 688 2547 1044 
z
M 3122 2075 
L 3122 331 
L 3634 331 
L 3634 0 
L 2547 0 
L 2547 359 
Q 2356 128 2106 18 
Q 1856 -91 1522 -91 
Q 969 -91 644 203 
Q 319 497 319 997 
Q 319 1513 691 1797 
Q 1063 2081 1741 2081 
L 2547 2081 
L 2547 2309 
Q 2547 2688 2317 2895 
Q 2088 3103 1672 3103 
Q 1328 3103 1125 2947 
Q 922 2791 872 2484 
L 575 2484 
L 575 3156 
Q 875 3284 1158 3348 
Q 1441 3413 1709 3413 
Q 2400 3413 2761 3070 
Q 3122 2728 3122 2075 
z
" transform="scale(0.015625)"/>
       <path id="DejaVuSerif-67" d="M 3359 2988 
L 3359 72 
Q 3359 -644 2965 -1033 
Q 2572 -1422 1844 -1422 
Q 1516 -1422 1216 -1362 
Q 916 -1303 641 -1184 
L 641 -488 
L 941 -488 
Q 997 -813 1206 -963 
Q 1416 -1113 1806 -1113 
Q 2313 -1113 2548 -827 
Q 2784 -541 2784 72 
L 2784 519 
Q 2616 206 2355 57 
Q 2094 -91 1709 -91 
Q 1097 -91 708 395 
Q 319 881 319 1663 
Q 319 2444 706 2928 
Q 1094 3413 1709 3413 
Q 2094 3413 2355 3264 
Q 2616 3116 2784 2803 
L 2784 3322 
L 3909 3322 
L 3909 2988 
L 3359 2988 
z
M 2784 1825 
Q 2784 2422 2554 2737 
Q 2325 3053 1888 3053 
Q 1444 3053 1217 2703 
Q 991 2353 991 1663 
Q 991 975 1217 622 
Q 1444 269 1888 269 
Q 2325 269 2554 583 
Q 2784 897 2784 1497 
L 2784 1825 
z
" transform="scale(0.015625)"/>
       <path id="DejaVuSerif-73" d="M 359 184 
L 359 959 
L 691 959 
Q 703 588 923 403 
Q 1144 219 1575 219 
Q 1963 219 2166 364 
Q 2369 509 2369 788 
Q 2369 1006 2220 1140 
Q 2072 1275 1594 1428 
L 1178 1569 
Q 750 1706 558 1912 
Q 366 2119 366 2438 
Q 366 2894 700 3153 
Q 1034 3413 1625 3413 
Q 1888 3413 2178 3344 
Q 2469 3275 2778 3144 
L 2778 2419 
L 2447 2419 
Q 2434 2741 2221 2922 
Q 2009 3103 1644 3103 
Q 1281 3103 1095 2975 
Q 909 2847 909 2591 
Q 909 2381 1050 2254 
Q 1191 2128 1613 1997 
L 2069 1856 
Q 2541 1709 2748 1489 
Q 2956 1269 2956 922 
Q 2956 450 2595 179 
Q 2234 -91 1600 -91 
Q 1278 -91 972 -22 
Q 666 47 359 184 
z
" transform="scale(0.015625)"/>
       <path id="DejaVuSerif-71" d="M 3359 2988 
L 3359 -997 
L 3909 -997 
L 3909 -1331 
L 2241 -1331 
L 2241 -997 
L 2784 -997 
L 2784 519 
Q 2616 206 2355 57 
Q 2094 -91 1709 -91 
Q 1097 -91 708 395 
Q 319 881 319 1663 
Q 319 2444 706 2928 
Q 1094 3413 1709 3413 
Q 2094 3413 2355 3264 
Q 2616 3116 2784 2803 
L 2784 3322 
L 3909 3322 
L 3909 2988 
L 3359 2988 
z
M 2784 1825 
Q 2784 2422 2554 2737 
Q 2325 3053 1888 3053 
Q 1444 3053 1217 2703 
Q 991 2353 991 1663 
Q 991 975 1217 622 
Q 1444 269 1888 269 
Q 2325 269 2554 583 
Q 2784 897 2784 1497 
L 2784 1825 
z
" transform="scale(0.015625)"/>
       <path id="DejaVuSerif-6e" d="M 263 0 
L 263 331 
L 781 331 
L 781 2988 
L 231 2988 
L 231 3322 
L 1356 3322 
L 1356 2731 
Q 1516 3069 1770 3241 
Q 2025 3413 2363 3413 
Q 2913 3413 3172 3097 
Q 3431 2781 3431 2113 
L 3431 331 
L 3944 331 
L 3944 0 
L 2356 0 
L 2356 331 
L 2853 331 
L 2853 1931 
Q 2853 2541 2703 2767 
Q 2553 2994 2175 2994 
Q 1775 2994 1565 2701 
Q 1356 2409 1356 1850 
L 1356 331 
L 1856 331 
L 1856 0 
L 263 0 
z
" transform="scale(0.015625)"/>
       <path id="DejaVuSerif-63" d="M 3291 997 
Q 3169 466 2822 187 
Q 2475 -91 1925 -91 
Q 1200 -91 759 389 
Q 319 869 319 1663 
Q 319 2459 759 2936 
Q 1200 3413 1925 3413 
Q 2241 3413 2553 3339 
Q 2866 3266 3181 3116 
L 3181 2266 
L 2847 2266 
Q 2781 2703 2561 2903 
Q 2341 3103 1931 3103 
Q 1466 3103 1228 2742 
Q 991 2381 991 1663 
Q 991 944 1227 581 
Q 1463 219 1931 219 
Q 2303 219 2525 412 
Q 2747 606 2828 997 
L 3291 997 
z
" transform="scale(0.015625)"/>
      </defs>
      <use xlink:href="#DejaVuSerif-4e"/>
      <use xlink:href="#DejaVuSerif-75" x="87.5"/>
      <use xlink:href="#DejaVuSerif-6d" x="151.904297"/>
      <use xlink:href="#DejaVuSerif-62" x="246.728516"/>
      <use xlink:href="#DejaVuSerif-65" x="310.742188"/>
      <use xlink:href="#DejaVuSerif-72" x="369.921875"/>
      <use xlink:href="#DejaVuSerif-20" x="417.724609"/>
      <use xlink:href="#DejaVuSerif-6f" x="449.511719"/>
      <use xlink:href="#DejaVuSerif-66" x="509.716797"/>
      <use xlink:href="#DejaVuSerif-20" x="546.728516"/>
      <use xlink:href="#DejaVuSerif-74" x="578.515625"/>
      <use xlink:href="#DejaVuSerif-61" x="618.701172"/>
      <use xlink:href="#DejaVuSerif-72" x="678.320312"/>
      <use xlink:href="#DejaVuSerif-67" x="726.123047"/>
      <use xlink:href="#DejaVuSerif-65" x="790.136719"/>
      <use xlink:href="#DejaVuSerif-74" x="849.316406"/>
      <use xlink:href="#DejaVuSerif-20" x="889.501953"/>
      <use xlink:href="#DejaVuSerif-73" x="921.289062"/>
      <use xlink:href="#DejaVuSerif-65" x="972.607422"/>
      <use xlink:href="#DejaVuSerif-71" x="1031.787109"/>
      <use xlink:href="#DejaVuSerif-75" x="1095.800781"/>
      <use xlink:href="#DejaVuSerif-65" x="1160.205078"/>
      <use xlink:href="#DejaVuSerif-6e" x="1219.384766"/>
      <use xlink:href="#DejaVuSerif-63" x="1283.789062"/>
      <use xlink:href="#DejaVuSerif-65" x="1339.794922"/>
      <use xlink:href="#DejaVuSerif-73" x="1398.974609"/>
     </g>
    </g>
   </g>
   <g id="matplotlib.axis_2">
    <g id="ytick_1">
     <g id="line2d_5">
      <path d="M 66.870938 250.137187 
L 616.958437 250.137187 
" clip-path="url(#p71a19b717b)" style="fill: none; stroke: #808080; stroke-opacity: 0.5; stroke-width: 0.5; stroke-linecap: round"/>
     </g>
     <g id="line2d_6">
      <defs>
       <path id="mcf9632cf2a" d="M 0 0 
L -3 0 
" style="stroke: #262626; stroke-width: 0.8"/>
      </defs>
      <g>
       <use xlink:href="#mcf9632cf2a" x="66.870938" y="250.137187" style="fill: #262626; stroke: #262626; stroke-width: 0.8"/>
      </g>
     </g>
     <g id="text_6">
      <!-- 0 -->
      <g style="fill: #262626" transform="translate(49.872813 256.405898) scale(0.165 -0.165)">
       <use xlink:href="#DejaVuSerif-30"/>
      </g>
     </g>
    </g>
    <g id="ytick_2">
     <g id="line2d_7">
      <path d="M 66.870938 192.521704 
L 616.958437 192.521704 
" clip-path="url(#p71a19b717b)" style="fill: none; stroke: #808080; stroke-opacity: 0.5; stroke-width: 0.5; stroke-linecap: round"/>
     </g>
     <g id="line2d_8">
      <g>
       <use xlink:href="#mcf9632cf2a" x="66.870938" y="192.521704" style="fill: #262626; stroke: #262626; stroke-width: 0.8"/>
      </g>
     </g>
     <g id="text_7">
      <!-- 200 -->
      <g style="fill: #262626" transform="translate(28.876563 198.790415) scale(0.165 -0.165)">
       <use xlink:href="#DejaVuSerif-32"/>
       <use xlink:href="#DejaVuSerif-30" x="63.623047"/>
       <use xlink:href="#DejaVuSerif-30" x="127.246094"/>
      </g>
     </g>
    </g>
    <g id="ytick_3">
     <g id="line2d_9">
      <path d="M 66.870938 134.90622 
L 616.958437 134.90622 
" clip-path="url(#p71a19b717b)" style="fill: none; stroke: #808080; stroke-opacity: 0.5; stroke-width: 0.5; stroke-linecap: round"/>
     </g>
     <g id="line2d_10">
      <g>
       <use xlink:href="#mcf9632cf2a" x="66.870938" y="134.90622" style="fill: #262626; stroke: #262626; stroke-width: 0.8"/>
      </g>
     </g>
     <g id="text_8">
      <!-- 400 -->
      <g style="fill: #262626" transform="translate(28.876563 141.174931) scale(0.165 -0.165)">
       <defs>
        <path id="DejaVuSerif-34" d="M 2234 1581 
L 2234 4063 
L 641 1581 
L 2234 1581 
z
M 3609 0 
L 1484 0 
L 1484 331 
L 2234 331 
L 2234 1247 
L 197 1247 
L 197 1588 
L 2241 4750 
L 2859 4750 
L 2859 1581 
L 3750 1581 
L 3750 1247 
L 2859 1247 
L 2859 331 
L 3609 331 
L 3609 0 
z
" transform="scale(0.015625)"/>
       </defs>
       <use xlink:href="#DejaVuSerif-34"/>
       <use xlink:href="#DejaVuSerif-30" x="63.623047"/>
       <use xlink:href="#DejaVuSerif-30" x="127.246094"/>
      </g>
     </g>
    </g>
    <g id="ytick_4">
     <g id="line2d_11">
      <path d="M 66.870938 77.290736 
L 616.958437 77.290736 
" clip-path="url(#p71a19b717b)" style="fill: none; stroke: #808080; stroke-opacity: 0.5; stroke-width: 0.5; stroke-linecap: round"/>
     </g>
     <g id="line2d_12">
      <g>
       <use xlink:href="#mcf9632cf2a" x="66.870938" y="77.290736" style="fill: #262626; stroke: #262626; stroke-width: 0.8"/>
      </g>
     </g>
     <g id="text_9">
      <!-- 600 -->
      <g style="fill: #262626" transform="translate(28.876563 83.559447) scale(0.165 -0.165)">
       <defs>
        <path id="DejaVuSerif-36" d="M 2094 219 
Q 2534 219 2771 542 
Q 3009 866 3009 1472 
Q 3009 2078 2771 2401 
Q 2534 2725 2094 2725 
Q 1647 2725 1412 2412 
Q 1178 2100 1178 1509 
Q 1178 888 1415 553 
Q 1653 219 2094 219 
z
M 1075 2569 
Q 1288 2803 1556 2918 
Q 1825 3034 2163 3034 
Q 2859 3034 3264 2615 
Q 3669 2197 3669 1472 
Q 3669 763 3233 336 
Q 2797 -91 2069 -91 
Q 1278 -91 853 498 
Q 428 1088 428 2181 
Q 428 3406 931 4078 
Q 1434 4750 2350 4750 
Q 2597 4750 2869 4703 
Q 3141 4656 3425 4563 
L 3425 3794 
L 3072 3794 
Q 3034 4109 2831 4275 
Q 2628 4441 2284 4441 
Q 1678 4441 1381 3981 
Q 1084 3522 1075 2569 
z
" transform="scale(0.015625)"/>
       </defs>
       <use xlink:href="#DejaVuSerif-36"/>
       <use xlink:href="#DejaVuSerif-30" x="63.623047"/>
       <use xlink:href="#DejaVuSerif-30" x="127.246094"/>
      </g>
     </g>
    </g>
    <g id="text_10">
     <!-- Average execution time (s) -->
     <g style="fill: #262626" transform="translate(20.877188 260.669531) rotate(-90) scale(0.18 -0.18)">
      <defs>
       <path id="DejaVuSerif-41" d="M 1281 1691 
L 2994 1691 
L 2138 3909 
L 1281 1691 
z
M -38 0 
L -38 331 
L 372 331 
L 2034 4666 
L 2559 4666 
L 4225 331 
L 4684 331 
L 4684 0 
L 2988 0 
L 2988 331 
L 3506 331 
L 3116 1356 
L 1153 1356 
L 763 331 
L 1275 331 
L 1275 0 
L -38 0 
z
" transform="scale(0.015625)"/>
       <path id="DejaVuSerif-76" d="M 1581 0 
L 359 2988 
L -19 2988 
L -19 3322 
L 1509 3322 
L 1509 2988 
L 978 2988 
L 1913 703 
L 2847 2988 
L 2350 2988 
L 2350 3322 
L 3597 3322 
L 3597 2988 
L 3225 2988 
L 2003 0 
L 1581 0 
z
" transform="scale(0.015625)"/>
       <path id="DejaVuSerif-78" d="M 1863 2028 
L 2559 2988 
L 2113 2988 
L 2113 3322 
L 3391 3322 
L 3391 2988 
L 2950 2988 
L 2059 1759 
L 3097 331 
L 3531 331 
L 3531 0 
L 1997 0 
L 1997 331 
L 2419 331 
L 1697 1325 
L 972 331 
L 1403 331 
L 1403 0 
L 141 0 
L 141 331 
L 581 331 
L 1497 1594 
L 488 2988 
L 78 2988 
L 78 3322 
L 1563 3322 
L 1563 2988 
L 1166 2988 
L 1863 2028 
z
" transform="scale(0.015625)"/>
       <path id="DejaVuSerif-69" d="M 622 4353 
Q 622 4497 726 4603 
Q 831 4709 978 4709 
Q 1122 4709 1226 4603 
Q 1331 4497 1331 4353 
Q 1331 4206 1228 4103 
Q 1125 4000 978 4000 
Q 831 4000 726 4103 
Q 622 4206 622 4353 
z
M 1356 331 
L 1900 331 
L 1900 0 
L 231 0 
L 231 331 
L 781 331 
L 781 2988 
L 231 2988 
L 231 3322 
L 1356 3322 
L 1356 331 
z
" transform="scale(0.015625)"/>
       <path id="DejaVuSerif-28" d="M 2041 -997 
Q 1281 -656 893 83 
Q 506 822 506 1931 
Q 506 3044 893 3783 
Q 1281 4522 2041 4863 
L 2041 4556 
Q 1559 4225 1350 3623 
Q 1141 3022 1141 1931 
Q 1141 844 1350 242 
Q 1559 -359 2041 -691 
L 2041 -997 
z
" transform="scale(0.015625)"/>
       <path id="DejaVuSerif-29" d="M 453 -997 
L 453 -691 
Q 934 -359 1145 242 
Q 1356 844 1356 1931 
Q 1356 3022 1145 3623 
Q 934 4225 453 4556 
L 453 4863 
Q 1216 4522 1603 3783 
Q 1991 3044 1991 1931 
Q 1991 822 1603 83 
Q 1216 -656 453 -997 
z
" transform="scale(0.015625)"/>
      </defs>
      <use xlink:href="#DejaVuSerif-41"/>
      <use xlink:href="#DejaVuSerif-76" x="68.216797"/>
      <use xlink:href="#DejaVuSerif-65" x="124.710938"/>
      <use xlink:href="#DejaVuSerif-72" x="183.890625"/>
      <use xlink:href="#DejaVuSerif-61" x="231.693359"/>
      <use xlink:href="#DejaVuSerif-67" x="291.3125"/>
      <use xlink:href="#DejaVuSerif-65" x="355.326172"/>
      <use xlink:href="#DejaVuSerif-20" x="414.505859"/>
      <use xlink:href="#DejaVuSerif-65" x="446.292969"/>
      <use xlink:href="#DejaVuSerif-78" x="505.472656"/>
      <use xlink:href="#DejaVuSerif-65" x="561.869141"/>
      <use xlink:href="#DejaVuSerif-63" x="621.048828"/>
      <use xlink:href="#DejaVuSerif-75" x="677.054688"/>
      <use xlink:href="#DejaVuSerif-74" x="741.458984"/>
      <use xlink:href="#DejaVuSerif-69" x="781.644531"/>
      <use xlink:href="#DejaVuSerif-6f" x="813.626953"/>
      <use xlink:href="#DejaVuSerif-6e" x="873.832031"/>
      <use xlink:href="#DejaVuSerif-20" x="938.236328"/>
      <use xlink:href="#DejaVuSerif-74" x="970.023438"/>
      <use xlink:href="#DejaVuSerif-69" x="1010.208984"/>
      <use xlink:href="#DejaVuSerif-6d" x="1042.191406"/>
      <use xlink:href="#DejaVuSerif-65" x="1137.015625"/>
      <use xlink:href="#DejaVuSerif-20" x="1196.195312"/>
      <use xlink:href="#DejaVuSerif-28" x="1227.982422"/>
      <use xlink:href="#DejaVuSerif-73" x="1266.996094"/>
      <use xlink:href="#DejaVuSerif-29" x="1318.314453"/>
     </g>
    </g>
   </g>
   <g id="patch_3">
    <path d="M 80.623125 250.137187 
L 108.1275 250.137187 
L 108.1275 228.016341 
L 80.623125 228.016341 
z
" clip-path="url(#p71a19b717b)" style="fill: #7798ec; stroke: #ffffff; stroke-linejoin: miter"/>
   </g>
   <g id="patch_4">
    <path d="M 218.145 250.137187 
L 245.649375 250.137187 
L 245.649375 212.10564 
L 218.145 212.10564 
z
" clip-path="url(#p71a19b717b)" style="fill: #7798ec; stroke: #ffffff; stroke-linejoin: miter"/>
   </g>
   <g id="patch_5">
    <path d="M 355.666875 250.137187 
L 383.17125 250.137187 
L 383.17125 149.608161 
L 355.666875 149.608161 
z
" clip-path="url(#p71a19b717b)" style="fill: #7798ec; stroke: #ffffff; stroke-linejoin: miter"/>
   </g>
   <g id="patch_6">
    <path d="M 493.18875 250.137187 
L 520.693125 250.137187 
L 520.693125 45.421855 
L 493.18875 45.421855 
z
" clip-path="url(#p71a19b717b)" style="fill: #7798ec; stroke: #ffffff; stroke-linejoin: miter"/>
   </g>
   <g id="patch_7">
    <path d="M 108.1275 250.137187 
L 135.631875 250.137187 
L 135.631875 237.065854 
L 108.1275 237.065854 
z
" clip-path="url(#p71a19b717b)" style="fill: #8470de; stroke: #ffffff; stroke-linejoin: miter"/>
   </g>
   <g id="patch_8">
    <path d="M 245.649375 250.137187 
L 273.15375 250.137187 
L 273.15375 224.570497 
L 245.649375 224.570497 
z
" clip-path="url(#p71a19b717b)" style="fill: #8470de; stroke: #ffffff; stroke-linejoin: miter"/>
   </g>
   <g id="patch_9">
    <path d="M 383.17125 250.137187 
L 410.675625 250.137187 
L 410.675625 195.398786 
L 383.17125 195.398786 
z
" clip-path="url(#p71a19b717b)" style="fill: #8470de; stroke: #ffffff; stroke-linejoin: miter"/>
   </g>
   <g id="patch_10">
    <path d="M 520.693125 250.137187 
L 548.1975 250.137187 
L 548.1975 145.384456 
L 520.693125 145.384456 
z
" clip-path="url(#p71a19b717b)" style="fill: #8470de; stroke: #ffffff; stroke-linejoin: miter"/>
   </g>
   <g id="patch_11">
    <path d="M 135.631875 250.137187 
L 163.13625 250.137187 
L 163.13625 240.822383 
L 135.631875 240.822383 
z
" clip-path="url(#p71a19b717b)" style="fill: #c53d7f; stroke: #ffffff; stroke-linejoin: miter"/>
   </g>
   <g id="patch_12">
    <path d="M 273.15375 250.137187 
L 300.658125 250.137187 
L 300.658125 232.58821 
L 273.15375 232.58821 
z
" clip-path="url(#p71a19b717b)" style="fill: #c53d7f; stroke: #ffffff; stroke-linejoin: miter"/>
   </g>
   <g id="patch_13">
    <path d="M 410.675625 250.137187 
L 438.18 250.137187 
L 438.18 212.438052 
L 410.675625 212.438052 
z
" clip-path="url(#p71a19b717b)" style="fill: #c53d7f; stroke: #ffffff; stroke-linejoin: miter"/>
   </g>
   <g id="patch_14">
    <path d="M 548.1975 250.137187 
L 575.701875 250.137187 
L 575.701875 176.838039 
L 548.1975 176.838039 
z
" clip-path="url(#p71a19b717b)" style="fill: #c53d7f; stroke: #ffffff; stroke-linejoin: miter"/>
   </g>
   <g id="patch_15">
    <path d="M 163.13625 250.137187 
L 190.640625 250.137187 
L 190.640625 237.730703 
L 163.13625 237.730703 
z
" clip-path="url(#p71a19b717b)" style="fill: #de6920; stroke: #ffffff; stroke-linejoin: miter"/>
   </g>
   <g id="patch_16">
    <path d="M 300.658125 250.137187 
L 328.1625 250.137187 
L 328.1625 237.052254 
L 300.658125 237.052254 
z
" clip-path="url(#p71a19b717b)" style="fill: #de6920; stroke: #ffffff; stroke-linejoin: miter"/>
   </g>
   <g id="patch_17">
    <path d="M 438.18 250.137187 
L 465.684375 250.137187 
L 465.684375 223.116947 
L 438.18 223.116947 
z
" clip-path="url(#p71a19b717b)" style="fill: #de6920; stroke: #ffffff; stroke-linejoin: miter"/>
   </g>
   <g id="patch_18">
    <path d="M 575.701875 250.137187 
L 603.20625 250.137187 
L 603.20625 202.447534 
L 575.701875 202.447534 
z
" clip-path="url(#p71a19b717b)" style="fill: #de6920; stroke: #ffffff; stroke-linejoin: miter"/>
   </g>
   <g id="patch_19">
    <path d="M 135.631875 250.137187 
L 135.631875 250.137187 
L 135.631875 250.137187 
L 135.631875 250.137187 
z
" clip-path="url(#p71a19b717b)" style="fill: #7798ec; stroke: #ffffff; stroke-linejoin: miter"/>
   </g>
   <g id="patch_20">
    <path d="M 135.631875 250.137187 
L 135.631875 250.137187 
L 135.631875 250.137187 
L 135.631875 250.137187 
z
" clip-path="url(#p71a19b717b)" style="fill: #8470de; stroke: #ffffff; stroke-linejoin: miter"/>
   </g>
   <g id="patch_21">
    <path d="M 135.631875 250.137187 
L 135.631875 250.137187 
L 135.631875 250.137187 
L 135.631875 250.137187 
z
" clip-path="url(#p71a19b717b)" style="fill: #c53d7f; stroke: #ffffff; stroke-linejoin: miter"/>
   </g>
   <g id="patch_22">
    <path d="M 135.631875 250.137187 
L 135.631875 250.137187 
L 135.631875 250.137187 
L 135.631875 250.137187 
z
" clip-path="url(#p71a19b717b)" style="fill: #de6920; stroke: #ffffff; stroke-linejoin: miter"/>
   </g>
   <g id="patch_23">
    <path d="M 66.870938 250.137187 
L 66.870938 26.877187 
" style="fill: none; stroke: #262626; stroke-width: 0.8; stroke-linejoin: miter; stroke-linecap: square"/>
   </g>
   <g id="patch_24">
    <path d="M 616.958437 250.137187 
L 616.958437 26.877187 
" style="fill: none; stroke: #262626; stroke-width: 0.8; stroke-linejoin: miter; stroke-linecap: square"/>
   </g>
   <g id="patch_25">
    <path d="M 66.870938 250.137187 
L 616.958437 250.137187 
" style="fill: none; stroke: #262626; stroke-width: 0.8; stroke-linejoin: miter; stroke-linecap: square"/>
   </g>
   <g id="patch_26">
    <path d="M 66.870938 26.877187 
L 616.958437 26.877187 
" style="fill: none; stroke: #262626; stroke-width: 0.8; stroke-linejoin: miter; stroke-linecap: square"/>
   </g>
   <g id="text_11">
    <g id="patch_27">
     <path d="M 86.855833 226.573542 
L 104.950833 226.573542 
L 104.950833 212.744167 
L 86.855833 212.744167 
z
" style="fill: #ffffff"/>
    </g>
    <!-- 77 -->
    <g transform="translate(86.995833 223.52198) scale(0.14 -0.14)">
     <defs>
      <path id="DejaVuSerif-37" d="M 3609 4347 
L 1784 0 
L 1319 0 
L 3059 4153 
L 903 4153 
L 903 3578 
L 538 3578 
L 538 4666 
L 3609 4666 
L 3609 4347 
z
" transform="scale(0.015625)"/>
     </defs>
     <use xlink:href="#DejaVuSerif-37"/>
     <use xlink:href="#DejaVuSerif-37" x="63.623047"/>
    </g>
   </g>
   <g id="text_12">
    <g id="patch_28">
     <path d="M 219.923958 210.662841 
L 246.926458 210.662841 
L 246.926458 196.833466 
L 219.923958 196.833466 
z
" style="fill: #ffffff"/>
    </g>
    <!-- 132 -->
    <g transform="translate(220.063958 207.611278) scale(0.14 -0.14)">
     <defs>
      <path id="DejaVuSerif-33" d="M 622 4469 
Q 988 4606 1323 4678 
Q 1659 4750 1953 4750 
Q 2638 4750 3022 4454 
Q 3406 4159 3406 3634 
Q 3406 3213 3140 2930 
Q 2875 2647 2388 2547 
Q 2963 2466 3280 2130 
Q 3597 1794 3597 1259 
Q 3597 606 3158 257 
Q 2719 -91 1894 -91 
Q 1528 -91 1179 -12 
Q 831 66 488 225 
L 488 1131 
L 838 1131 
Q 869 681 1141 450 
Q 1413 219 1906 219 
Q 2384 219 2661 495 
Q 2938 772 2938 1253 
Q 2938 1803 2653 2086 
Q 2369 2369 1819 2369 
L 1522 2369 
L 1522 2688 
L 1678 2688 
Q 2225 2688 2498 2914 
Q 2772 3141 2772 3597 
Q 2772 4006 2547 4223 
Q 2322 4441 1900 4441 
Q 1478 4441 1245 4241 
Q 1013 4041 972 3647 
L 622 3647 
L 622 4469 
z
" transform="scale(0.015625)"/>
     </defs>
     <use xlink:href="#DejaVuSerif-31"/>
     <use xlink:href="#DejaVuSerif-33" x="63.623047"/>
     <use xlink:href="#DejaVuSerif-32" x="127.246094"/>
    </g>
   </g>
   <g id="text_13">
    <g id="patch_29">
     <path d="M 357.445833 148.165361 
L 384.448333 148.165361 
L 384.448333 134.335986 
L 357.445833 134.335986 
z
" style="fill: #ffffff"/>
    </g>
    <!-- 349 -->
    <g transform="translate(357.585833 145.113799) scale(0.14 -0.14)">
     <defs>
      <path id="DejaVuSerif-39" d="M 2994 2091 
Q 2784 1856 2512 1740 
Q 2241 1625 1900 1625 
Q 1206 1625 804 2044 
Q 403 2463 403 3188 
Q 403 3897 839 4323 
Q 1275 4750 2003 4750 
Q 2794 4750 3217 4161 
Q 3641 3572 3641 2478 
Q 3641 1253 3137 581 
Q 2634 -91 1722 -91 
Q 1475 -91 1203 -44 
Q 931 3 647 97 
L 647 872 
L 997 872 
Q 1038 556 1241 387 
Q 1444 219 1784 219 
Q 2391 219 2687 676 
Q 2984 1134 2994 2091 
z
M 1978 4441 
Q 1534 4441 1298 4117 
Q 1063 3794 1063 3188 
Q 1063 2581 1298 2256 
Q 1534 1931 1978 1931 
Q 2422 1931 2658 2245 
Q 2894 2559 2894 3150 
Q 2894 3772 2656 4106 
Q 2419 4441 1978 4441 
z
" transform="scale(0.015625)"/>
     </defs>
     <use xlink:href="#DejaVuSerif-33"/>
     <use xlink:href="#DejaVuSerif-34" x="63.623047"/>
     <use xlink:href="#DejaVuSerif-39" x="127.246094"/>
    </g>
   </g>
   <g id="text_14">
    <g id="patch_30">
     <path d="M 494.967708 43.979055 
L 521.970208 43.979055 
L 521.970208 30.14968 
L 494.967708 30.14968 
z
" style="fill: #ffffff"/>
    </g>
    <!-- 711 -->
    <g transform="translate(495.107708 40.927493) scale(0.14 -0.14)">
     <use xlink:href="#DejaVuSerif-37"/>
     <use xlink:href="#DejaVuSerif-31" x="63.623047"/>
     <use xlink:href="#DejaVuSerif-31" x="127.246094"/>
    </g>
   </g>
   <g id="text_15">
    <g id="patch_31">
     <path d="M 114.360208 235.623055 
L 132.455208 235.623055 
L 132.455208 221.79368 
L 114.360208 221.79368 
z
" style="fill: #ffffff"/>
    </g>
    <!-- 45 -->
    <g transform="translate(114.500208 232.571492) scale(0.14 -0.14)">
     <use xlink:href="#DejaVuSerif-34"/>
     <use xlink:href="#DejaVuSerif-35" x="63.623047"/>
    </g>
   </g>
   <g id="text_16">
    <g id="patch_32">
     <path d="M 251.882083 223.127698 
L 269.977083 223.127698 
L 269.977083 209.298323 
L 251.882083 209.298323 
z
" style="fill: #ffffff"/>
    </g>
    <!-- 89 -->
    <g transform="translate(252.022083 220.076135) scale(0.14 -0.14)">
     <defs>
      <path id="DejaVuSerif-38" d="M 2981 1275 
Q 2981 1775 2732 2051 
Q 2484 2328 2034 2328 
Q 1584 2328 1336 2051 
Q 1088 1775 1088 1275 
Q 1088 772 1336 495 
Q 1584 219 2034 219 
Q 2484 219 2732 495 
Q 2981 772 2981 1275 
z
M 2853 3541 
Q 2853 3966 2637 4203 
Q 2422 4441 2034 4441 
Q 1650 4441 1433 4203 
Q 1216 3966 1216 3541 
Q 1216 3113 1433 2875 
Q 1650 2638 2034 2638 
Q 2422 2638 2637 2875 
Q 2853 3113 2853 3541 
z
M 2516 2484 
Q 3047 2413 3344 2092 
Q 3641 1772 3641 1275 
Q 3641 619 3225 264 
Q 2809 -91 2034 -91 
Q 1263 -91 845 264 
Q 428 619 428 1275 
Q 428 1772 725 2092 
Q 1022 2413 1556 2484 
Q 1084 2569 832 2842 
Q 581 3116 581 3541 
Q 581 4103 968 4426 
Q 1356 4750 2034 4750 
Q 2713 4750 3100 4426 
Q 3488 4103 3488 3541 
Q 3488 3116 3236 2842 
Q 2984 2569 2516 2484 
z
" transform="scale(0.015625)"/>
     </defs>
     <use xlink:href="#DejaVuSerif-38"/>
     <use xlink:href="#DejaVuSerif-39" x="63.623047"/>
    </g>
   </g>
   <g id="text_17">
    <g id="patch_33">
     <path d="M 384.950208 193.955987 
L 411.952708 193.955987 
L 411.952708 180.126612 
L 384.950208 180.126612 
z
" style="fill: #ffffff"/>
    </g>
    <!-- 190 -->
    <g transform="translate(385.090208 190.904425) scale(0.14 -0.14)">
     <use xlink:href="#DejaVuSerif-31"/>
     <use xlink:href="#DejaVuSerif-39" x="63.623047"/>
     <use xlink:href="#DejaVuSerif-30" x="127.246094"/>
    </g>
   </g>
   <g id="text_18">
    <g id="patch_34">
     <path d="M 522.472083 143.941657 
L 549.474583 143.941657 
L 549.474583 130.112282 
L 522.472083 130.112282 
z
" style="fill: #ffffff"/>
    </g>
    <!-- 364 -->
    <g transform="translate(522.612083 140.890094) scale(0.14 -0.14)">
     <use xlink:href="#DejaVuSerif-33"/>
     <use xlink:href="#DejaVuSerif-36" x="63.623047"/>
     <use xlink:href="#DejaVuSerif-34" x="127.246094"/>
    </g>
   </g>
   <g id="text_19">
    <g id="patch_35">
     <path d="M 141.864583 239.379583 
L 159.959583 239.379583 
L 159.959583 225.550208 
L 141.864583 225.550208 
z
" style="fill: #ffffff"/>
    </g>
    <!-- 32 -->
    <g transform="translate(142.004583 236.328021) scale(0.14 -0.14)">
     <use xlink:href="#DejaVuSerif-33"/>
     <use xlink:href="#DejaVuSerif-32" x="63.623047"/>
    </g>
   </g>
   <g id="text_20">
    <g id="patch_36">
     <path d="M 279.386458 231.145411 
L 297.481458 231.145411 
L 297.481458 217.316036 
L 279.386458 217.316036 
z
" style="fill: #ffffff"/>
    </g>
    <!-- 61 -->
    <g transform="translate(279.526458 228.093848) scale(0.14 -0.14)">
     <use xlink:href="#DejaVuSerif-36"/>
     <use xlink:href="#DejaVuSerif-31" x="63.623047"/>
    </g>
   </g>
   <g id="text_21">
    <g id="patch_37">
     <path d="M 412.454583 210.995253 
L 439.457083 210.995253 
L 439.457083 197.165878 
L 412.454583 197.165878 
z
" style="fill: #ffffff"/>
    </g>
    <!-- 131 -->
    <g transform="translate(412.594583 207.94369) scale(0.14 -0.14)">
     <use xlink:href="#DejaVuSerif-31"/>
     <use xlink:href="#DejaVuSerif-33" x="63.623047"/>
     <use xlink:href="#DejaVuSerif-31" x="127.246094"/>
    </g>
   </g>
   <g id="text_22">
    <g id="patch_38">
     <path d="M 549.976458 175.39524 
L 576.978958 175.39524 
L 576.978958 161.565865 
L 549.976458 161.565865 
z
" style="fill: #ffffff"/>
    </g>
    <!-- 254 -->
    <g transform="translate(550.116458 172.343678) scale(0.14 -0.14)">
     <use xlink:href="#DejaVuSerif-32"/>
     <use xlink:href="#DejaVuSerif-35" x="63.623047"/>
     <use xlink:href="#DejaVuSerif-34" x="127.246094"/>
    </g>
   </g>
   <g id="text_23">
    <g id="patch_39">
     <path d="M 169.368958 236.287903 
L 187.463958 236.287903 
L 187.463958 222.458528 
L 169.368958 222.458528 
z
" style="fill: #ffffff"/>
    </g>
    <!-- 43 -->
    <g transform="translate(169.508958 233.236341) scale(0.14 -0.14)">
     <use xlink:href="#DejaVuSerif-34"/>
     <use xlink:href="#DejaVuSerif-33" x="63.623047"/>
    </g>
   </g>
   <g id="text_24">
    <g id="patch_40">
     <path d="M 306.890833 235.609455 
L 324.985833 235.609455 
L 324.985833 221.78008 
L 306.890833 221.78008 
z
" style="fill: #ffffff"/>
    </g>
    <!-- 45 -->
    <g transform="translate(307.030833 232.557893) scale(0.14 -0.14)">
     <use xlink:href="#DejaVuSerif-34"/>
     <use xlink:href="#DejaVuSerif-35" x="63.623047"/>
    </g>
   </g>
   <g id="text_25">
    <g id="patch_41">
     <path d="M 444.412708 221.674148 
L 462.507708 221.674148 
L 462.507708 207.844773 
L 444.412708 207.844773 
z
" style="fill: #ffffff"/>
    </g>
    <!-- 94 -->
    <g transform="translate(444.552708 218.622586) scale(0.14 -0.14)">
     <use xlink:href="#DejaVuSerif-39"/>
     <use xlink:href="#DejaVuSerif-34" x="63.623047"/>
    </g>
   </g>
   <g id="text_26">
    <g id="patch_42">
     <path d="M 577.480833 201.004735 
L 604.483333 201.004735 
L 604.483333 187.17536 
L 577.480833 187.17536 
z
" style="fill: #ffffff"/>
    </g>
    <!-- 166 -->
    <g transform="translate(577.620833 197.953172) scale(0.14 -0.14)">
     <use xlink:href="#DejaVuSerif-31"/>
     <use xlink:href="#DejaVuSerif-36" x="63.623047"/>
     <use xlink:href="#DejaVuSerif-36" x="127.246094"/>
    </g>
   </g>
   <g id="text_27">
    <!-- GCsnap1 Desktop, end-to-end execution time -->
    <g style="fill: #262626" transform="translate(135.336563 20.877187) scale(0.18 -0.18)">
     <defs>
      <path id="DejaVuSerif-47" d="M 4097 3272 
Q 3988 3856 3641 4136 
Q 3294 4416 2675 4416 
Q 1869 4416 1472 3897 
Q 1075 3378 1075 2328 
Q 1075 1300 1484 772 
Q 1894 244 2688 244 
Q 3041 244 3362 331 
Q 3684 419 3975 594 
L 3975 1797 
L 3097 1797 
L 3097 2131 
L 4609 2131 
L 4609 391 
Q 4194 150 3714 29 
Q 3234 -91 2688 -91 
Q 1631 -91 995 570 
Q 359 1231 359 2328 
Q 359 3434 996 4092 
Q 1634 4750 2713 4750 
Q 3113 4750 3539 4658 
Q 3966 4566 4447 4378 
L 4447 3272 
L 4097 3272 
z
" transform="scale(0.015625)"/>
      <path id="DejaVuSerif-43" d="M 4513 1234 
Q 4306 581 3820 245 
Q 3334 -91 2591 -91 
Q 2134 -91 1743 65 
Q 1353 222 1050 525 
Q 700 875 529 1320 
Q 359 1766 359 2328 
Q 359 3416 987 4083 
Q 1616 4750 2644 4750 
Q 3025 4750 3456 4650 
Q 3888 4550 4384 4347 
L 4384 3272 
L 4031 3272 
Q 3916 3859 3567 4137 
Q 3219 4416 2591 4416 
Q 1844 4416 1459 3886 
Q 1075 3356 1075 2328 
Q 1075 1303 1459 773 
Q 1844 244 2591 244 
Q 3113 244 3450 492 
Q 3788 741 3938 1234 
L 4513 1234 
z
" transform="scale(0.015625)"/>
      <path id="DejaVuSerif-70" d="M 1313 1825 
L 1313 1497 
Q 1313 897 1542 583 
Q 1772 269 2209 269 
Q 2650 269 2876 622 
Q 3103 975 3103 1663 
Q 3103 2353 2876 2703 
Q 2650 3053 2209 3053 
Q 1772 3053 1542 2737 
Q 1313 2422 1313 1825 
z
M 738 2988 
L 184 2988 
L 184 3322 
L 1313 3322 
L 1313 2803 
Q 1481 3116 1742 3264 
Q 2003 3413 2388 3413 
Q 3000 3413 3387 2928 
Q 3775 2444 3775 1663 
Q 3775 881 3387 395 
Q 3000 -91 2388 -91 
Q 2003 -91 1742 57 
Q 1481 206 1313 519 
L 1313 -997 
L 1856 -997 
L 1856 -1331 
L 184 -1331 
L 184 -997 
L 738 -997 
L 738 2988 
z
" transform="scale(0.015625)"/>
      <path id="DejaVuSerif-44" d="M 1581 331 
L 2163 331 
Q 3072 331 3558 850 
Q 4044 1369 4044 2338 
Q 4044 3306 3559 3818 
Q 3075 4331 2163 4331 
L 1581 4331 
L 1581 331 
z
M 353 0 
L 353 331 
L 947 331 
L 947 4331 
L 353 4331 
L 353 4666 
L 2209 4666 
Q 3416 4666 4089 4050 
Q 4763 3434 4763 2338 
Q 4763 1238 4088 619 
Q 3413 0 2209 0 
L 353 0 
z
" transform="scale(0.015625)"/>
      <path id="DejaVuSerif-6b" d="M 1831 0 
L 219 0 
L 219 331 
L 738 331 
L 738 4531 
L 184 4531 
L 184 4863 
L 1313 4863 
L 1313 1697 
L 2713 2988 
L 2234 2988 
L 2234 3322 
L 3738 3322 
L 3738 2988 
L 3169 2988 
L 2181 2075 
L 3444 331 
L 3922 331 
L 3922 0 
L 2284 0 
L 2284 331 
L 2759 331 
L 1766 1697 
L 1313 1275 
L 1313 331 
L 1831 331 
L 1831 0 
z
" transform="scale(0.015625)"/>
      <path id="DejaVuSerif-2c" d="M 231 -622 
Q 525 -406 662 -114 
Q 800 178 800 594 
L 800 709 
L 1416 709 
Q 1391 175 1164 -208 
Q 938 -591 481 -872 
L 231 -622 
z
" transform="scale(0.015625)"/>
      <path id="DejaVuSerif-64" d="M 3359 331 
L 3909 331 
L 3909 0 
L 2784 0 
L 2784 519 
Q 2616 206 2355 57 
Q 2094 -91 1709 -91 
Q 1097 -91 708 395 
Q 319 881 319 1663 
Q 319 2444 706 2928 
Q 1094 3413 1709 3413 
Q 2094 3413 2355 3264 
Q 2616 3116 2784 2803 
L 2784 4531 
L 2241 4531 
L 2241 4863 
L 3359 4863 
L 3359 331 
z
M 2784 1497 
L 2784 1825 
Q 2784 2422 2554 2737 
Q 2325 3053 1888 3053 
Q 1444 3053 1217 2703 
Q 991 2353 991 1663 
Q 991 975 1217 622 
Q 1444 269 1888 269 
Q 2325 269 2554 583 
Q 2784 897 2784 1497 
z
" transform="scale(0.015625)"/>
      <path id="DejaVuSerif-2d" d="M 281 1959 
L 1881 1959 
L 1881 1472 
L 281 1472 
L 281 1959 
z
" transform="scale(0.015625)"/>
     </defs>
     <use xlink:href="#DejaVuSerif-47"/>
     <use xlink:href="#DejaVuSerif-43" x="79.882812"/>
     <use xlink:href="#DejaVuSerif-73" x="156.396484"/>
     <use xlink:href="#DejaVuSerif-6e" x="207.714844"/>
     <use xlink:href="#DejaVuSerif-61" x="272.119141"/>
     <use xlink:href="#DejaVuSerif-70" x="331.738281"/>
     <use xlink:href="#DejaVuSerif-31" x="395.751953"/>
     <use xlink:href="#DejaVuSerif-20" x="459.375"/>
     <use xlink:href="#DejaVuSerif-44" x="491.162109"/>
     <use xlink:href="#DejaVuSerif-65" x="571.337891"/>
     <use xlink:href="#DejaVuSerif-73" x="630.517578"/>
     <use xlink:href="#DejaVuSerif-6b" x="681.835938"/>
     <use xlink:href="#DejaVuSerif-74" x="742.431641"/>
     <use xlink:href="#DejaVuSerif-6f" x="782.617188"/>
     <use xlink:href="#DejaVuSerif-70" x="842.822266"/>
     <use xlink:href="#DejaVuSerif-2c" x="906.835938"/>
     <use xlink:href="#DejaVuSerif-20" x="938.623047"/>
     <use xlink:href="#DejaVuSerif-65" x="970.410156"/>
     <use xlink:href="#DejaVuSerif-6e" x="1029.589844"/>
     <use xlink:href="#DejaVuSerif-64" x="1093.994141"/>
     <use xlink:href="#DejaVuSerif-2d" x="1158.007812"/>
     <use xlink:href="#DejaVuSerif-74" x="1191.796875"/>
     <use xlink:href="#DejaVuSerif-6f" x="1231.982422"/>
     <use xlink:href="#DejaVuSerif-2d" x="1292.1875"/>
     <use xlink:href="#DejaVuSerif-65" x="1325.976562"/>
     <use xlink:href="#DejaVuSerif-6e" x="1385.15625"/>
     <use xlink:href="#DejaVuSerif-64" x="1449.560547"/>
     <use xlink:href="#DejaVuSerif-20" x="1513.574219"/>
     <use xlink:href="#DejaVuSerif-65" x="1545.361328"/>
     <use xlink:href="#DejaVuSerif-78" x="1604.541016"/>
     <use xlink:href="#DejaVuSerif-65" x="1660.9375"/>
     <use xlink:href="#DejaVuSerif-63" x="1720.117188"/>
     <use xlink:href="#DejaVuSerif-75" x="1776.123047"/>
     <use xlink:href="#DejaVuSerif-74" x="1840.527344"/>
     <use xlink:href="#DejaVuSerif-69" x="1880.712891"/>
     <use xlink:href="#DejaVuSerif-6f" x="1912.695312"/>
     <use xlink:href="#DejaVuSerif-6e" x="1972.900391"/>
     <use xlink:href="#DejaVuSerif-20" x="2037.304688"/>
     <use xlink:href="#DejaVuSerif-74" x="2069.091797"/>
     <use xlink:href="#DejaVuSerif-69" x="2109.277344"/>
     <use xlink:href="#DejaVuSerif-6d" x="2141.259766"/>
     <use xlink:href="#DejaVuSerif-65" x="2236.083984"/>
    </g>
   </g>
   <g id="legend_1">
    <g id="patch_43">
     <path d="M 78.420938 89.966719 
L 410.813438 89.966719 
Q 414.113438 89.966719 414.113438 86.666719 
L 414.113438 38.427187 
Q 414.113438 35.127187 410.813438 35.127187 
L 78.420938 35.127187 
Q 75.120938 35.127187 75.120938 38.427187 
L 75.120938 86.666719 
Q 75.120938 89.966719 78.420938 89.966719 
z
" style="fill: #ffffff; stroke: #cccccc; stroke-linejoin: miter"/>
    </g>
    <g id="text_28">
     <!-- Number of CPU cores -->
     <g style="fill: #262626" transform="translate(144.615938 55.404375) scale(0.18 -0.18)">
      <defs>
       <path id="DejaVuSerif-50" d="M 1581 2375 
L 2406 2375 
Q 2872 2375 3115 2626 
Q 3359 2878 3359 3353 
Q 3359 3831 3115 4081 
Q 2872 4331 2406 4331 
L 1581 4331 
L 1581 2375 
z
M 353 0 
L 353 331 
L 947 331 
L 947 4331 
L 353 4331 
L 353 4666 
L 2559 4666 
Q 3259 4666 3668 4311 
Q 4078 3956 4078 3353 
Q 4078 2753 3668 2397 
Q 3259 2041 2559 2041 
L 1581 2041 
L 1581 331 
L 2303 331 
L 2303 0 
L 353 0 
z
" transform="scale(0.015625)"/>
       <path id="DejaVuSerif-55" d="M 897 4331 
L 300 4331 
L 300 4666 
L 2125 4666 
L 2125 4331 
L 1528 4331 
L 1528 1919 
Q 1528 1025 1820 672 
Q 2113 319 2828 319 
Q 3544 319 3836 672 
Q 4128 1025 4128 1919 
L 4128 4331 
L 3531 4331 
L 3531 4666 
L 5106 4666 
L 5106 4331 
L 4513 4331 
L 4513 1856 
Q 4513 791 4103 350 
Q 3694 -91 2713 -91 
Q 1731 -91 1314 353 
Q 897 797 897 1856 
L 897 4331 
z
" transform="scale(0.015625)"/>
      </defs>
      <use xlink:href="#DejaVuSerif-4e"/>
      <use xlink:href="#DejaVuSerif-75" x="87.5"/>
      <use xlink:href="#DejaVuSerif-6d" x="151.904297"/>
      <use xlink:href="#DejaVuSerif-62" x="246.728516"/>
      <use xlink:href="#DejaVuSerif-65" x="310.742188"/>
      <use xlink:href="#DejaVuSerif-72" x="369.921875"/>
      <use xlink:href="#DejaVuSerif-20" x="417.724609"/>
      <use xlink:href="#DejaVuSerif-6f" x="449.511719"/>
      <use xlink:href="#DejaVuSerif-66" x="509.716797"/>
      <use xlink:href="#DejaVuSerif-20" x="546.728516"/>
      <use xlink:href="#DejaVuSerif-43" x="578.515625"/>
      <use xlink:href="#DejaVuSerif-50" x="655.029297"/>
      <use xlink:href="#DejaVuSerif-55" x="720.564453"/>
      <use xlink:href="#DejaVuSerif-20" x="804.841797"/>
      <use xlink:href="#DejaVuSerif-63" x="836.628906"/>
      <use xlink:href="#DejaVuSerif-6f" x="892.634766"/>
      <use xlink:href="#DejaVuSerif-72" x="952.839844"/>
      <use xlink:href="#DejaVuSerif-65" x="1000.642578"/>
      <use xlink:href="#DejaVuSerif-73" x="1059.822266"/>
     </g>
    </g>
    <g id="patch_44">
     <path d="M 81.720938 79.935234 
L 114.720938 79.935234 
L 114.720938 68.385234 
L 81.720938 68.385234 
z
" style="fill: #7798ec; stroke: #ffffff; stroke-linejoin: miter"/>
    </g>
    <g id="text_29">
     <!-- 1 -->
     <g style="fill: #262626" transform="translate(127.920938 79.935234) scale(0.165 -0.165)">
      <use xlink:href="#DejaVuSerif-31"/>
     </g>
    </g>
    <g id="patch_45">
     <path d="M 171.419062 79.935234 
L 204.419062 79.935234 
L 204.419062 68.385234 
L 171.419062 68.385234 
z
" style="fill: #8470de; stroke: #ffffff; stroke-linejoin: miter"/>
    </g>
    <g id="text_30">
     <!-- 2 -->
     <g style="fill: #262626" transform="translate(217.619062 79.935234) scale(0.165 -0.165)">
      <use xlink:href="#DejaVuSerif-32"/>
     </g>
    </g>
    <g id="patch_46">
     <path d="M 261.117188 79.935234 
L 294.117188 79.935234 
L 294.117188 68.385234 
L 261.117188 68.385234 
z
" style="fill: #c53d7f; stroke: #ffffff; stroke-linejoin: miter"/>
    </g>
    <g id="text_31">
     <!-- 4 -->
     <g style="fill: #262626" transform="translate(307.317187 79.935234) scale(0.165 -0.165)">
      <use xlink:href="#DejaVuSerif-34"/>
     </g>
    </g>
    <g id="patch_47">
     <path d="M 350.815313 79.935234 
L 383.815313 79.935234 
L 383.815313 68.385234 
L 350.815313 68.385234 
z
" style="fill: #de6920; stroke: #ffffff; stroke-linejoin: miter"/>
    </g>
    <g id="text_32">
     <!-- 8 -->
     <g style="fill: #262626" transform="translate(397.015312 79.935234) scale(0.165 -0.165)">
      <use xlink:href="#DejaVuSerif-38"/>
     </g>
    </g>
   </g>
  </g>
 </g>
 <defs>
  <clipPath id="p71a19b717b">
   <rect x="66.870938" y="26.877187" width="550.0875" height="223.26"/>
  </clipPath>
 </defs>
</svg>
