<?xml version="1.0" encoding="utf-8" standalone="no"?>
<!DOCTYPE svg PUBLIC "-//W3C//DTD SVG 1.1//EN"
  "http://www.w3.org/Graphics/SVG/1.1/DTD/svg11.dtd">
<svg xmlns:xlink="http://www.w3.org/1999/xlink" width="624.158437pt" height="301.415109pt" viewBox="0 0 624.158437 301.415109" xmlns="http://www.w3.org/2000/svg" version="1.1">
 <metadata>
  <rdf:RDF xmlns:dc="http://purl.org/dc/elements/1.1/" xmlns:cc="http://creativecommons.org/ns#" xmlns:rdf="http://www.w3.org/1999/02/22-rdf-syntax-ns#">
   <cc:Work>
    <dc:type rdf:resource="http://purl.org/dc/dcmitype/StillImage"/>
    <dc:date>2025-03-14T15:05:27.224928</dc:date>
    <dc:format>image/svg+xml</dc:format>
    <dc:creator>
     <cc:Agent>
      <dc:title>Matplotlib v3.9.2, https://matplotlib.org/</dc:title>
     </cc:Agent>
    </dc:creator>
   </cc:Work>
  </rdf:RDF>
 </metadata>
 <defs>
  <style type="text/css">*{stroke-linejoin: round; stroke-linecap: butt}</style>
 </defs>
 <g id="figure_1">
  <g id="patch_1">
   <path d="M 0 301.415109 
L 624.158437 301.415109 
L 624.158437 0 
L 0 0 
z
" style="fill: #ffffff"/>
  </g>
  <g id="axes_1">
   <g id="patch_2">
    <path d="M 66.870938 231.849187 
L 616.958437 231.849187 
L 616.958437 26.877187 
L 66.870938 26.877187 
z
" style="fill: #ffffff"/>
   </g>
   <g id="matplotlib.axis_1">
    <g id="xtick_1">
     <g id="line2d_1">
      <defs>
       <path id="m7a4d77cb0c" d="M 0 0 
L 0 3 
" style="stroke: #262626; stroke-width: 0.8"/>
      </defs>
      <g>
       <use xlink:href="#m7a4d77cb0c" x="135.631875" y="231.849187" style="fill: #262626; stroke: #262626; stroke-width: 0.8"/>
      </g>
     </g>
     <g id="text_1">
      <!-- End-to-end -->
      <g style="fill: #262626" transform="translate(89.678086 250.886609) scale(0.165 -0.165)">
       <defs>
        <path id="DejaVuSerif-45" d="M 353 0 
L 353 331 
L 947 331 
L 947 4331 
L 353 4331 
L 353 4666 
L 4109 4666 
L 4109 3628 
L 3725 3628 
L 3725 4281 
L 1581 4281 
L 1581 2719 
L 3109 2719 
L 3109 3303 
L 3494 3303 
L 3494 1753 
L 3109 1753 
L 3109 2338 
L 1581 2338 
L 1581 384 
L 3775 384 
L 3775 1038 
L 4159 1038 
L 4159 0 
L 353 0 
z
" transform="scale(0.015625)"/>
        <path id="DejaVuSerif-6e" d="M 263 0 
L 263 331 
L 781 331 
L 781 2988 
L 231 2988 
L 231 3322 
L 1356 3322 
L 1356 2731 
Q 1516 3069 1770 3241 
Q 2025 3413 2363 3413 
Q 2913 3413 3172 3097 
Q 3431 2781 3431 2113 
L 3431 331 
L 3944 331 
L 3944 0 
L 2356 0 
L 2356 331 
L 2853 331 
L 2853 1931 
Q 2853 2541 2703 2767 
Q 2553 2994 2175 2994 
Q 1775 2994 1565 2701 
Q 1356 2409 1356 1850 
L 1356 331 
L 1856 331 
L 1856 0 
L 263 0 
z
" transform="scale(0.015625)"/>
        <path id="DejaVuSerif-64" d="M 3359 331 
L 3909 331 
L 3909 0 
L 2784 0 
L 2784 519 
Q 2616 206 2355 57 
Q 2094 -91 1709 -91 
Q 1097 -91 708 395 
Q 319 881 319 1663 
Q 319 2444 706 2928 
Q 1094 3413 1709 3413 
Q 2094 3413 2355 3264 
Q 2616 3116 2784 2803 
L 2784 4531 
L 2241 4531 
L 2241 4863 
L 3359 4863 
L 3359 331 
z
M 2784 1497 
L 2784 1825 
Q 2784 2422 2554 2737 
Q 2325 3053 1888 3053 
Q 1444 3053 1217 2703 
Q 991 2353 991 1663 
Q 991 975 1217 622 
Q 1444 269 1888 269 
Q 2325 269 2554 583 
Q 2784 897 2784 1497 
z
" transform="scale(0.015625)"/>
        <path id="DejaVuSerif-2d" d="M 281 1959 
L 1881 1959 
L 1881 1472 
L 281 1472 
L 281 1959 
z
" transform="scale(0.015625)"/>
        <path id="DejaVuSerif-74" d="M 691 2988 
L 184 2988 
L 184 3322 
L 691 3322 
L 691 4353 
L 1269 4353 
L 1269 3322 
L 2350 3322 
L 2350 2988 
L 1269 2988 
L 1269 878 
Q 1269 456 1350 337 
Q 1431 219 1650 219 
Q 1875 219 1978 351 
Q 2081 484 2088 781 
L 2522 781 
Q 2497 328 2275 118 
Q 2053 -91 1600 -91 
Q 1103 -91 897 129 
Q 691 350 691 878 
L 691 2988 
z
" transform="scale(0.015625)"/>
        <path id="DejaVuSerif-6f" d="M 1925 219 
Q 2388 219 2623 584 
Q 2859 950 2859 1663 
Q 2859 2375 2623 2739 
Q 2388 3103 1925 3103 
Q 1463 3103 1227 2739 
Q 991 2375 991 1663 
Q 991 950 1228 584 
Q 1466 219 1925 219 
z
M 1925 -91 
Q 1200 -91 759 389 
Q 319 869 319 1663 
Q 319 2456 758 2934 
Q 1197 3413 1925 3413 
Q 2653 3413 3092 2934 
Q 3531 2456 3531 1663 
Q 3531 869 3092 389 
Q 2653 -91 1925 -91 
z
" transform="scale(0.015625)"/>
        <path id="DejaVuSerif-65" d="M 3469 1600 
L 991 1600 
L 991 1575 
Q 991 903 1244 561 
Q 1497 219 1991 219 
Q 2369 219 2611 417 
Q 2853 616 2950 1006 
L 3413 1006 
Q 3275 459 2904 184 
Q 2534 -91 1931 -91 
Q 1203 -91 761 389 
Q 319 869 319 1663 
Q 319 2450 753 2931 
Q 1188 3413 1894 3413 
Q 2647 3413 3050 2948 
Q 3453 2484 3469 1600 
z
M 2791 1931 
Q 2772 2513 2545 2808 
Q 2319 3103 1894 3103 
Q 1497 3103 1269 2806 
Q 1041 2509 991 1931 
L 2791 1931 
z
" transform="scale(0.015625)"/>
       </defs>
       <use xlink:href="#DejaVuSerif-45"/>
       <use xlink:href="#DejaVuSerif-6e" x="72.998047"/>
       <use xlink:href="#DejaVuSerif-64" x="137.402344"/>
       <use xlink:href="#DejaVuSerif-2d" x="201.416016"/>
       <use xlink:href="#DejaVuSerif-74" x="235.205078"/>
       <use xlink:href="#DejaVuSerif-6f" x="275.390625"/>
       <use xlink:href="#DejaVuSerif-2d" x="335.595703"/>
       <use xlink:href="#DejaVuSerif-65" x="369.384766"/>
       <use xlink:href="#DejaVuSerif-6e" x="428.564453"/>
       <use xlink:href="#DejaVuSerif-64" x="492.96875"/>
      </g>
     </g>
    </g>
    <g id="xtick_2">
     <g id="line2d_2">
      <g>
       <use xlink:href="#m7a4d77cb0c" x="273.15375" y="231.849187" style="fill: #262626; stroke: #262626; stroke-width: 0.8"/>
      </g>
     </g>
     <g id="text_2">
      <!-- Step 1: -->
      <g style="fill: #262626" transform="translate(243.372539 250.886609) scale(0.165 -0.165)">
       <defs>
        <path id="DejaVuSerif-53" d="M 594 225 
L 594 1288 
L 953 1284 
Q 969 753 1261 498 
Q 1553 244 2150 244 
Q 2706 244 2998 464 
Q 3291 684 3291 1106 
Q 3291 1444 3114 1625 
Q 2938 1806 2369 1978 
L 1753 2163 
Q 1084 2366 811 2669 
Q 538 2972 538 3500 
Q 538 4094 959 4422 
Q 1381 4750 2144 4750 
Q 2469 4750 2856 4679 
Q 3244 4609 3681 4475 
L 3681 3481 
L 3328 3481 
Q 3275 3975 2998 4195 
Q 2722 4416 2156 4416 
Q 1663 4416 1405 4214 
Q 1147 4013 1147 3628 
Q 1147 3294 1340 3103 
Q 1534 2913 2163 2725 
L 2741 2553 
Q 3375 2363 3645 2067 
Q 3916 1772 3916 1275 
Q 3916 597 3481 253 
Q 3047 -91 2188 -91 
Q 1803 -91 1404 -12 
Q 1006 66 594 225 
z
" transform="scale(0.015625)"/>
        <path id="DejaVuSerif-70" d="M 1313 1825 
L 1313 1497 
Q 1313 897 1542 583 
Q 1772 269 2209 269 
Q 2650 269 2876 622 
Q 3103 975 3103 1663 
Q 3103 2353 2876 2703 
Q 2650 3053 2209 3053 
Q 1772 3053 1542 2737 
Q 1313 2422 1313 1825 
z
M 738 2988 
L 184 2988 
L 184 3322 
L 1313 3322 
L 1313 2803 
Q 1481 3116 1742 3264 
Q 2003 3413 2388 3413 
Q 3000 3413 3387 2928 
Q 3775 2444 3775 1663 
Q 3775 881 3387 395 
Q 3000 -91 2388 -91 
Q 2003 -91 1742 57 
Q 1481 206 1313 519 
L 1313 -997 
L 1856 -997 
L 1856 -1331 
L 184 -1331 
L 184 -997 
L 738 -997 
L 738 2988 
z
" transform="scale(0.015625)"/>
        <path id="DejaVuSerif-20" transform="scale(0.015625)"/>
        <path id="DejaVuSerif-31" d="M 909 0 
L 909 331 
L 1722 331 
L 1722 4213 
L 781 3603 
L 781 4013 
L 1919 4750 
L 2350 4750 
L 2350 331 
L 3163 331 
L 3163 0 
L 909 0 
z
" transform="scale(0.015625)"/>
        <path id="DejaVuSerif-3a" d="M 666 325 
Q 666 500 786 622 
Q 906 744 1081 744 
Q 1256 744 1376 622 
Q 1497 500 1497 325 
Q 1497 150 1378 29 
Q 1259 -91 1081 -91 
Q 903 -91 784 29 
Q 666 150 666 325 
z
M 666 2363 
Q 666 2538 786 2658 
Q 906 2778 1081 2778 
Q 1259 2778 1378 2659 
Q 1497 2541 1497 2363 
Q 1497 2184 1378 2065 
Q 1259 1947 1081 1947 
Q 906 1947 786 2067 
Q 666 2188 666 2363 
z
" transform="scale(0.015625)"/>
       </defs>
       <use xlink:href="#DejaVuSerif-53"/>
       <use xlink:href="#DejaVuSerif-74" x="68.505859"/>
       <use xlink:href="#DejaVuSerif-65" x="108.691406"/>
       <use xlink:href="#DejaVuSerif-70" x="167.871094"/>
       <use xlink:href="#DejaVuSerif-20" x="231.884766"/>
       <use xlink:href="#DejaVuSerif-31" x="263.671875"/>
       <use xlink:href="#DejaVuSerif-3a" x="327.294922"/>
      </g>
      <!-- Collect -->
      <g style="fill: #262626" transform="translate(243.778594 269.363) scale(0.165 -0.165)">
       <defs>
        <path id="DejaVuSerif-43" d="M 4513 1234 
Q 4306 581 3820 245 
Q 3334 -91 2591 -91 
Q 2134 -91 1743 65 
Q 1353 222 1050 525 
Q 700 875 529 1320 
Q 359 1766 359 2328 
Q 359 3416 987 4083 
Q 1616 4750 2644 4750 
Q 3025 4750 3456 4650 
Q 3888 4550 4384 4347 
L 4384 3272 
L 4031 3272 
Q 3916 3859 3567 4137 
Q 3219 4416 2591 4416 
Q 1844 4416 1459 3886 
Q 1075 3356 1075 2328 
Q 1075 1303 1459 773 
Q 1844 244 2591 244 
Q 3113 244 3450 492 
Q 3788 741 3938 1234 
L 4513 1234 
z
" transform="scale(0.015625)"/>
        <path id="DejaVuSerif-6c" d="M 1313 331 
L 1856 331 
L 1856 0 
L 184 0 
L 184 331 
L 738 331 
L 738 4531 
L 184 4531 
L 184 4863 
L 1313 4863 
L 1313 331 
z
" transform="scale(0.015625)"/>
        <path id="DejaVuSerif-63" d="M 3291 997 
Q 3169 466 2822 187 
Q 2475 -91 1925 -91 
Q 1200 -91 759 389 
Q 319 869 319 1663 
Q 319 2459 759 2936 
Q 1200 3413 1925 3413 
Q 2241 3413 2553 3339 
Q 2866 3266 3181 3116 
L 3181 2266 
L 2847 2266 
Q 2781 2703 2561 2903 
Q 2341 3103 1931 3103 
Q 1466 3103 1228 2742 
Q 991 2381 991 1663 
Q 991 944 1227 581 
Q 1463 219 1931 219 
Q 2303 219 2525 412 
Q 2747 606 2828 997 
L 3291 997 
z
" transform="scale(0.015625)"/>
       </defs>
       <use xlink:href="#DejaVuSerif-43"/>
       <use xlink:href="#DejaVuSerif-6f" x="76.513672"/>
       <use xlink:href="#DejaVuSerif-6c" x="136.71875"/>
       <use xlink:href="#DejaVuSerif-6c" x="168.701172"/>
       <use xlink:href="#DejaVuSerif-65" x="200.683594"/>
       <use xlink:href="#DejaVuSerif-63" x="259.863281"/>
       <use xlink:href="#DejaVuSerif-74" x="315.869141"/>
      </g>
     </g>
    </g>
    <g id="xtick_3">
     <g id="line2d_3">
      <g>
       <use xlink:href="#m7a4d77cb0c" x="410.675625" y="231.849187" style="fill: #262626; stroke: #262626; stroke-width: 0.8"/>
      </g>
     </g>
     <g id="text_3">
      <!-- Step 2: -->
      <g style="fill: #262626" transform="translate(380.894414 250.886609) scale(0.165 -0.165)">
       <defs>
        <path id="DejaVuSerif-32" d="M 819 3553 
L 469 3553 
L 469 4384 
Q 803 4563 1142 4656 
Q 1481 4750 1806 4750 
Q 2534 4750 2956 4397 
Q 3378 4044 3378 3438 
Q 3378 2753 2422 1800 
Q 2347 1728 2309 1691 
L 1131 513 
L 3078 513 
L 3078 1088 
L 3444 1088 
L 3444 0 
L 434 0 
L 434 341 
L 1850 1753 
Q 2319 2222 2519 2614 
Q 2719 3006 2719 3438 
Q 2719 3909 2473 4175 
Q 2228 4441 1797 4441 
Q 1350 4441 1106 4219 
Q 863 3997 819 3553 
z
" transform="scale(0.015625)"/>
       </defs>
       <use xlink:href="#DejaVuSerif-53"/>
       <use xlink:href="#DejaVuSerif-74" x="68.505859"/>
       <use xlink:href="#DejaVuSerif-65" x="108.691406"/>
       <use xlink:href="#DejaVuSerif-70" x="167.871094"/>
       <use xlink:href="#DejaVuSerif-20" x="231.884766"/>
       <use xlink:href="#DejaVuSerif-32" x="263.671875"/>
       <use xlink:href="#DejaVuSerif-3a" x="327.294922"/>
      </g>
      <!-- Find families -->
      <g style="fill: #262626" transform="translate(356.266875 269.363) scale(0.165 -0.165)">
       <defs>
        <path id="DejaVuSerif-46" d="M 353 0 
L 353 331 
L 947 331 
L 947 4331 
L 353 4331 
L 353 4666 
L 4172 4666 
L 4172 3628 
L 3788 3628 
L 3788 4281 
L 1581 4281 
L 1581 2719 
L 3175 2719 
L 3175 3303 
L 3559 3303 
L 3559 1753 
L 3175 1753 
L 3175 2338 
L 1581 2338 
L 1581 331 
L 2328 331 
L 2328 0 
L 353 0 
z
" transform="scale(0.015625)"/>
        <path id="DejaVuSerif-69" d="M 622 4353 
Q 622 4497 726 4603 
Q 831 4709 978 4709 
Q 1122 4709 1226 4603 
Q 1331 4497 1331 4353 
Q 1331 4206 1228 4103 
Q 1125 4000 978 4000 
Q 831 4000 726 4103 
Q 622 4206 622 4353 
z
M 1356 331 
L 1900 331 
L 1900 0 
L 231 0 
L 231 331 
L 781 331 
L 781 2988 
L 231 2988 
L 231 3322 
L 1356 3322 
L 1356 331 
z
" transform="scale(0.015625)"/>
        <path id="DejaVuSerif-66" d="M 2753 4078 
L 2450 4078 
Q 2447 4313 2317 4434 
Q 2188 4556 1941 4556 
Q 1619 4556 1487 4379 
Q 1356 4203 1356 3750 
L 1356 3322 
L 2284 3322 
L 2284 2988 
L 1356 2988 
L 1356 331 
L 2094 331 
L 2094 0 
L 231 0 
L 231 331 
L 781 331 
L 781 2988 
L 231 2988 
L 231 3322 
L 781 3322 
L 781 3738 
Q 781 4294 1070 4578 
Q 1359 4863 1919 4863 
Q 2128 4863 2337 4825 
Q 2547 4788 2753 4709 
L 2753 4078 
z
" transform="scale(0.015625)"/>
        <path id="DejaVuSerif-61" d="M 2547 1044 
L 2547 1747 
L 1806 1747 
Q 1378 1747 1168 1562 
Q 959 1378 959 997 
Q 959 650 1171 447 
Q 1384 244 1747 244 
Q 2106 244 2326 466 
Q 2547 688 2547 1044 
z
M 3122 2075 
L 3122 331 
L 3634 331 
L 3634 0 
L 2547 0 
L 2547 359 
Q 2356 128 2106 18 
Q 1856 -91 1522 -91 
Q 969 -91 644 203 
Q 319 497 319 997 
Q 319 1513 691 1797 
Q 1063 2081 1741 2081 
L 2547 2081 
L 2547 2309 
Q 2547 2688 2317 2895 
Q 2088 3103 1672 3103 
Q 1328 3103 1125 2947 
Q 922 2791 872 2484 
L 575 2484 
L 575 3156 
Q 875 3284 1158 3348 
Q 1441 3413 1709 3413 
Q 2400 3413 2761 3070 
Q 3122 2728 3122 2075 
z
" transform="scale(0.015625)"/>
        <path id="DejaVuSerif-6d" d="M 3316 2675 
Q 3481 3041 3739 3227 
Q 3997 3413 4341 3413 
Q 4863 3413 5119 3089 
Q 5375 2766 5375 2113 
L 5375 331 
L 5894 331 
L 5894 0 
L 4300 0 
L 4300 331 
L 4800 331 
L 4800 2047 
Q 4800 2556 4650 2772 
Q 4500 2988 4153 2988 
Q 3769 2988 3567 2697 
Q 3366 2406 3366 1850 
L 3366 331 
L 3866 331 
L 3866 0 
L 2291 0 
L 2291 331 
L 2791 331 
L 2791 2069 
Q 2791 2566 2641 2777 
Q 2491 2988 2144 2988 
Q 1759 2988 1557 2697 
Q 1356 2406 1356 1850 
L 1356 331 
L 1856 331 
L 1856 0 
L 263 0 
L 263 331 
L 781 331 
L 781 2994 
L 231 2994 
L 231 3322 
L 1356 3322 
L 1356 2731 
Q 1516 3063 1762 3238 
Q 2009 3413 2322 3413 
Q 2709 3413 2968 3220 
Q 3228 3028 3316 2675 
z
" transform="scale(0.015625)"/>
        <path id="DejaVuSerif-73" d="M 359 184 
L 359 959 
L 691 959 
Q 703 588 923 403 
Q 1144 219 1575 219 
Q 1963 219 2166 364 
Q 2369 509 2369 788 
Q 2369 1006 2220 1140 
Q 2072 1275 1594 1428 
L 1178 1569 
Q 750 1706 558 1912 
Q 366 2119 366 2438 
Q 366 2894 700 3153 
Q 1034 3413 1625 3413 
Q 1888 3413 2178 3344 
Q 2469 3275 2778 3144 
L 2778 2419 
L 2447 2419 
Q 2434 2741 2221 2922 
Q 2009 3103 1644 3103 
Q 1281 3103 1095 2975 
Q 909 2847 909 2591 
Q 909 2381 1050 2254 
Q 1191 2128 1613 1997 
L 2069 1856 
Q 2541 1709 2748 1489 
Q 2956 1269 2956 922 
Q 2956 450 2595 179 
Q 2234 -91 1600 -91 
Q 1278 -91 972 -22 
Q 666 47 359 184 
z
" transform="scale(0.015625)"/>
       </defs>
       <use xlink:href="#DejaVuSerif-46"/>
       <use xlink:href="#DejaVuSerif-69" x="69.384766"/>
       <use xlink:href="#DejaVuSerif-6e" x="101.367188"/>
       <use xlink:href="#DejaVuSerif-64" x="165.771484"/>
       <use xlink:href="#DejaVuSerif-20" x="229.785156"/>
       <use xlink:href="#DejaVuSerif-66" x="261.572266"/>
       <use xlink:href="#DejaVuSerif-61" x="298.583984"/>
       <use xlink:href="#DejaVuSerif-6d" x="358.203125"/>
       <use xlink:href="#DejaVuSerif-69" x="453.027344"/>
       <use xlink:href="#DejaVuSerif-6c" x="485.009766"/>
       <use xlink:href="#DejaVuSerif-69" x="516.992188"/>
       <use xlink:href="#DejaVuSerif-65" x="548.974609"/>
       <use xlink:href="#DejaVuSerif-73" x="608.154297"/>
      </g>
     </g>
    </g>
    <g id="xtick_4">
     <g id="line2d_4">
      <g>
       <use xlink:href="#m7a4d77cb0c" x="548.1975" y="231.849187" style="fill: #262626; stroke: #262626; stroke-width: 0.8"/>
      </g>
     </g>
     <g id="text_4">
      <!-- Step 3: -->
      <g style="fill: #262626" transform="translate(518.416289 250.886609) scale(0.165 -0.165)">
       <defs>
        <path id="DejaVuSerif-33" d="M 622 4469 
Q 988 4606 1323 4678 
Q 1659 4750 1953 4750 
Q 2638 4750 3022 4454 
Q 3406 4159 3406 3634 
Q 3406 3213 3140 2930 
Q 2875 2647 2388 2547 
Q 2963 2466 3280 2130 
Q 3597 1794 3597 1259 
Q 3597 606 3158 257 
Q 2719 -91 1894 -91 
Q 1528 -91 1179 -12 
Q 831 66 488 225 
L 488 1131 
L 838 1131 
Q 869 681 1141 450 
Q 1413 219 1906 219 
Q 2384 219 2661 495 
Q 2938 772 2938 1253 
Q 2938 1803 2653 2086 
Q 2369 2369 1819 2369 
L 1522 2369 
L 1522 2688 
L 1678 2688 
Q 2225 2688 2498 2914 
Q 2772 3141 2772 3597 
Q 2772 4006 2547 4223 
Q 2322 4441 1900 4441 
Q 1478 4441 1245 4241 
Q 1013 4041 972 3647 
L 622 3647 
L 622 4469 
z
" transform="scale(0.015625)"/>
       </defs>
       <use xlink:href="#DejaVuSerif-53"/>
       <use xlink:href="#DejaVuSerif-74" x="68.505859"/>
       <use xlink:href="#DejaVuSerif-65" x="108.691406"/>
       <use xlink:href="#DejaVuSerif-70" x="167.871094"/>
       <use xlink:href="#DejaVuSerif-20" x="231.884766"/>
       <use xlink:href="#DejaVuSerif-33" x="263.671875"/>
       <use xlink:href="#DejaVuSerif-3a" x="327.294922"/>
      </g>
      <!-- Annotate -->
      <g style="fill: #262626" transform="translate(510.212695 269.363) scale(0.165 -0.165)">
       <defs>
        <path id="DejaVuSerif-41" d="M 1281 1691 
L 2994 1691 
L 2138 3909 
L 1281 1691 
z
M -38 0 
L -38 331 
L 372 331 
L 2034 4666 
L 2559 4666 
L 4225 331 
L 4684 331 
L 4684 0 
L 2988 0 
L 2988 331 
L 3506 331 
L 3116 1356 
L 1153 1356 
L 763 331 
L 1275 331 
L 1275 0 
L -38 0 
z
" transform="scale(0.015625)"/>
       </defs>
       <use xlink:href="#DejaVuSerif-41"/>
       <use xlink:href="#DejaVuSerif-6e" x="72.216797"/>
       <use xlink:href="#DejaVuSerif-6e" x="136.621094"/>
       <use xlink:href="#DejaVuSerif-6f" x="201.025391"/>
       <use xlink:href="#DejaVuSerif-74" x="261.230469"/>
       <use xlink:href="#DejaVuSerif-61" x="301.416016"/>
       <use xlink:href="#DejaVuSerif-74" x="361.035156"/>
       <use xlink:href="#DejaVuSerif-65" x="401.220703"/>
      </g>
     </g>
    </g>
    <g id="text_5">
     <!-- GCsnap task -->
     <g style="fill: #262626" transform="translate(284.380781 290.471672) scale(0.18 -0.18)">
      <defs>
       <path id="DejaVuSerif-47" d="M 4097 3272 
Q 3988 3856 3641 4136 
Q 3294 4416 2675 4416 
Q 1869 4416 1472 3897 
Q 1075 3378 1075 2328 
Q 1075 1300 1484 772 
Q 1894 244 2688 244 
Q 3041 244 3362 331 
Q 3684 419 3975 594 
L 3975 1797 
L 3097 1797 
L 3097 2131 
L 4609 2131 
L 4609 391 
Q 4194 150 3714 29 
Q 3234 -91 2688 -91 
Q 1631 -91 995 570 
Q 359 1231 359 2328 
Q 359 3434 996 4092 
Q 1634 4750 2713 4750 
Q 3113 4750 3539 4658 
Q 3966 4566 4447 4378 
L 4447 3272 
L 4097 3272 
z
" transform="scale(0.015625)"/>
       <path id="DejaVuSerif-6b" d="M 1831 0 
L 219 0 
L 219 331 
L 738 331 
L 738 4531 
L 184 4531 
L 184 4863 
L 1313 4863 
L 1313 1697 
L 2713 2988 
L 2234 2988 
L 2234 3322 
L 3738 3322 
L 3738 2988 
L 3169 2988 
L 2181 2075 
L 3444 331 
L 3922 331 
L 3922 0 
L 2284 0 
L 2284 331 
L 2759 331 
L 1766 1697 
L 1313 1275 
L 1313 331 
L 1831 331 
L 1831 0 
z
" transform="scale(0.015625)"/>
      </defs>
      <use xlink:href="#DejaVuSerif-47"/>
      <use xlink:href="#DejaVuSerif-43" x="79.882812"/>
      <use xlink:href="#DejaVuSerif-73" x="156.396484"/>
      <use xlink:href="#DejaVuSerif-6e" x="207.714844"/>
      <use xlink:href="#DejaVuSerif-61" x="272.119141"/>
      <use xlink:href="#DejaVuSerif-70" x="331.738281"/>
      <use xlink:href="#DejaVuSerif-20" x="395.751953"/>
      <use xlink:href="#DejaVuSerif-74" x="427.539062"/>
      <use xlink:href="#DejaVuSerif-61" x="467.724609"/>
      <use xlink:href="#DejaVuSerif-73" x="527.34375"/>
      <use xlink:href="#DejaVuSerif-6b" x="578.662109"/>
     </g>
    </g>
   </g>
   <g id="matplotlib.axis_2">
    <g id="ytick_1">
     <g id="line2d_5">
      <path d="M 66.870938 231.849187 
L 616.958437 231.849187 
" clip-path="url(#p86d9f1e69a)" style="fill: none; stroke: #808080; stroke-opacity: 0.5; stroke-width: 0.5; stroke-linecap: round"/>
     </g>
     <g id="line2d_6">
      <defs>
       <path id="mafef3d053a" d="M 0 0 
L -3 0 
" style="stroke: #262626; stroke-width: 0.8"/>
      </defs>
      <g>
       <use xlink:href="#mafef3d053a" x="66.870938" y="231.849187" style="fill: #262626; stroke: #262626; stroke-width: 0.8"/>
      </g>
     </g>
     <g id="text_6">
      <!-- 0 -->
      <g style="fill: #262626" transform="translate(49.872813 238.117898) scale(0.165 -0.165)">
       <defs>
        <path id="DejaVuSerif-30" d="M 2034 219 
Q 2513 219 2750 744 
Q 2988 1269 2988 2328 
Q 2988 3391 2750 3916 
Q 2513 4441 2034 4441 
Q 1556 4441 1318 3916 
Q 1081 3391 1081 2328 
Q 1081 1269 1318 744 
Q 1556 219 2034 219 
z
M 2034 -91 
Q 1275 -91 848 546 
Q 422 1184 422 2328 
Q 422 3475 848 4112 
Q 1275 4750 2034 4750 
Q 2797 4750 3222 4112 
Q 3647 3475 3647 2328 
Q 3647 1184 3222 546 
Q 2797 -91 2034 -91 
z
" transform="scale(0.015625)"/>
       </defs>
       <use xlink:href="#DejaVuSerif-30"/>
      </g>
     </g>
    </g>
    <g id="ytick_2">
     <g id="line2d_7">
      <path d="M 66.870938 176.30122 
L 616.958437 176.30122 
" clip-path="url(#p86d9f1e69a)" style="fill: none; stroke: #808080; stroke-opacity: 0.5; stroke-width: 0.5; stroke-linecap: round"/>
     </g>
     <g id="line2d_8">
      <g>
       <use xlink:href="#mafef3d053a" x="66.870938" y="176.30122" style="fill: #262626; stroke: #262626; stroke-width: 0.8"/>
      </g>
     </g>
     <g id="text_7">
      <!-- 100 -->
      <g style="fill: #262626" transform="translate(28.876563 182.569931) scale(0.165 -0.165)">
       <use xlink:href="#DejaVuSerif-31"/>
       <use xlink:href="#DejaVuSerif-30" x="63.623047"/>
       <use xlink:href="#DejaVuSerif-30" x="127.246094"/>
      </g>
     </g>
    </g>
    <g id="ytick_3">
     <g id="line2d_9">
      <path d="M 66.870938 120.753253 
L 616.958437 120.753253 
" clip-path="url(#p86d9f1e69a)" style="fill: none; stroke: #808080; stroke-opacity: 0.5; stroke-width: 0.5; stroke-linecap: round"/>
     </g>
     <g id="line2d_10">
      <g>
       <use xlink:href="#mafef3d053a" x="66.870938" y="120.753253" style="fill: #262626; stroke: #262626; stroke-width: 0.8"/>
      </g>
     </g>
     <g id="text_8">
      <!-- 200 -->
      <g style="fill: #262626" transform="translate(28.876563 127.021963) scale(0.165 -0.165)">
       <use xlink:href="#DejaVuSerif-32"/>
       <use xlink:href="#DejaVuSerif-30" x="63.623047"/>
       <use xlink:href="#DejaVuSerif-30" x="127.246094"/>
      </g>
     </g>
    </g>
    <g id="ytick_4">
     <g id="line2d_11">
      <path d="M 66.870938 65.205285 
L 616.958437 65.205285 
" clip-path="url(#p86d9f1e69a)" style="fill: none; stroke: #808080; stroke-opacity: 0.5; stroke-width: 0.5; stroke-linecap: round"/>
     </g>
     <g id="line2d_12">
      <g>
       <use xlink:href="#mafef3d053a" x="66.870938" y="65.205285" style="fill: #262626; stroke: #262626; stroke-width: 0.8"/>
      </g>
     </g>
     <g id="text_9">
      <!-- 300 -->
      <g style="fill: #262626" transform="translate(28.876563 71.473996) scale(0.165 -0.165)">
       <use xlink:href="#DejaVuSerif-33"/>
       <use xlink:href="#DejaVuSerif-30" x="63.623047"/>
       <use xlink:href="#DejaVuSerif-30" x="127.246094"/>
      </g>
     </g>
    </g>
    <g id="text_10">
     <!-- Average execution time (s) -->
     <g style="fill: #262626" transform="translate(20.877188 251.525531) rotate(-90) scale(0.18 -0.18)">
      <defs>
       <path id="DejaVuSerif-76" d="M 1581 0 
L 359 2988 
L -19 2988 
L -19 3322 
L 1509 3322 
L 1509 2988 
L 978 2988 
L 1913 703 
L 2847 2988 
L 2350 2988 
L 2350 3322 
L 3597 3322 
L 3597 2988 
L 3225 2988 
L 2003 0 
L 1581 0 
z
" transform="scale(0.015625)"/>
       <path id="DejaVuSerif-72" d="M 3059 3328 
L 3059 2497 
L 2728 2497 
Q 2713 2744 2591 2866 
Q 2469 2988 2234 2988 
Q 1809 2988 1582 2694 
Q 1356 2400 1356 1850 
L 1356 331 
L 2022 331 
L 2022 0 
L 263 0 
L 263 331 
L 781 331 
L 781 2994 
L 231 2994 
L 231 3322 
L 1356 3322 
L 1356 2731 
Q 1525 3078 1790 3245 
Q 2056 3413 2438 3413 
Q 2578 3413 2733 3391 
Q 2888 3369 3059 3328 
z
" transform="scale(0.015625)"/>
       <path id="DejaVuSerif-67" d="M 3359 2988 
L 3359 72 
Q 3359 -644 2965 -1033 
Q 2572 -1422 1844 -1422 
Q 1516 -1422 1216 -1362 
Q 916 -1303 641 -1184 
L 641 -488 
L 941 -488 
Q 997 -813 1206 -963 
Q 1416 -1113 1806 -1113 
Q 2313 -1113 2548 -827 
Q 2784 -541 2784 72 
L 2784 519 
Q 2616 206 2355 57 
Q 2094 -91 1709 -91 
Q 1097 -91 708 395 
Q 319 881 319 1663 
Q 319 2444 706 2928 
Q 1094 3413 1709 3413 
Q 2094 3413 2355 3264 
Q 2616 3116 2784 2803 
L 2784 3322 
L 3909 3322 
L 3909 2988 
L 3359 2988 
z
M 2784 1825 
Q 2784 2422 2554 2737 
Q 2325 3053 1888 3053 
Q 1444 3053 1217 2703 
Q 991 2353 991 1663 
Q 991 975 1217 622 
Q 1444 269 1888 269 
Q 2325 269 2554 583 
Q 2784 897 2784 1497 
L 2784 1825 
z
" transform="scale(0.015625)"/>
       <path id="DejaVuSerif-78" d="M 1863 2028 
L 2559 2988 
L 2113 2988 
L 2113 3322 
L 3391 3322 
L 3391 2988 
L 2950 2988 
L 2059 1759 
L 3097 331 
L 3531 331 
L 3531 0 
L 1997 0 
L 1997 331 
L 2419 331 
L 1697 1325 
L 972 331 
L 1403 331 
L 1403 0 
L 141 0 
L 141 331 
L 581 331 
L 1497 1594 
L 488 2988 
L 78 2988 
L 78 3322 
L 1563 3322 
L 1563 2988 
L 1166 2988 
L 1863 2028 
z
" transform="scale(0.015625)"/>
       <path id="DejaVuSerif-75" d="M 2266 3322 
L 3341 3322 
L 3341 331 
L 3884 331 
L 3884 0 
L 2766 0 
L 2766 588 
Q 2606 256 2353 82 
Q 2100 -91 1766 -91 
Q 1213 -91 952 223 
Q 691 538 691 1209 
L 691 2988 
L 172 2988 
L 172 3322 
L 1269 3322 
L 1269 1388 
Q 1269 781 1417 556 
Q 1566 331 1947 331 
Q 2347 331 2556 625 
Q 2766 919 2766 1478 
L 2766 2988 
L 2266 2988 
L 2266 3322 
z
" transform="scale(0.015625)"/>
       <path id="DejaVuSerif-28" d="M 2041 -997 
Q 1281 -656 893 83 
Q 506 822 506 1931 
Q 506 3044 893 3783 
Q 1281 4522 2041 4863 
L 2041 4556 
Q 1559 4225 1350 3623 
Q 1141 3022 1141 1931 
Q 1141 844 1350 242 
Q 1559 -359 2041 -691 
L 2041 -997 
z
" transform="scale(0.015625)"/>
       <path id="DejaVuSerif-29" d="M 453 -997 
L 453 -691 
Q 934 -359 1145 242 
Q 1356 844 1356 1931 
Q 1356 3022 1145 3623 
Q 934 4225 453 4556 
L 453 4863 
Q 1216 4522 1603 3783 
Q 1991 3044 1991 1931 
Q 1991 822 1603 83 
Q 1216 -656 453 -997 
z
" transform="scale(0.015625)"/>
      </defs>
      <use xlink:href="#DejaVuSerif-41"/>
      <use xlink:href="#DejaVuSerif-76" x="68.216797"/>
      <use xlink:href="#DejaVuSerif-65" x="124.710938"/>
      <use xlink:href="#DejaVuSerif-72" x="183.890625"/>
      <use xlink:href="#DejaVuSerif-61" x="231.693359"/>
      <use xlink:href="#DejaVuSerif-67" x="291.3125"/>
      <use xlink:href="#DejaVuSerif-65" x="355.326172"/>
      <use xlink:href="#DejaVuSerif-20" x="414.505859"/>
      <use xlink:href="#DejaVuSerif-65" x="446.292969"/>
      <use xlink:href="#DejaVuSerif-78" x="505.472656"/>
      <use xlink:href="#DejaVuSerif-65" x="561.869141"/>
      <use xlink:href="#DejaVuSerif-63" x="621.048828"/>
      <use xlink:href="#DejaVuSerif-75" x="677.054688"/>
      <use xlink:href="#DejaVuSerif-74" x="741.458984"/>
      <use xlink:href="#DejaVuSerif-69" x="781.644531"/>
      <use xlink:href="#DejaVuSerif-6f" x="813.626953"/>
      <use xlink:href="#DejaVuSerif-6e" x="873.832031"/>
      <use xlink:href="#DejaVuSerif-20" x="938.236328"/>
      <use xlink:href="#DejaVuSerif-74" x="970.023438"/>
      <use xlink:href="#DejaVuSerif-69" x="1010.208984"/>
      <use xlink:href="#DejaVuSerif-6d" x="1042.191406"/>
      <use xlink:href="#DejaVuSerif-65" x="1137.015625"/>
      <use xlink:href="#DejaVuSerif-20" x="1196.195312"/>
      <use xlink:href="#DejaVuSerif-28" x="1227.982422"/>
      <use xlink:href="#DejaVuSerif-73" x="1266.996094"/>
      <use xlink:href="#DejaVuSerif-29" x="1318.314453"/>
     </g>
    </g>
   </g>
   <g id="patch_3">
    <path d="M 80.623125 231.849187 
L 117.295625 231.849187 
L 117.295625 53.397387 
L 80.623125 53.397387 
z
" clip-path="url(#p86d9f1e69a)" style="fill: #7798ec; stroke: #ffffff; stroke-linejoin: miter"/>
   </g>
   <g id="patch_4">
    <path d="M 218.145 231.849187 
L 254.8175 231.849187 
L 254.8175 225.748928 
L 218.145 225.748928 
z
" clip-path="url(#p86d9f1e69a)" style="fill: #7798ec; stroke: #ffffff; stroke-linejoin: miter"/>
   </g>
   <g id="patch_5">
    <path d="M 355.666875 231.849187 
L 392.339375 231.849187 
L 392.339375 180.491798 
L 355.666875 180.491798 
z
" clip-path="url(#p86d9f1e69a)" style="fill: #7798ec; stroke: #ffffff; stroke-linejoin: miter"/>
   </g>
   <g id="patch_6">
    <path d="M 493.18875 231.849187 
L 529.86125 231.849187 
L 529.86125 124.578614 
L 493.18875 124.578614 
z
" clip-path="url(#p86d9f1e69a)" style="fill: #7798ec; stroke: #ffffff; stroke-linejoin: miter"/>
   </g>
   <g id="patch_7">
    <path d="M 117.295625 231.849187 
L 153.968125 231.849187 
L 153.968125 77.963764 
L 117.295625 77.963764 
z
" clip-path="url(#p86d9f1e69a)" style="fill: #8470de; stroke: #ffffff; stroke-linejoin: miter"/>
   </g>
   <g id="patch_8">
    <path d="M 254.8175 231.849187 
L 291.49 231.849187 
L 291.49 225.386621 
L 254.8175 225.386621 
z
" clip-path="url(#p86d9f1e69a)" style="fill: #8470de; stroke: #ffffff; stroke-linejoin: miter"/>
   </g>
   <g id="patch_9">
    <path d="M 392.339375 231.849187 
L 429.011875 231.849187 
L 429.011875 205.095615 
L 392.339375 205.095615 
z
" clip-path="url(#p86d9f1e69a)" style="fill: #8470de; stroke: #ffffff; stroke-linejoin: miter"/>
   </g>
   <g id="patch_10">
    <path d="M 529.86125 231.849187 
L 566.53375 231.849187 
L 566.53375 124.949291 
L 529.86125 124.949291 
z
" clip-path="url(#p86d9f1e69a)" style="fill: #8470de; stroke: #ffffff; stroke-linejoin: miter"/>
   </g>
   <g id="patch_11">
    <path d="M 153.968125 231.849187 
L 190.640625 231.849187 
L 190.640625 90.961186 
L 153.968125 90.961186 
z
" clip-path="url(#p86d9f1e69a)" style="fill: #c53d7f; stroke: #ffffff; stroke-linejoin: miter"/>
   </g>
   <g id="patch_12">
    <path d="M 291.49 231.849187 
L 328.1625 231.849187 
L 328.1625 225.926367 
L 291.49 225.926367 
z
" clip-path="url(#p86d9f1e69a)" style="fill: #c53d7f; stroke: #ffffff; stroke-linejoin: miter"/>
   </g>
   <g id="patch_13">
    <path d="M 429.011875 231.849187 
L 465.684375 231.849187 
L 465.684375 217.383531 
L 429.011875 217.383531 
z
" clip-path="url(#p86d9f1e69a)" style="fill: #c53d7f; stroke: #ffffff; stroke-linejoin: miter"/>
   </g>
   <g id="patch_14">
    <path d="M 566.53375 231.849187 
L 603.20625 231.849187 
L 603.20625 125.168019 
L 566.53375 125.168019 
z
" clip-path="url(#p86d9f1e69a)" style="fill: #c53d7f; stroke: #ffffff; stroke-linejoin: miter"/>
   </g>
   <g id="patch_15">
    <path d="M 135.631875 231.849187 
L 135.631875 231.849187 
L 135.631875 231.849187 
L 135.631875 231.849187 
z
" clip-path="url(#p86d9f1e69a)" style="fill: #7798ec; stroke: #ffffff; stroke-linejoin: miter"/>
   </g>
   <g id="patch_16">
    <path d="M 135.631875 231.849187 
L 135.631875 231.849187 
L 135.631875 231.849187 
L 135.631875 231.849187 
z
" clip-path="url(#p86d9f1e69a)" style="fill: #8470de; stroke: #ffffff; stroke-linejoin: miter"/>
   </g>
   <g id="patch_17">
    <path d="M 135.631875 231.849187 
L 135.631875 231.849187 
L 135.631875 231.849187 
L 135.631875 231.849187 
z
" clip-path="url(#p86d9f1e69a)" style="fill: #c53d7f; stroke: #ffffff; stroke-linejoin: miter"/>
   </g>
   <g id="patch_18">
    <path d="M 66.870938 231.849187 
L 66.870938 26.877188 
" style="fill: none; stroke: #262626; stroke-width: 0.8; stroke-linejoin: miter; stroke-linecap: square"/>
   </g>
   <g id="patch_19">
    <path d="M 616.958437 231.849187 
L 616.958437 26.877188 
" style="fill: none; stroke: #262626; stroke-width: 0.8; stroke-linejoin: miter; stroke-linecap: square"/>
   </g>
   <g id="patch_20">
    <path d="M 66.870938 231.849187 
L 616.958437 231.849187 
" style="fill: none; stroke: #262626; stroke-width: 0.8; stroke-linejoin: miter; stroke-linecap: square"/>
   </g>
   <g id="patch_21">
    <path d="M 66.870938 26.877187 
L 616.958437 26.877187 
" style="fill: none; stroke: #262626; stroke-width: 0.8; stroke-linejoin: miter; stroke-linecap: square"/>
   </g>
   <g id="text_11">
    <g id="patch_22">
     <path d="M 85.566736 49.373301 
L 116.426736 49.373301 
L 116.426736 33.568301 
L 85.566736 33.568301 
z
" style="fill: #ffffff"/>
    </g>
    <!-- 321 -->
    <g transform="translate(85.726736 45.885801) scale(0.16 -0.16)">
     <use xlink:href="#DejaVuSerif-33"/>
     <use xlink:href="#DejaVuSerif-32" x="63.623047"/>
     <use xlink:href="#DejaVuSerif-31" x="127.246094"/>
    </g>
   </g>
   <g id="text_12">
    <g id="patch_23">
     <path d="M 228.178611 221.724842 
L 248.858611 221.724842 
L 248.858611 205.919842 
L 228.178611 205.919842 
z
" style="fill: #ffffff"/>
    </g>
    <!-- 11 -->
    <g transform="translate(228.338611 218.237342) scale(0.16 -0.16)">
     <use xlink:href="#DejaVuSerif-31"/>
     <use xlink:href="#DejaVuSerif-31" x="63.623047"/>
    </g>
   </g>
   <g id="text_13">
    <g id="patch_24">
     <path d="M 365.700486 176.467712 
L 386.380486 176.467712 
L 386.380486 160.662712 
L 365.700486 160.662712 
z
" style="fill: #ffffff"/>
    </g>
    <!-- 92 -->
    <g transform="translate(365.860486 172.980212) scale(0.16 -0.16)">
     <defs>
      <path id="DejaVuSerif-39" d="M 2994 2091 
Q 2784 1856 2512 1740 
Q 2241 1625 1900 1625 
Q 1206 1625 804 2044 
Q 403 2463 403 3188 
Q 403 3897 839 4323 
Q 1275 4750 2003 4750 
Q 2794 4750 3217 4161 
Q 3641 3572 3641 2478 
Q 3641 1253 3137 581 
Q 2634 -91 1722 -91 
Q 1475 -91 1203 -44 
Q 931 3 647 97 
L 647 872 
L 997 872 
Q 1038 556 1241 387 
Q 1444 219 1784 219 
Q 2391 219 2687 676 
Q 2984 1134 2994 2091 
z
M 1978 4441 
Q 1534 4441 1298 4117 
Q 1063 3794 1063 3188 
Q 1063 2581 1298 2256 
Q 1534 1931 1978 1931 
Q 2422 1931 2658 2245 
Q 2894 2559 2894 3150 
Q 2894 3772 2656 4106 
Q 2419 4441 1978 4441 
z
" transform="scale(0.015625)"/>
     </defs>
     <use xlink:href="#DejaVuSerif-39"/>
     <use xlink:href="#DejaVuSerif-32" x="63.623047"/>
    </g>
   </g>
   <g id="text_14">
    <g id="patch_25">
     <path d="M 498.132361 120.554528 
L 528.992361 120.554528 
L 528.992361 104.749528 
L 498.132361 104.749528 
z
" style="fill: #ffffff"/>
    </g>
    <!-- 193 -->
    <g transform="translate(498.292361 117.067028) scale(0.16 -0.16)">
     <use xlink:href="#DejaVuSerif-31"/>
     <use xlink:href="#DejaVuSerif-39" x="63.623047"/>
     <use xlink:href="#DejaVuSerif-33" x="127.246094"/>
    </g>
   </g>
   <g id="text_15">
    <g id="patch_26">
     <path d="M 122.239236 73.939679 
L 153.099236 73.939679 
L 153.099236 58.134679 
L 122.239236 58.134679 
z
" style="fill: #ffffff"/>
    </g>
    <!-- 277 -->
    <g transform="translate(122.399236 70.452179) scale(0.16 -0.16)">
     <defs>
      <path id="DejaVuSerif-37" d="M 3609 4347 
L 1784 0 
L 1319 0 
L 3059 4153 
L 903 4153 
L 903 3578 
L 538 3578 
L 538 4666 
L 3609 4666 
L 3609 4347 
z
" transform="scale(0.015625)"/>
     </defs>
     <use xlink:href="#DejaVuSerif-32"/>
     <use xlink:href="#DejaVuSerif-37" x="63.623047"/>
     <use xlink:href="#DejaVuSerif-37" x="127.246094"/>
    </g>
   </g>
   <g id="text_16">
    <g id="patch_27">
     <path d="M 264.851111 221.362536 
L 285.531111 221.362536 
L 285.531111 205.557536 
L 264.851111 205.557536 
z
" style="fill: #ffffff"/>
    </g>
    <!-- 12 -->
    <g transform="translate(265.011111 217.875036) scale(0.16 -0.16)">
     <use xlink:href="#DejaVuSerif-31"/>
     <use xlink:href="#DejaVuSerif-32" x="63.623047"/>
    </g>
   </g>
   <g id="text_17">
    <g id="patch_28">
     <path d="M 402.372986 201.07153 
L 423.052986 201.07153 
L 423.052986 185.26653 
L 402.372986 185.26653 
z
" style="fill: #ffffff"/>
    </g>
    <!-- 48 -->
    <g transform="translate(402.532986 197.58403) scale(0.16 -0.16)">
     <defs>
      <path id="DejaVuSerif-34" d="M 2234 1581 
L 2234 4063 
L 641 1581 
L 2234 1581 
z
M 3609 0 
L 1484 0 
L 1484 331 
L 2234 331 
L 2234 1247 
L 197 1247 
L 197 1588 
L 2241 4750 
L 2859 4750 
L 2859 1581 
L 3750 1581 
L 3750 1247 
L 2859 1247 
L 2859 331 
L 3609 331 
L 3609 0 
z
" transform="scale(0.015625)"/>
      <path id="DejaVuSerif-38" d="M 2981 1275 
Q 2981 1775 2732 2051 
Q 2484 2328 2034 2328 
Q 1584 2328 1336 2051 
Q 1088 1775 1088 1275 
Q 1088 772 1336 495 
Q 1584 219 2034 219 
Q 2484 219 2732 495 
Q 2981 772 2981 1275 
z
M 2853 3541 
Q 2853 3966 2637 4203 
Q 2422 4441 2034 4441 
Q 1650 4441 1433 4203 
Q 1216 3966 1216 3541 
Q 1216 3113 1433 2875 
Q 1650 2638 2034 2638 
Q 2422 2638 2637 2875 
Q 2853 3113 2853 3541 
z
M 2516 2484 
Q 3047 2413 3344 2092 
Q 3641 1772 3641 1275 
Q 3641 619 3225 264 
Q 2809 -91 2034 -91 
Q 1263 -91 845 264 
Q 428 619 428 1275 
Q 428 1772 725 2092 
Q 1022 2413 1556 2484 
Q 1084 2569 832 2842 
Q 581 3116 581 3541 
Q 581 4103 968 4426 
Q 1356 4750 2034 4750 
Q 2713 4750 3100 4426 
Q 3488 4103 3488 3541 
Q 3488 3116 3236 2842 
Q 2984 2569 2516 2484 
z
" transform="scale(0.015625)"/>
     </defs>
     <use xlink:href="#DejaVuSerif-34"/>
     <use xlink:href="#DejaVuSerif-38" x="63.623047"/>
    </g>
   </g>
   <g id="text_18">
    <g id="patch_29">
     <path d="M 534.804861 120.925206 
L 565.664861 120.925206 
L 565.664861 105.120206 
L 534.804861 105.120206 
z
" style="fill: #ffffff"/>
    </g>
    <!-- 192 -->
    <g transform="translate(534.964861 117.437706) scale(0.16 -0.16)">
     <use xlink:href="#DejaVuSerif-31"/>
     <use xlink:href="#DejaVuSerif-39" x="63.623047"/>
     <use xlink:href="#DejaVuSerif-32" x="127.246094"/>
    </g>
   </g>
   <g id="text_19">
    <g id="patch_30">
     <path d="M 158.911736 86.9371 
L 189.771736 86.9371 
L 189.771736 71.1321 
L 158.911736 71.1321 
z
" style="fill: #ffffff"/>
    </g>
    <!-- 254 -->
    <g transform="translate(159.071736 83.4496) scale(0.16 -0.16)">
     <defs>
      <path id="DejaVuSerif-35" d="M 3219 4666 
L 3219 4153 
L 1081 4153 
L 1081 2816 
Q 1244 2928 1461 2984 
Q 1678 3041 1947 3041 
Q 2703 3041 3140 2622 
Q 3578 2203 3578 1478 
Q 3578 738 3136 323 
Q 2694 -91 1894 -91 
Q 1572 -91 1234 -12 
Q 897 66 544 225 
L 544 1131 
L 897 1131 
Q 925 688 1179 453 
Q 1434 219 1894 219 
Q 2388 219 2653 544 
Q 2919 869 2919 1478 
Q 2919 2084 2655 2407 
Q 2391 2731 1894 2731 
Q 1613 2731 1398 2631 
Q 1184 2531 1019 2322 
L 750 2322 
L 750 4666 
L 3219 4666 
z
" transform="scale(0.015625)"/>
     </defs>
     <use xlink:href="#DejaVuSerif-32"/>
     <use xlink:href="#DejaVuSerif-35" x="63.623047"/>
     <use xlink:href="#DejaVuSerif-34" x="127.246094"/>
    </g>
   </g>
   <g id="text_20">
    <g id="patch_31">
     <path d="M 301.523611 221.902282 
L 322.203611 221.902282 
L 322.203611 206.097282 
L 301.523611 206.097282 
z
" style="fill: #ffffff"/>
    </g>
    <!-- 11 -->
    <g transform="translate(301.683611 218.414782) scale(0.16 -0.16)">
     <use xlink:href="#DejaVuSerif-31"/>
     <use xlink:href="#DejaVuSerif-31" x="63.623047"/>
    </g>
   </g>
   <g id="text_21">
    <g id="patch_32">
     <path d="M 439.045486 213.359446 
L 459.725486 213.359446 
L 459.725486 197.554446 
L 439.045486 197.554446 
z
" style="fill: #ffffff"/>
    </g>
    <!-- 26 -->
    <g transform="translate(439.205486 209.871946) scale(0.16 -0.16)">
     <defs>
      <path id="DejaVuSerif-36" d="M 2094 219 
Q 2534 219 2771 542 
Q 3009 866 3009 1472 
Q 3009 2078 2771 2401 
Q 2534 2725 2094 2725 
Q 1647 2725 1412 2412 
Q 1178 2100 1178 1509 
Q 1178 888 1415 553 
Q 1653 219 2094 219 
z
M 1075 2569 
Q 1288 2803 1556 2918 
Q 1825 3034 2163 3034 
Q 2859 3034 3264 2615 
Q 3669 2197 3669 1472 
Q 3669 763 3233 336 
Q 2797 -91 2069 -91 
Q 1278 -91 853 498 
Q 428 1088 428 2181 
Q 428 3406 931 4078 
Q 1434 4750 2350 4750 
Q 2597 4750 2869 4703 
Q 3141 4656 3425 4563 
L 3425 3794 
L 3072 3794 
Q 3034 4109 2831 4275 
Q 2628 4441 2284 4441 
Q 1678 4441 1381 3981 
Q 1084 3522 1075 2569 
z
" transform="scale(0.015625)"/>
     </defs>
     <use xlink:href="#DejaVuSerif-32"/>
     <use xlink:href="#DejaVuSerif-36" x="63.623047"/>
    </g>
   </g>
   <g id="text_22">
    <g id="patch_33">
     <path d="M 571.477361 121.143933 
L 602.337361 121.143933 
L 602.337361 105.338933 
L 571.477361 105.338933 
z
" style="fill: #ffffff"/>
    </g>
    <!-- 192 -->
    <g transform="translate(571.637361 117.656433) scale(0.16 -0.16)">
     <use xlink:href="#DejaVuSerif-31"/>
     <use xlink:href="#DejaVuSerif-39" x="63.623047"/>
     <use xlink:href="#DejaVuSerif-32" x="127.246094"/>
    </g>
   </g>
   <g id="text_23">
    <!-- A.: 1'000 targets, 4 computing nodes, 4 ranks per node -->
    <g style="fill: #262626" transform="translate(89.865469 20.877187) scale(0.18 -0.18)">
     <defs>
      <path id="DejaVuSerif-2e" d="M 603 325 
Q 603 500 722 622 
Q 841 744 1019 744 
Q 1191 744 1312 622 
Q 1434 500 1434 325 
Q 1434 153 1312 31 
Q 1191 -91 1019 -91 
Q 841 -91 722 29 
Q 603 150 603 325 
z
" transform="scale(0.015625)"/>
      <path id="DejaVuSerif-27" d="M 1125 4666 
L 1125 2931 
L 628 2931 
L 628 4666 
L 1125 4666 
z
" transform="scale(0.015625)"/>
      <path id="DejaVuSerif-2c" d="M 231 -622 
Q 525 -406 662 -114 
Q 800 178 800 594 
L 800 709 
L 1416 709 
Q 1391 175 1164 -208 
Q 938 -591 481 -872 
L 231 -622 
z
" transform="scale(0.015625)"/>
     </defs>
     <use xlink:href="#DejaVuSerif-41"/>
     <use xlink:href="#DejaVuSerif-2e" x="72.216797"/>
     <use xlink:href="#DejaVuSerif-3a" x="104.003906"/>
     <use xlink:href="#DejaVuSerif-20" x="137.695312"/>
     <use xlink:href="#DejaVuSerif-31" x="169.482422"/>
     <use xlink:href="#DejaVuSerif-27" x="233.105469"/>
     <use xlink:href="#DejaVuSerif-30" x="260.595703"/>
     <use xlink:href="#DejaVuSerif-30" x="324.21875"/>
     <use xlink:href="#DejaVuSerif-30" x="387.841797"/>
     <use xlink:href="#DejaVuSerif-20" x="451.464844"/>
     <use xlink:href="#DejaVuSerif-74" x="483.251953"/>
     <use xlink:href="#DejaVuSerif-61" x="523.4375"/>
     <use xlink:href="#DejaVuSerif-72" x="583.056641"/>
     <use xlink:href="#DejaVuSerif-67" x="630.859375"/>
     <use xlink:href="#DejaVuSerif-65" x="694.873047"/>
     <use xlink:href="#DejaVuSerif-74" x="754.052734"/>
     <use xlink:href="#DejaVuSerif-73" x="794.238281"/>
     <use xlink:href="#DejaVuSerif-2c" x="845.556641"/>
     <use xlink:href="#DejaVuSerif-20" x="877.34375"/>
     <use xlink:href="#DejaVuSerif-34" x="909.130859"/>
     <use xlink:href="#DejaVuSerif-20" x="972.753906"/>
     <use xlink:href="#DejaVuSerif-63" x="1004.541016"/>
     <use xlink:href="#DejaVuSerif-6f" x="1060.546875"/>
     <use xlink:href="#DejaVuSerif-6d" x="1120.751953"/>
     <use xlink:href="#DejaVuSerif-70" x="1215.576172"/>
     <use xlink:href="#DejaVuSerif-75" x="1279.589844"/>
     <use xlink:href="#DejaVuSerif-74" x="1343.994141"/>
     <use xlink:href="#DejaVuSerif-69" x="1384.179688"/>
     <use xlink:href="#DejaVuSerif-6e" x="1416.162109"/>
     <use xlink:href="#DejaVuSerif-67" x="1480.566406"/>
     <use xlink:href="#DejaVuSerif-20" x="1544.580078"/>
     <use xlink:href="#DejaVuSerif-6e" x="1576.367188"/>
     <use xlink:href="#DejaVuSerif-6f" x="1640.771484"/>
     <use xlink:href="#DejaVuSerif-64" x="1700.976562"/>
     <use xlink:href="#DejaVuSerif-65" x="1764.990234"/>
     <use xlink:href="#DejaVuSerif-73" x="1824.169922"/>
     <use xlink:href="#DejaVuSerif-2c" x="1875.488281"/>
     <use xlink:href="#DejaVuSerif-20" x="1907.275391"/>
     <use xlink:href="#DejaVuSerif-34" x="1939.0625"/>
     <use xlink:href="#DejaVuSerif-20" x="2002.685547"/>
     <use xlink:href="#DejaVuSerif-72" x="2034.472656"/>
     <use xlink:href="#DejaVuSerif-61" x="2082.275391"/>
     <use xlink:href="#DejaVuSerif-6e" x="2141.894531"/>
     <use xlink:href="#DejaVuSerif-6b" x="2206.298828"/>
     <use xlink:href="#DejaVuSerif-73" x="2266.894531"/>
     <use xlink:href="#DejaVuSerif-20" x="2318.212891"/>
     <use xlink:href="#DejaVuSerif-70" x="2350"/>
     <use xlink:href="#DejaVuSerif-65" x="2414.013672"/>
     <use xlink:href="#DejaVuSerif-72" x="2473.193359"/>
     <use xlink:href="#DejaVuSerif-20" x="2520.996094"/>
     <use xlink:href="#DejaVuSerif-6e" x="2552.783203"/>
     <use xlink:href="#DejaVuSerif-6f" x="2617.1875"/>
     <use xlink:href="#DejaVuSerif-64" x="2677.392578"/>
     <use xlink:href="#DejaVuSerif-65" x="2741.40625"/>
    </g>
   </g>
   <g id="legend_1">
    <g id="patch_34">
     <path d="M 362.714063 89.966719 
L 605.408438 89.966719 
Q 608.708438 89.966719 608.708438 86.666719 
L 608.708438 38.427188 
Q 608.708438 35.127187 605.408438 35.127187 
L 362.714063 35.127187 
Q 359.414062 35.127187 359.414062 38.427188 
L 359.414062 86.666719 
Q 359.414062 89.966719 362.714063 89.966719 
z
" style="fill: #ffffff; stroke: #cccccc; stroke-linejoin: miter"/>
    </g>
    <g id="text_24">
     <!-- CPU cores per rank -->
     <g style="fill: #262626" transform="translate(394.097813 55.404375) scale(0.18 -0.18)">
      <defs>
       <path id="DejaVuSerif-50" d="M 1581 2375 
L 2406 2375 
Q 2872 2375 3115 2626 
Q 3359 2878 3359 3353 
Q 3359 3831 3115 4081 
Q 2872 4331 2406 4331 
L 1581 4331 
L 1581 2375 
z
M 353 0 
L 353 331 
L 947 331 
L 947 4331 
L 353 4331 
L 353 4666 
L 2559 4666 
Q 3259 4666 3668 4311 
Q 4078 3956 4078 3353 
Q 4078 2753 3668 2397 
Q 3259 2041 2559 2041 
L 1581 2041 
L 1581 331 
L 2303 331 
L 2303 0 
L 353 0 
z
" transform="scale(0.015625)"/>
       <path id="DejaVuSerif-55" d="M 897 4331 
L 300 4331 
L 300 4666 
L 2125 4666 
L 2125 4331 
L 1528 4331 
L 1528 1919 
Q 1528 1025 1820 672 
Q 2113 319 2828 319 
Q 3544 319 3836 672 
Q 4128 1025 4128 1919 
L 4128 4331 
L 3531 4331 
L 3531 4666 
L 5106 4666 
L 5106 4331 
L 4513 4331 
L 4513 1856 
Q 4513 791 4103 350 
Q 3694 -91 2713 -91 
Q 1731 -91 1314 353 
Q 897 797 897 1856 
L 897 4331 
z
" transform="scale(0.015625)"/>
      </defs>
      <use xlink:href="#DejaVuSerif-43"/>
      <use xlink:href="#DejaVuSerif-50" x="76.513672"/>
      <use xlink:href="#DejaVuSerif-55" x="142.048828"/>
      <use xlink:href="#DejaVuSerif-20" x="226.326172"/>
      <use xlink:href="#DejaVuSerif-63" x="258.113281"/>
      <use xlink:href="#DejaVuSerif-6f" x="314.119141"/>
      <use xlink:href="#DejaVuSerif-72" x="374.324219"/>
      <use xlink:href="#DejaVuSerif-65" x="422.126953"/>
      <use xlink:href="#DejaVuSerif-73" x="481.306641"/>
      <use xlink:href="#DejaVuSerif-20" x="532.625"/>
      <use xlink:href="#DejaVuSerif-70" x="564.412109"/>
      <use xlink:href="#DejaVuSerif-65" x="628.425781"/>
      <use xlink:href="#DejaVuSerif-72" x="687.605469"/>
      <use xlink:href="#DejaVuSerif-20" x="735.408203"/>
      <use xlink:href="#DejaVuSerif-72" x="767.195312"/>
      <use xlink:href="#DejaVuSerif-61" x="814.998047"/>
      <use xlink:href="#DejaVuSerif-6e" x="874.617188"/>
      <use xlink:href="#DejaVuSerif-6b" x="939.021484"/>
     </g>
    </g>
    <g id="patch_35">
     <path d="M 366.014063 79.935234 
L 399.014063 79.935234 
L 399.014063 68.385234 
L 366.014063 68.385234 
z
" style="fill: #7798ec; stroke: #ffffff; stroke-linejoin: miter"/>
    </g>
    <g id="text_25">
     <!-- 1 -->
     <g style="fill: #262626" transform="translate(412.214063 79.935234) scale(0.165 -0.165)">
      <use xlink:href="#DejaVuSerif-31"/>
     </g>
    </g>
    <g id="patch_36">
     <path d="M 455.712188 79.935234 
L 488.712188 79.935234 
L 488.712188 68.385234 
L 455.712188 68.385234 
z
" style="fill: #8470de; stroke: #ffffff; stroke-linejoin: miter"/>
    </g>
    <g id="text_26">
     <!-- 2 -->
     <g style="fill: #262626" transform="translate(501.912188 79.935234) scale(0.165 -0.165)">
      <use xlink:href="#DejaVuSerif-32"/>
     </g>
    </g>
    <g id="patch_37">
     <path d="M 545.410313 79.935234 
L 578.410313 79.935234 
L 578.410313 68.385234 
L 545.410313 68.385234 
z
" style="fill: #c53d7f; stroke: #ffffff; stroke-linejoin: miter"/>
    </g>
    <g id="text_27">
     <!-- 4 -->
     <g style="fill: #262626" transform="translate(591.610313 79.935234) scale(0.165 -0.165)">
      <use xlink:href="#DejaVuSerif-34"/>
     </g>
    </g>
   </g>
  </g>
 </g>
 <defs>
  <clipPath id="p86d9f1e69a">
   <rect x="66.870938" y="26.877187" width="550.0875" height="204.972"/>
  </clipPath>
 </defs>
</svg>
