<?xml version="1.0" encoding="utf-8" standalone="no"?>
<!DOCTYPE svg PUBLIC "-//W3C//DTD SVG 1.1//EN"
  "http://www.w3.org/Graphics/SVG/1.1/DTD/svg11.dtd">
<svg xmlns:xlink="http://www.w3.org/1999/xlink" width="542.585pt" height="134.464375pt" viewBox="0 0 542.585 134.464375" xmlns="http://www.w3.org/2000/svg" version="1.1">
 <metadata>
  <rdf:RDF xmlns:dc="http://purl.org/dc/elements/1.1/" xmlns:cc="http://creativecommons.org/ns#" xmlns:rdf="http://www.w3.org/1999/02/22-rdf-syntax-ns#">
   <cc:Work>
    <dc:type rdf:resource="http://purl.org/dc/dcmitype/StillImage"/>
    <dc:date>2025-03-16T12:25:25.132882</dc:date>
    <dc:format>image/svg+xml</dc:format>
    <dc:creator>
     <cc:Agent>
      <dc:title>Matplotlib v3.9.2, https://matplotlib.org/</dc:title>
     </cc:Agent>
    </dc:creator>
   </cc:Work>
  </rdf:RDF>
 </metadata>
 <defs>
  <style type="text/css">*{stroke-linejoin: round; stroke-linecap: butt}</style>
 </defs>
 <g id="figure_1">
  <g id="patch_1">
   <path d="M 0 134.464375 
L 542.585 134.464375 
L 542.585 0 
L 0 0 
z
" style="fill: #ffffff"/>
  </g>
  <g id="axes_1">
   <g id="patch_2">
    <path d="M 33.185 87.73 
L 535.385 87.73 
L 535.385 25.36 
L 33.185 25.36 
z
" style="fill: #ffffff"/>
   </g>
   <g id="matplotlib.axis_1">
    <g id="xtick_1">
     <g id="line2d_1">
      <defs>
       <path id="m7360eaeb80" d="M 0 0 
L 0 3 
" style="stroke: #262626; stroke-width: 0.8"/>
      </defs>
      <g>
       <use xlink:href="#m7360eaeb80" x="33.185" y="87.73" style="fill: #262626; stroke: #262626; stroke-width: 0.8"/>
      </g>
     </g>
     <g id="text_1">
      <!-- 0 -->
      <g style="fill: #262626" transform="translate(28.73125 104.867812) scale(0.14 -0.14)">
       <defs>
        <path id="DejaVuSerif-30" d="M 2034 219 
Q 2513 219 2750 744 
Q 2988 1269 2988 2328 
Q 2988 3391 2750 3916 
Q 2513 4441 2034 4441 
Q 1556 4441 1318 3916 
Q 1081 3391 1081 2328 
Q 1081 1269 1318 744 
Q 1556 219 2034 219 
z
M 2034 -91 
Q 1275 -91 848 546 
Q 422 1184 422 2328 
Q 422 3475 848 4112 
Q 1275 4750 2034 4750 
Q 2797 4750 3222 4112 
Q 3647 3475 3647 2328 
Q 3647 1184 3222 546 
Q 2797 -91 2034 -91 
z
" transform="scale(0.015625)"/>
       </defs>
       <use xlink:href="#DejaVuSerif-30"/>
      </g>
     </g>
    </g>
    <g id="xtick_2">
     <g id="line2d_2">
      <g>
       <use xlink:href="#m7360eaeb80" x="92.267353" y="87.73" style="fill: #262626; stroke: #262626; stroke-width: 0.8"/>
      </g>
     </g>
     <g id="text_2">
      <!-- 20 -->
      <g style="fill: #262626" transform="translate(83.359853 104.867812) scale(0.14 -0.14)">
       <defs>
        <path id="DejaVuSerif-32" d="M 819 3553 
L 469 3553 
L 469 4384 
Q 803 4563 1142 4656 
Q 1481 4750 1806 4750 
Q 2534 4750 2956 4397 
Q 3378 4044 3378 3438 
Q 3378 2753 2422 1800 
Q 2347 1728 2309 1691 
L 1131 513 
L 3078 513 
L 3078 1088 
L 3444 1088 
L 3444 0 
L 434 0 
L 434 341 
L 1850 1753 
Q 2319 2222 2519 2614 
Q 2719 3006 2719 3438 
Q 2719 3909 2473 4175 
Q 2228 4441 1797 4441 
Q 1350 4441 1106 4219 
Q 863 3997 819 3553 
z
" transform="scale(0.015625)"/>
       </defs>
       <use xlink:href="#DejaVuSerif-32"/>
       <use xlink:href="#DejaVuSerif-30" x="63.623047"/>
      </g>
     </g>
    </g>
    <g id="xtick_3">
     <g id="line2d_3">
      <g>
       <use xlink:href="#m7360eaeb80" x="151.349706" y="87.73" style="fill: #262626; stroke: #262626; stroke-width: 0.8"/>
      </g>
     </g>
     <g id="text_3">
      <!-- 40 -->
      <g style="fill: #262626" transform="translate(142.442206 104.867812) scale(0.14 -0.14)">
       <defs>
        <path id="DejaVuSerif-34" d="M 2234 1581 
L 2234 4063 
L 641 1581 
L 2234 1581 
z
M 3609 0 
L 1484 0 
L 1484 331 
L 2234 331 
L 2234 1247 
L 197 1247 
L 197 1588 
L 2241 4750 
L 2859 4750 
L 2859 1581 
L 3750 1581 
L 3750 1247 
L 2859 1247 
L 2859 331 
L 3609 331 
L 3609 0 
z
" transform="scale(0.015625)"/>
       </defs>
       <use xlink:href="#DejaVuSerif-34"/>
       <use xlink:href="#DejaVuSerif-30" x="63.623047"/>
      </g>
     </g>
    </g>
    <g id="xtick_4">
     <g id="line2d_4">
      <g>
       <use xlink:href="#m7360eaeb80" x="210.432059" y="87.73" style="fill: #262626; stroke: #262626; stroke-width: 0.8"/>
      </g>
     </g>
     <g id="text_4">
      <!-- 60 -->
      <g style="fill: #262626" transform="translate(201.524559 104.867812) scale(0.14 -0.14)">
       <defs>
        <path id="DejaVuSerif-36" d="M 2094 219 
Q 2534 219 2771 542 
Q 3009 866 3009 1472 
Q 3009 2078 2771 2401 
Q 2534 2725 2094 2725 
Q 1647 2725 1412 2412 
Q 1178 2100 1178 1509 
Q 1178 888 1415 553 
Q 1653 219 2094 219 
z
M 1075 2569 
Q 1288 2803 1556 2918 
Q 1825 3034 2163 3034 
Q 2859 3034 3264 2615 
Q 3669 2197 3669 1472 
Q 3669 763 3233 336 
Q 2797 -91 2069 -91 
Q 1278 -91 853 498 
Q 428 1088 428 2181 
Q 428 3406 931 4078 
Q 1434 4750 2350 4750 
Q 2597 4750 2869 4703 
Q 3141 4656 3425 4563 
L 3425 3794 
L 3072 3794 
Q 3034 4109 2831 4275 
Q 2628 4441 2284 4441 
Q 1678 4441 1381 3981 
Q 1084 3522 1075 2569 
z
" transform="scale(0.015625)"/>
       </defs>
       <use xlink:href="#DejaVuSerif-36"/>
       <use xlink:href="#DejaVuSerif-30" x="63.623047"/>
      </g>
     </g>
    </g>
    <g id="xtick_5">
     <g id="line2d_5">
      <g>
       <use xlink:href="#m7360eaeb80" x="269.514412" y="87.73" style="fill: #262626; stroke: #262626; stroke-width: 0.8"/>
      </g>
     </g>
     <g id="text_5">
      <!-- 80 -->
      <g style="fill: #262626" transform="translate(260.606912 104.867812) scale(0.14 -0.14)">
       <defs>
        <path id="DejaVuSerif-38" d="M 2981 1275 
Q 2981 1775 2732 2051 
Q 2484 2328 2034 2328 
Q 1584 2328 1336 2051 
Q 1088 1775 1088 1275 
Q 1088 772 1336 495 
Q 1584 219 2034 219 
Q 2484 219 2732 495 
Q 2981 772 2981 1275 
z
M 2853 3541 
Q 2853 3966 2637 4203 
Q 2422 4441 2034 4441 
Q 1650 4441 1433 4203 
Q 1216 3966 1216 3541 
Q 1216 3113 1433 2875 
Q 1650 2638 2034 2638 
Q 2422 2638 2637 2875 
Q 2853 3113 2853 3541 
z
M 2516 2484 
Q 3047 2413 3344 2092 
Q 3641 1772 3641 1275 
Q 3641 619 3225 264 
Q 2809 -91 2034 -91 
Q 1263 -91 845 264 
Q 428 619 428 1275 
Q 428 1772 725 2092 
Q 1022 2413 1556 2484 
Q 1084 2569 832 2842 
Q 581 3116 581 3541 
Q 581 4103 968 4426 
Q 1356 4750 2034 4750 
Q 2713 4750 3100 4426 
Q 3488 4103 3488 3541 
Q 3488 3116 3236 2842 
Q 2984 2569 2516 2484 
z
" transform="scale(0.015625)"/>
       </defs>
       <use xlink:href="#DejaVuSerif-38"/>
       <use xlink:href="#DejaVuSerif-30" x="63.623047"/>
      </g>
     </g>
    </g>
    <g id="xtick_6">
     <g id="line2d_6">
      <g>
       <use xlink:href="#m7360eaeb80" x="328.596765" y="87.73" style="fill: #262626; stroke: #262626; stroke-width: 0.8"/>
      </g>
     </g>
     <g id="text_6">
      <!-- 100 -->
      <g style="fill: #262626" transform="translate(315.235515 104.867812) scale(0.14 -0.14)">
       <defs>
        <path id="DejaVuSerif-31" d="M 909 0 
L 909 331 
L 1722 331 
L 1722 4213 
L 781 3603 
L 781 4013 
L 1919 4750 
L 2350 4750 
L 2350 331 
L 3163 331 
L 3163 0 
L 909 0 
z
" transform="scale(0.015625)"/>
       </defs>
       <use xlink:href="#DejaVuSerif-31"/>
       <use xlink:href="#DejaVuSerif-30" x="63.623047"/>
       <use xlink:href="#DejaVuSerif-30" x="127.246094"/>
      </g>
     </g>
    </g>
    <g id="xtick_7">
     <g id="line2d_7">
      <g>
       <use xlink:href="#m7360eaeb80" x="387.679118" y="87.73" style="fill: #262626; stroke: #262626; stroke-width: 0.8"/>
      </g>
     </g>
     <g id="text_7">
      <!-- 120 -->
      <g style="fill: #262626" transform="translate(374.317868 104.867812) scale(0.14 -0.14)">
       <use xlink:href="#DejaVuSerif-31"/>
       <use xlink:href="#DejaVuSerif-32" x="63.623047"/>
       <use xlink:href="#DejaVuSerif-30" x="127.246094"/>
      </g>
     </g>
    </g>
    <g id="xtick_8">
     <g id="line2d_8">
      <g>
       <use xlink:href="#m7360eaeb80" x="446.761471" y="87.73" style="fill: #262626; stroke: #262626; stroke-width: 0.8"/>
      </g>
     </g>
     <g id="text_8">
      <!-- 140 -->
      <g style="fill: #262626" transform="translate(433.400221 104.867812) scale(0.14 -0.14)">
       <use xlink:href="#DejaVuSerif-31"/>
       <use xlink:href="#DejaVuSerif-34" x="63.623047"/>
       <use xlink:href="#DejaVuSerif-30" x="127.246094"/>
      </g>
     </g>
    </g>
    <g id="xtick_9">
     <g id="line2d_9">
      <g>
       <use xlink:href="#m7360eaeb80" x="505.843824" y="87.73" style="fill: #262626; stroke: #262626; stroke-width: 0.8"/>
      </g>
     </g>
     <g id="text_9">
      <!-- 160 -->
      <g style="fill: #262626" transform="translate(492.482574 104.867812) scale(0.14 -0.14)">
       <use xlink:href="#DejaVuSerif-31"/>
       <use xlink:href="#DejaVuSerif-36" x="63.623047"/>
       <use xlink:href="#DejaVuSerif-30" x="127.246094"/>
      </g>
     </g>
    </g>
    <g id="text_10">
     <!-- Execution time (s) -->
     <g style="fill: #262626" transform="translate(210.29625 123.936875) scale(0.16 -0.16)">
      <defs>
       <path id="DejaVuSerif-45" d="M 353 0 
L 353 331 
L 947 331 
L 947 4331 
L 353 4331 
L 353 4666 
L 4109 4666 
L 4109 3628 
L 3725 3628 
L 3725 4281 
L 1581 4281 
L 1581 2719 
L 3109 2719 
L 3109 3303 
L 3494 3303 
L 3494 1753 
L 3109 1753 
L 3109 2338 
L 1581 2338 
L 1581 384 
L 3775 384 
L 3775 1038 
L 4159 1038 
L 4159 0 
L 353 0 
z
" transform="scale(0.015625)"/>
       <path id="DejaVuSerif-78" d="M 1863 2028 
L 2559 2988 
L 2113 2988 
L 2113 3322 
L 3391 3322 
L 3391 2988 
L 2950 2988 
L 2059 1759 
L 3097 331 
L 3531 331 
L 3531 0 
L 1997 0 
L 1997 331 
L 2419 331 
L 1697 1325 
L 972 331 
L 1403 331 
L 1403 0 
L 141 0 
L 141 331 
L 581 331 
L 1497 1594 
L 488 2988 
L 78 2988 
L 78 3322 
L 1563 3322 
L 1563 2988 
L 1166 2988 
L 1863 2028 
z
" transform="scale(0.015625)"/>
       <path id="DejaVuSerif-65" d="M 3469 1600 
L 991 1600 
L 991 1575 
Q 991 903 1244 561 
Q 1497 219 1991 219 
Q 2369 219 2611 417 
Q 2853 616 2950 1006 
L 3413 1006 
Q 3275 459 2904 184 
Q 2534 -91 1931 -91 
Q 1203 -91 761 389 
Q 319 869 319 1663 
Q 319 2450 753 2931 
Q 1188 3413 1894 3413 
Q 2647 3413 3050 2948 
Q 3453 2484 3469 1600 
z
M 2791 1931 
Q 2772 2513 2545 2808 
Q 2319 3103 1894 3103 
Q 1497 3103 1269 2806 
Q 1041 2509 991 1931 
L 2791 1931 
z
" transform="scale(0.015625)"/>
       <path id="DejaVuSerif-63" d="M 3291 997 
Q 3169 466 2822 187 
Q 2475 -91 1925 -91 
Q 1200 -91 759 389 
Q 319 869 319 1663 
Q 319 2459 759 2936 
Q 1200 3413 1925 3413 
Q 2241 3413 2553 3339 
Q 2866 3266 3181 3116 
L 3181 2266 
L 2847 2266 
Q 2781 2703 2561 2903 
Q 2341 3103 1931 3103 
Q 1466 3103 1228 2742 
Q 991 2381 991 1663 
Q 991 944 1227 581 
Q 1463 219 1931 219 
Q 2303 219 2525 412 
Q 2747 606 2828 997 
L 3291 997 
z
" transform="scale(0.015625)"/>
       <path id="DejaVuSerif-75" d="M 2266 3322 
L 3341 3322 
L 3341 331 
L 3884 331 
L 3884 0 
L 2766 0 
L 2766 588 
Q 2606 256 2353 82 
Q 2100 -91 1766 -91 
Q 1213 -91 952 223 
Q 691 538 691 1209 
L 691 2988 
L 172 2988 
L 172 3322 
L 1269 3322 
L 1269 1388 
Q 1269 781 1417 556 
Q 1566 331 1947 331 
Q 2347 331 2556 625 
Q 2766 919 2766 1478 
L 2766 2988 
L 2266 2988 
L 2266 3322 
z
" transform="scale(0.015625)"/>
       <path id="DejaVuSerif-74" d="M 691 2988 
L 184 2988 
L 184 3322 
L 691 3322 
L 691 4353 
L 1269 4353 
L 1269 3322 
L 2350 3322 
L 2350 2988 
L 1269 2988 
L 1269 878 
Q 1269 456 1350 337 
Q 1431 219 1650 219 
Q 1875 219 1978 351 
Q 2081 484 2088 781 
L 2522 781 
Q 2497 328 2275 118 
Q 2053 -91 1600 -91 
Q 1103 -91 897 129 
Q 691 350 691 878 
L 691 2988 
z
" transform="scale(0.015625)"/>
       <path id="DejaVuSerif-69" d="M 622 4353 
Q 622 4497 726 4603 
Q 831 4709 978 4709 
Q 1122 4709 1226 4603 
Q 1331 4497 1331 4353 
Q 1331 4206 1228 4103 
Q 1125 4000 978 4000 
Q 831 4000 726 4103 
Q 622 4206 622 4353 
z
M 1356 331 
L 1900 331 
L 1900 0 
L 231 0 
L 231 331 
L 781 331 
L 781 2988 
L 231 2988 
L 231 3322 
L 1356 3322 
L 1356 331 
z
" transform="scale(0.015625)"/>
       <path id="DejaVuSerif-6f" d="M 1925 219 
Q 2388 219 2623 584 
Q 2859 950 2859 1663 
Q 2859 2375 2623 2739 
Q 2388 3103 1925 3103 
Q 1463 3103 1227 2739 
Q 991 2375 991 1663 
Q 991 950 1228 584 
Q 1466 219 1925 219 
z
M 1925 -91 
Q 1200 -91 759 389 
Q 319 869 319 1663 
Q 319 2456 758 2934 
Q 1197 3413 1925 3413 
Q 2653 3413 3092 2934 
Q 3531 2456 3531 1663 
Q 3531 869 3092 389 
Q 2653 -91 1925 -91 
z
" transform="scale(0.015625)"/>
       <path id="DejaVuSerif-6e" d="M 263 0 
L 263 331 
L 781 331 
L 781 2988 
L 231 2988 
L 231 3322 
L 1356 3322 
L 1356 2731 
Q 1516 3069 1770 3241 
Q 2025 3413 2363 3413 
Q 2913 3413 3172 3097 
Q 3431 2781 3431 2113 
L 3431 331 
L 3944 331 
L 3944 0 
L 2356 0 
L 2356 331 
L 2853 331 
L 2853 1931 
Q 2853 2541 2703 2767 
Q 2553 2994 2175 2994 
Q 1775 2994 1565 2701 
Q 1356 2409 1356 1850 
L 1356 331 
L 1856 331 
L 1856 0 
L 263 0 
z
" transform="scale(0.015625)"/>
       <path id="DejaVuSerif-20" transform="scale(0.015625)"/>
       <path id="DejaVuSerif-6d" d="M 3316 2675 
Q 3481 3041 3739 3227 
Q 3997 3413 4341 3413 
Q 4863 3413 5119 3089 
Q 5375 2766 5375 2113 
L 5375 331 
L 5894 331 
L 5894 0 
L 4300 0 
L 4300 331 
L 4800 331 
L 4800 2047 
Q 4800 2556 4650 2772 
Q 4500 2988 4153 2988 
Q 3769 2988 3567 2697 
Q 3366 2406 3366 1850 
L 3366 331 
L 3866 331 
L 3866 0 
L 2291 0 
L 2291 331 
L 2791 331 
L 2791 2069 
Q 2791 2566 2641 2777 
Q 2491 2988 2144 2988 
Q 1759 2988 1557 2697 
Q 1356 2406 1356 1850 
L 1356 331 
L 1856 331 
L 1856 0 
L 263 0 
L 263 331 
L 781 331 
L 781 2994 
L 231 2994 
L 231 3322 
L 1356 3322 
L 1356 2731 
Q 1516 3063 1762 3238 
Q 2009 3413 2322 3413 
Q 2709 3413 2968 3220 
Q 3228 3028 3316 2675 
z
" transform="scale(0.015625)"/>
       <path id="DejaVuSerif-28" d="M 2041 -997 
Q 1281 -656 893 83 
Q 506 822 506 1931 
Q 506 3044 893 3783 
Q 1281 4522 2041 4863 
L 2041 4556 
Q 1559 4225 1350 3623 
Q 1141 3022 1141 1931 
Q 1141 844 1350 242 
Q 1559 -359 2041 -691 
L 2041 -997 
z
" transform="scale(0.015625)"/>
       <path id="DejaVuSerif-73" d="M 359 184 
L 359 959 
L 691 959 
Q 703 588 923 403 
Q 1144 219 1575 219 
Q 1963 219 2166 364 
Q 2369 509 2369 788 
Q 2369 1006 2220 1140 
Q 2072 1275 1594 1428 
L 1178 1569 
Q 750 1706 558 1912 
Q 366 2119 366 2438 
Q 366 2894 700 3153 
Q 1034 3413 1625 3413 
Q 1888 3413 2178 3344 
Q 2469 3275 2778 3144 
L 2778 2419 
L 2447 2419 
Q 2434 2741 2221 2922 
Q 2009 3103 1644 3103 
Q 1281 3103 1095 2975 
Q 909 2847 909 2591 
Q 909 2381 1050 2254 
Q 1191 2128 1613 1997 
L 2069 1856 
Q 2541 1709 2748 1489 
Q 2956 1269 2956 922 
Q 2956 450 2595 179 
Q 2234 -91 1600 -91 
Q 1278 -91 972 -22 
Q 666 47 359 184 
z
" transform="scale(0.015625)"/>
       <path id="DejaVuSerif-29" d="M 453 -997 
L 453 -691 
Q 934 -359 1145 242 
Q 1356 844 1356 1931 
Q 1356 3022 1145 3623 
Q 934 4225 453 4556 
L 453 4863 
Q 1216 4522 1603 3783 
Q 1991 3044 1991 1931 
Q 1991 822 1603 83 
Q 1216 -656 453 -997 
z
" transform="scale(0.015625)"/>
      </defs>
      <use xlink:href="#DejaVuSerif-45"/>
      <use xlink:href="#DejaVuSerif-78" x="72.998047"/>
      <use xlink:href="#DejaVuSerif-65" x="129.394531"/>
      <use xlink:href="#DejaVuSerif-63" x="188.574219"/>
      <use xlink:href="#DejaVuSerif-75" x="244.580078"/>
      <use xlink:href="#DejaVuSerif-74" x="308.984375"/>
      <use xlink:href="#DejaVuSerif-69" x="349.169922"/>
      <use xlink:href="#DejaVuSerif-6f" x="381.152344"/>
      <use xlink:href="#DejaVuSerif-6e" x="441.357422"/>
      <use xlink:href="#DejaVuSerif-20" x="505.761719"/>
      <use xlink:href="#DejaVuSerif-74" x="537.548828"/>
      <use xlink:href="#DejaVuSerif-69" x="577.734375"/>
      <use xlink:href="#DejaVuSerif-6d" x="609.716797"/>
      <use xlink:href="#DejaVuSerif-65" x="704.541016"/>
      <use xlink:href="#DejaVuSerif-20" x="763.720703"/>
      <use xlink:href="#DejaVuSerif-28" x="795.507812"/>
      <use xlink:href="#DejaVuSerif-73" x="834.521484"/>
      <use xlink:href="#DejaVuSerif-29" x="885.839844"/>
     </g>
    </g>
   </g>
   <g id="matplotlib.axis_2">
    <g id="ytick_1">
     <g id="line2d_10">
      <path d="M 33.185 56.545 
L 535.385 56.545 
" clip-path="url(#pbc0623ca2d)" style="fill: none; stroke: #808080; stroke-opacity: 0.5; stroke-width: 0.5; stroke-linecap: round"/>
     </g>
     <g id="line2d_11">
      <defs>
       <path id="m4bcd2537ca" d="M 0 0 
L -3 0 
" style="stroke: #262626; stroke-width: 0.8"/>
      </defs>
      <g>
       <use xlink:href="#m4bcd2537ca" x="33.185" y="56.545" style="fill: #262626; stroke: #262626; stroke-width: 0.8"/>
      </g>
     </g>
    </g>
    <g id="text_11">
     <!-- Main process -->
     <g style="fill: #262626" transform="translate(19.3575 110.94625) rotate(-90) scale(0.16 -0.16)">
      <defs>
       <path id="DejaVuSerif-4d" d="M 353 0 
L 353 331 
L 947 331 
L 947 4331 
L 319 4331 
L 319 4666 
L 1678 4666 
L 3316 1344 
L 4953 4666 
L 6228 4666 
L 6228 4331 
L 5606 4331 
L 5606 331 
L 6203 331 
L 6203 0 
L 4378 0 
L 4378 331 
L 4972 331 
L 4972 3938 
L 3372 684 
L 2931 684 
L 1331 3938 
L 1331 331 
L 1925 331 
L 1925 0 
L 353 0 
z
" transform="scale(0.015625)"/>
       <path id="DejaVuSerif-61" d="M 2547 1044 
L 2547 1747 
L 1806 1747 
Q 1378 1747 1168 1562 
Q 959 1378 959 997 
Q 959 650 1171 447 
Q 1384 244 1747 244 
Q 2106 244 2326 466 
Q 2547 688 2547 1044 
z
M 3122 2075 
L 3122 331 
L 3634 331 
L 3634 0 
L 2547 0 
L 2547 359 
Q 2356 128 2106 18 
Q 1856 -91 1522 -91 
Q 969 -91 644 203 
Q 319 497 319 997 
Q 319 1513 691 1797 
Q 1063 2081 1741 2081 
L 2547 2081 
L 2547 2309 
Q 2547 2688 2317 2895 
Q 2088 3103 1672 3103 
Q 1328 3103 1125 2947 
Q 922 2791 872 2484 
L 575 2484 
L 575 3156 
Q 875 3284 1158 3348 
Q 1441 3413 1709 3413 
Q 2400 3413 2761 3070 
Q 3122 2728 3122 2075 
z
" transform="scale(0.015625)"/>
       <path id="DejaVuSerif-70" d="M 1313 1825 
L 1313 1497 
Q 1313 897 1542 583 
Q 1772 269 2209 269 
Q 2650 269 2876 622 
Q 3103 975 3103 1663 
Q 3103 2353 2876 2703 
Q 2650 3053 2209 3053 
Q 1772 3053 1542 2737 
Q 1313 2422 1313 1825 
z
M 738 2988 
L 184 2988 
L 184 3322 
L 1313 3322 
L 1313 2803 
Q 1481 3116 1742 3264 
Q 2003 3413 2388 3413 
Q 3000 3413 3387 2928 
Q 3775 2444 3775 1663 
Q 3775 881 3387 395 
Q 3000 -91 2388 -91 
Q 2003 -91 1742 57 
Q 1481 206 1313 519 
L 1313 -997 
L 1856 -997 
L 1856 -1331 
L 184 -1331 
L 184 -997 
L 738 -997 
L 738 2988 
z
" transform="scale(0.015625)"/>
       <path id="DejaVuSerif-72" d="M 3059 3328 
L 3059 2497 
L 2728 2497 
Q 2713 2744 2591 2866 
Q 2469 2988 2234 2988 
Q 1809 2988 1582 2694 
Q 1356 2400 1356 1850 
L 1356 331 
L 2022 331 
L 2022 0 
L 263 0 
L 263 331 
L 781 331 
L 781 2994 
L 231 2994 
L 231 3322 
L 1356 3322 
L 1356 2731 
Q 1525 3078 1790 3245 
Q 2056 3413 2438 3413 
Q 2578 3413 2733 3391 
Q 2888 3369 3059 3328 
z
" transform="scale(0.015625)"/>
      </defs>
      <use xlink:href="#DejaVuSerif-4d"/>
      <use xlink:href="#DejaVuSerif-61" x="102.392578"/>
      <use xlink:href="#DejaVuSerif-69" x="162.011719"/>
      <use xlink:href="#DejaVuSerif-6e" x="193.994141"/>
      <use xlink:href="#DejaVuSerif-20" x="258.398438"/>
      <use xlink:href="#DejaVuSerif-70" x="290.185547"/>
      <use xlink:href="#DejaVuSerif-72" x="354.199219"/>
      <use xlink:href="#DejaVuSerif-6f" x="402.001953"/>
      <use xlink:href="#DejaVuSerif-63" x="462.207031"/>
      <use xlink:href="#DejaVuSerif-65" x="518.212891"/>
      <use xlink:href="#DejaVuSerif-73" x="577.392578"/>
      <use xlink:href="#DejaVuSerif-73" x="628.710938"/>
     </g>
    </g>
   </g>
   <g id="patch_3">
    <path d="M 34.071235 67.45975 
L 168.922211 67.45975 
L 168.922211 45.63025 
L 34.071235 45.63025 
z
" clip-path="url(#pbc0623ca2d)" style="fill: #696969; stroke: #ffffff; stroke-linejoin: miter"/>
   </g>
   <g id="patch_4">
    <path d="M 168.035975 67.45975 
L 437.817397 67.45975 
L 437.817397 45.63025 
L 168.035975 45.63025 
z
" clip-path="url(#pbc0623ca2d)" style="fill: #648fff; stroke: #ffffff; stroke-linejoin: miter"/>
   </g>
   <g id="patch_5">
    <path d="M 437.817397 67.45975 
L 456.896697 67.45975 
L 456.896697 45.63025 
L 437.817397 45.63025 
z
" clip-path="url(#pbc0623ca2d)" style="fill: #e55c9f; stroke: #ffffff; stroke-linejoin: miter"/>
   </g>
   <g id="patch_6">
    <path d="M 456.896697 67.45975 
L 470.183691 67.45975 
L 470.183691 45.63025 
L 456.896697 45.63025 
z
" clip-path="url(#pbc0623ca2d)" style="fill: #785ef0; stroke: #ffffff; stroke-linejoin: miter"/>
   </g>
   <g id="patch_7">
    <path d="M 470.183691 67.45975 
L 479.148076 67.45975 
L 479.148076 45.63025 
L 470.183691 45.63025 
z
" clip-path="url(#pbc0623ca2d)" style="fill: #a9a9a9; stroke: #ffffff; stroke-linejoin: miter"/>
   </g>
   <g id="patch_8">
    <path d="M 479.148076 67.45975 
L 482.102194 67.45975 
L 482.102194 45.63025 
L 479.148076 45.63025 
z
" clip-path="url(#pbc0623ca2d)" style="fill: #dc267f; stroke: #ffffff; stroke-linejoin: miter"/>
   </g>
   <g id="patch_9">
    <path d="M 482.102194 67.45975 
L 502.788539 67.45975 
L 502.788539 45.63025 
L 482.102194 45.63025 
z
" clip-path="url(#pbc0623ca2d)" style="fill: #ffc440; stroke: #ffffff; stroke-linejoin: miter"/>
   </g>
   <g id="patch_10">
    <path d="M 502.788539 67.45975 
L 519.316846 67.45975 
L 519.316846 45.63025 
L 502.788539 45.63025 
z
" clip-path="url(#pbc0623ca2d)" style="fill: #fe6100; stroke: #ffffff; stroke-linejoin: miter"/>
   </g>
   <g id="patch_11">
    <path d="M 458.873353 81.960775 
L 466.554059 81.960775 
L 466.554059 -105.149225 
L 458.873353 -105.149225 
z
" clip-path="url(#pbc0623ca2d)" style="fill: #ffffff"/>
   </g>
   <g id="line2d_12">
    <path d="M 459.759588 66.368275 
L 465.667824 66.368275 
" clip-path="url(#pbc0623ca2d)" style="fill: none; stroke: #785ef0; stroke-width: 1.5"/>
   </g>
   <g id="line2d_13">
    <path d="M 459.759588 63.561625 
L 465.667824 63.561625 
" clip-path="url(#pbc0623ca2d)" style="fill: none; stroke: #785ef0; stroke-width: 1.5"/>
   </g>
   <g id="line2d_14">
    <path d="M 459.759588 60.754975 
L 465.667824 60.754975 
" clip-path="url(#pbc0623ca2d)" style="fill: none; stroke: #785ef0; stroke-width: 1.5"/>
   </g>
   <g id="line2d_15">
    <path d="M 459.759588 57.948325 
L 465.667824 57.948325 
" clip-path="url(#pbc0623ca2d)" style="fill: none; stroke: #785ef0; stroke-width: 1.5"/>
   </g>
   <g id="line2d_16">
    <path d="M 459.759588 55.141675 
L 465.667824 55.141675 
" clip-path="url(#pbc0623ca2d)" style="fill: none; stroke: #785ef0; stroke-width: 1.5"/>
   </g>
   <g id="line2d_17">
    <path d="M 459.759588 52.335025 
L 465.667824 52.335025 
" clip-path="url(#pbc0623ca2d)" style="fill: none; stroke: #785ef0; stroke-width: 1.5"/>
   </g>
   <g id="line2d_18">
    <path d="M 459.759588 49.528375 
L 465.667824 49.528375 
" clip-path="url(#pbc0623ca2d)" style="fill: none; stroke: #785ef0; stroke-width: 1.5"/>
   </g>
   <g id="line2d_19">
    <path d="M 459.759588 46.721725 
L 465.667824 46.721725 
" clip-path="url(#pbc0623ca2d)" style="fill: none; stroke: #785ef0; stroke-width: 1.5"/>
   </g>
   <g id="line2d_20">
    <path d="M 459.168765 39.39325 
L 459.168765 44.071 
" clip-path="url(#pbc0623ca2d)" style="fill: none; stroke: #000000; stroke-width: 0.85; stroke-linecap: round"/>
   </g>
   <g id="line2d_21">
    <path d="M 466.258647 39.39325 
L 466.258647 44.071 
" clip-path="url(#pbc0623ca2d)" style="fill: none; stroke: #000000; stroke-width: 0.85; stroke-linecap: round"/>
   </g>
   <g id="line2d_22">
    <path d="M 459.168765 39.39325 
L 466.258647 39.39325 
" clip-path="url(#pbc0623ca2d)" style="fill: none; stroke: #000000; stroke-width: 0.85; stroke-linecap: round"/>
   </g>
   <g id="line2d_23">
    <path d="M 462.713706 39.39325 
L 462.713706 34.7155 
" clip-path="url(#pbc0623ca2d)" style="fill: none; stroke: #000000; stroke-width: 0.85; stroke-linecap: round"/>
   </g>
   <g id="line2d_24">
    <path d="M 450.306412 34.7155 
L 462.713706 34.7155 
" clip-path="url(#pbc0623ca2d)" style="fill: none; stroke: #000000; stroke-width: 0.85; stroke-linecap: round"/>
   </g>
   <g id="line2d_25">
    <path d="M 459.168765 39.39325 
L 459.168765 44.071 
" clip-path="url(#pbc0623ca2d)" style="fill: none; stroke: #000000; stroke-width: 0.85; stroke-linecap: round"/>
   </g>
   <g id="line2d_26">
    <path d="M 466.258647 39.39325 
L 466.258647 44.071 
" clip-path="url(#pbc0623ca2d)" style="fill: none; stroke: #000000; stroke-width: 0.85; stroke-linecap: round"/>
   </g>
   <g id="line2d_27">
    <path d="M 459.168765 39.39325 
L 466.258647 39.39325 
" clip-path="url(#pbc0623ca2d)" style="fill: none; stroke: #000000; stroke-width: 0.85; stroke-linecap: round"/>
   </g>
   <g id="line2d_28">
    <path d="M 462.713706 39.39325 
L 462.713706 34.7155 
" clip-path="url(#pbc0623ca2d)" style="fill: none; stroke: #000000; stroke-width: 0.85; stroke-linecap: round"/>
   </g>
   <g id="line2d_29">
    <path d="M 450.306412 34.7155 
L 462.713706 34.7155 
" clip-path="url(#pbc0623ca2d)" style="fill: none; stroke: #000000; stroke-width: 0.85; stroke-linecap: round"/>
   </g>
   <g id="line2d_30">
    <path d="M 459.168765 39.39325 
L 459.168765 44.071 
" clip-path="url(#pbc0623ca2d)" style="fill: none; stroke: #000000; stroke-width: 0.85; stroke-linecap: round"/>
   </g>
   <g id="line2d_31">
    <path d="M 466.258647 39.39325 
L 466.258647 44.071 
" clip-path="url(#pbc0623ca2d)" style="fill: none; stroke: #000000; stroke-width: 0.85; stroke-linecap: round"/>
   </g>
   <g id="line2d_32">
    <path d="M 459.168765 39.39325 
L 466.258647 39.39325 
" clip-path="url(#pbc0623ca2d)" style="fill: none; stroke: #000000; stroke-width: 0.85; stroke-linecap: round"/>
   </g>
   <g id="line2d_33">
    <path d="M 462.713706 39.39325 
L 462.713706 34.7155 
" clip-path="url(#pbc0623ca2d)" style="fill: none; stroke: #000000; stroke-width: 0.85; stroke-linecap: round"/>
   </g>
   <g id="line2d_34">
    <path d="M 450.306412 34.7155 
L 462.713706 34.7155 
" clip-path="url(#pbc0623ca2d)" style="fill: none; stroke: #000000; stroke-width: 0.85; stroke-linecap: round"/>
   </g>
   <g id="patch_12">
    <path d="M 33.185 87.73 
L 33.185 25.36 
" style="fill: none; stroke: #262626; stroke-width: 0.8; stroke-linejoin: miter; stroke-linecap: square"/>
   </g>
   <g id="patch_13">
    <path d="M 535.385 87.73 
L 535.385 25.36 
" style="fill: none; stroke: #262626; stroke-width: 0.8; stroke-linejoin: miter; stroke-linecap: square"/>
   </g>
   <g id="patch_14">
    <path d="M 33.185 87.73 
L 535.385 87.73 
" style="fill: none; stroke: #262626; stroke-width: 0.8; stroke-linejoin: miter; stroke-linecap: square"/>
   </g>
   <g id="patch_15">
    <path d="M 33.185 25.36 
L 535.385 25.36 
" style="fill: none; stroke: #262626; stroke-width: 0.8; stroke-linejoin: miter; stroke-linecap: square"/>
   </g>
   <g id="text_12">
    <!-- MMseqs2 with 8 OpenMP threads -->
    <g transform="translate(240.571813 41.263525) scale(0.12 -0.12)">
     <defs>
      <path id="DejaVuSerif-71" d="M 3359 2988 
L 3359 -997 
L 3909 -997 
L 3909 -1331 
L 2241 -1331 
L 2241 -997 
L 2784 -997 
L 2784 519 
Q 2616 206 2355 57 
Q 2094 -91 1709 -91 
Q 1097 -91 708 395 
Q 319 881 319 1663 
Q 319 2444 706 2928 
Q 1094 3413 1709 3413 
Q 2094 3413 2355 3264 
Q 2616 3116 2784 2803 
L 2784 3322 
L 3909 3322 
L 3909 2988 
L 3359 2988 
z
M 2784 1825 
Q 2784 2422 2554 2737 
Q 2325 3053 1888 3053 
Q 1444 3053 1217 2703 
Q 991 2353 991 1663 
Q 991 975 1217 622 
Q 1444 269 1888 269 
Q 2325 269 2554 583 
Q 2784 897 2784 1497 
L 2784 1825 
z
" transform="scale(0.015625)"/>
      <path id="DejaVuSerif-77" d="M 3072 3322 
L 3922 728 
L 4672 2988 
L 4191 2988 
L 4191 3322 
L 5394 3322 
L 5394 2988 
L 5025 2988 
L 4038 0 
L 3559 0 
L 2741 2484 
L 1919 0 
L 1459 0 
L 475 2988 
L 103 2988 
L 103 3322 
L 1606 3322 
L 1606 2988 
L 1069 2988 
L 1813 728 
L 2669 3322 
L 3072 3322 
z
" transform="scale(0.015625)"/>
      <path id="DejaVuSerif-68" d="M 263 0 
L 263 331 
L 781 331 
L 781 4531 
L 231 4531 
L 231 4863 
L 1356 4863 
L 1356 2731 
Q 1516 3069 1770 3241 
Q 2025 3413 2363 3413 
Q 2913 3413 3172 3097 
Q 3431 2781 3431 2113 
L 3431 331 
L 3944 331 
L 3944 0 
L 2356 0 
L 2356 331 
L 2853 331 
L 2853 1931 
Q 2853 2541 2704 2764 
Q 2556 2988 2175 2988 
Q 1775 2988 1565 2697 
Q 1356 2406 1356 1850 
L 1356 331 
L 1856 331 
L 1856 0 
L 263 0 
z
" transform="scale(0.015625)"/>
      <path id="DejaVuSerif-4f" d="M 2625 244 
Q 3391 244 3781 770 
Q 4172 1297 4172 2328 
Q 4172 3363 3781 3889 
Q 3391 4416 2625 4416 
Q 1856 4416 1465 3889 
Q 1075 3363 1075 2328 
Q 1075 1297 1465 770 
Q 1856 244 2625 244 
z
M 2625 -91 
Q 2150 -91 1751 65 
Q 1353 222 1050 525 
Q 700 875 529 1319 
Q 359 1763 359 2328 
Q 359 2894 529 3339 
Q 700 3784 1050 4134 
Q 1356 4441 1750 4595 
Q 2144 4750 2625 4750 
Q 3641 4750 4266 4084 
Q 4891 3419 4891 2328 
Q 4891 1769 4719 1320 
Q 4547 872 4197 525 
Q 3891 219 3497 64 
Q 3103 -91 2625 -91 
z
" transform="scale(0.015625)"/>
      <path id="DejaVuSerif-50" d="M 1581 2375 
L 2406 2375 
Q 2872 2375 3115 2626 
Q 3359 2878 3359 3353 
Q 3359 3831 3115 4081 
Q 2872 4331 2406 4331 
L 1581 4331 
L 1581 2375 
z
M 353 0 
L 353 331 
L 947 331 
L 947 4331 
L 353 4331 
L 353 4666 
L 2559 4666 
Q 3259 4666 3668 4311 
Q 4078 3956 4078 3353 
Q 4078 2753 3668 2397 
Q 3259 2041 2559 2041 
L 1581 2041 
L 1581 331 
L 2303 331 
L 2303 0 
L 353 0 
z
" transform="scale(0.015625)"/>
      <path id="DejaVuSerif-64" d="M 3359 331 
L 3909 331 
L 3909 0 
L 2784 0 
L 2784 519 
Q 2616 206 2355 57 
Q 2094 -91 1709 -91 
Q 1097 -91 708 395 
Q 319 881 319 1663 
Q 319 2444 706 2928 
Q 1094 3413 1709 3413 
Q 2094 3413 2355 3264 
Q 2616 3116 2784 2803 
L 2784 4531 
L 2241 4531 
L 2241 4863 
L 3359 4863 
L 3359 331 
z
M 2784 1497 
L 2784 1825 
Q 2784 2422 2554 2737 
Q 2325 3053 1888 3053 
Q 1444 3053 1217 2703 
Q 991 2353 991 1663 
Q 991 975 1217 622 
Q 1444 269 1888 269 
Q 2325 269 2554 583 
Q 2784 897 2784 1497 
z
" transform="scale(0.015625)"/>
     </defs>
     <use xlink:href="#DejaVuSerif-4d"/>
     <use xlink:href="#DejaVuSerif-4d" x="102.392578"/>
     <use xlink:href="#DejaVuSerif-73" x="204.785156"/>
     <use xlink:href="#DejaVuSerif-65" x="256.103516"/>
     <use xlink:href="#DejaVuSerif-71" x="315.283203"/>
     <use xlink:href="#DejaVuSerif-73" x="379.296875"/>
     <use xlink:href="#DejaVuSerif-32" x="430.615234"/>
     <use xlink:href="#DejaVuSerif-20" x="494.238281"/>
     <use xlink:href="#DejaVuSerif-77" x="526.025391"/>
     <use xlink:href="#DejaVuSerif-69" x="611.621094"/>
     <use xlink:href="#DejaVuSerif-74" x="643.603516"/>
     <use xlink:href="#DejaVuSerif-68" x="683.789062"/>
     <use xlink:href="#DejaVuSerif-20" x="748.193359"/>
     <use xlink:href="#DejaVuSerif-38" x="779.980469"/>
     <use xlink:href="#DejaVuSerif-20" x="843.603516"/>
     <use xlink:href="#DejaVuSerif-4f" x="875.390625"/>
     <use xlink:href="#DejaVuSerif-70" x="957.373047"/>
     <use xlink:href="#DejaVuSerif-65" x="1021.386719"/>
     <use xlink:href="#DejaVuSerif-6e" x="1080.566406"/>
     <use xlink:href="#DejaVuSerif-4d" x="1144.970703"/>
     <use xlink:href="#DejaVuSerif-50" x="1247.363281"/>
     <use xlink:href="#DejaVuSerif-20" x="1314.648438"/>
     <use xlink:href="#DejaVuSerif-74" x="1346.435547"/>
     <use xlink:href="#DejaVuSerif-68" x="1386.621094"/>
     <use xlink:href="#DejaVuSerif-72" x="1451.025391"/>
     <use xlink:href="#DejaVuSerif-65" x="1498.828125"/>
     <use xlink:href="#DejaVuSerif-61" x="1558.007812"/>
     <use xlink:href="#DejaVuSerif-64" x="1617.626953"/>
     <use xlink:href="#DejaVuSerif-73" x="1681.640625"/>
    </g>
   </g>
   <g id="text_13">
    <!-- GCsnap1 Desktop end-to-end execution profile: $\bf{100}$ targets -->
    <g style="fill: #262626" transform="translate(41.245 19.36) scale(0.16 -0.16)">
     <defs>
      <path id="DejaVuSerif-47" d="M 4097 3272 
Q 3988 3856 3641 4136 
Q 3294 4416 2675 4416 
Q 1869 4416 1472 3897 
Q 1075 3378 1075 2328 
Q 1075 1300 1484 772 
Q 1894 244 2688 244 
Q 3041 244 3362 331 
Q 3684 419 3975 594 
L 3975 1797 
L 3097 1797 
L 3097 2131 
L 4609 2131 
L 4609 391 
Q 4194 150 3714 29 
Q 3234 -91 2688 -91 
Q 1631 -91 995 570 
Q 359 1231 359 2328 
Q 359 3434 996 4092 
Q 1634 4750 2713 4750 
Q 3113 4750 3539 4658 
Q 3966 4566 4447 4378 
L 4447 3272 
L 4097 3272 
z
" transform="scale(0.015625)"/>
      <path id="DejaVuSerif-43" d="M 4513 1234 
Q 4306 581 3820 245 
Q 3334 -91 2591 -91 
Q 2134 -91 1743 65 
Q 1353 222 1050 525 
Q 700 875 529 1320 
Q 359 1766 359 2328 
Q 359 3416 987 4083 
Q 1616 4750 2644 4750 
Q 3025 4750 3456 4650 
Q 3888 4550 4384 4347 
L 4384 3272 
L 4031 3272 
Q 3916 3859 3567 4137 
Q 3219 4416 2591 4416 
Q 1844 4416 1459 3886 
Q 1075 3356 1075 2328 
Q 1075 1303 1459 773 
Q 1844 244 2591 244 
Q 3113 244 3450 492 
Q 3788 741 3938 1234 
L 4513 1234 
z
" transform="scale(0.015625)"/>
      <path id="DejaVuSerif-44" d="M 1581 331 
L 2163 331 
Q 3072 331 3558 850 
Q 4044 1369 4044 2338 
Q 4044 3306 3559 3818 
Q 3075 4331 2163 4331 
L 1581 4331 
L 1581 331 
z
M 353 0 
L 353 331 
L 947 331 
L 947 4331 
L 353 4331 
L 353 4666 
L 2209 4666 
Q 3416 4666 4089 4050 
Q 4763 3434 4763 2338 
Q 4763 1238 4088 619 
Q 3413 0 2209 0 
L 353 0 
z
" transform="scale(0.015625)"/>
      <path id="DejaVuSerif-6b" d="M 1831 0 
L 219 0 
L 219 331 
L 738 331 
L 738 4531 
L 184 4531 
L 184 4863 
L 1313 4863 
L 1313 1697 
L 2713 2988 
L 2234 2988 
L 2234 3322 
L 3738 3322 
L 3738 2988 
L 3169 2988 
L 2181 2075 
L 3444 331 
L 3922 331 
L 3922 0 
L 2284 0 
L 2284 331 
L 2759 331 
L 1766 1697 
L 1313 1275 
L 1313 331 
L 1831 331 
L 1831 0 
z
" transform="scale(0.015625)"/>
      <path id="DejaVuSerif-2d" d="M 281 1959 
L 1881 1959 
L 1881 1472 
L 281 1472 
L 281 1959 
z
" transform="scale(0.015625)"/>
      <path id="DejaVuSerif-66" d="M 2753 4078 
L 2450 4078 
Q 2447 4313 2317 4434 
Q 2188 4556 1941 4556 
Q 1619 4556 1487 4379 
Q 1356 4203 1356 3750 
L 1356 3322 
L 2284 3322 
L 2284 2988 
L 1356 2988 
L 1356 331 
L 2094 331 
L 2094 0 
L 231 0 
L 231 331 
L 781 331 
L 781 2988 
L 231 2988 
L 231 3322 
L 781 3322 
L 781 3738 
Q 781 4294 1070 4578 
Q 1359 4863 1919 4863 
Q 2128 4863 2337 4825 
Q 2547 4788 2753 4709 
L 2753 4078 
z
" transform="scale(0.015625)"/>
      <path id="DejaVuSerif-6c" d="M 1313 331 
L 1856 331 
L 1856 0 
L 184 0 
L 184 331 
L 738 331 
L 738 4531 
L 184 4531 
L 184 4863 
L 1313 4863 
L 1313 331 
z
" transform="scale(0.015625)"/>
      <path id="DejaVuSerif-3a" d="M 666 325 
Q 666 500 786 622 
Q 906 744 1081 744 
Q 1256 744 1376 622 
Q 1497 500 1497 325 
Q 1497 150 1378 29 
Q 1259 -91 1081 -91 
Q 903 -91 784 29 
Q 666 150 666 325 
z
M 666 2363 
Q 666 2538 786 2658 
Q 906 2778 1081 2778 
Q 1259 2778 1378 2659 
Q 1497 2541 1497 2363 
Q 1497 2184 1378 2065 
Q 1259 1947 1081 1947 
Q 906 1947 786 2067 
Q 666 2188 666 2363 
z
" transform="scale(0.015625)"/>
      <path id="DejaVuSans-Bold-31" d="M 750 831 
L 1813 831 
L 1813 3847 
L 722 3622 
L 722 4441 
L 1806 4666 
L 2950 4666 
L 2950 831 
L 4013 831 
L 4013 0 
L 750 0 
L 750 831 
z
" transform="scale(0.015625)"/>
      <path id="DejaVuSans-Bold-30" d="M 2944 2338 
Q 2944 3213 2780 3570 
Q 2616 3928 2228 3928 
Q 1841 3928 1675 3570 
Q 1509 3213 1509 2338 
Q 1509 1453 1675 1090 
Q 1841 728 2228 728 
Q 2613 728 2778 1090 
Q 2944 1453 2944 2338 
z
M 4147 2328 
Q 4147 1169 3647 539 
Q 3147 -91 2228 -91 
Q 1306 -91 806 539 
Q 306 1169 306 2328 
Q 306 3491 806 4120 
Q 1306 4750 2228 4750 
Q 3147 4750 3647 4120 
Q 4147 3491 4147 2328 
z
" transform="scale(0.015625)"/>
      <path id="DejaVuSerif-67" d="M 3359 2988 
L 3359 72 
Q 3359 -644 2965 -1033 
Q 2572 -1422 1844 -1422 
Q 1516 -1422 1216 -1362 
Q 916 -1303 641 -1184 
L 641 -488 
L 941 -488 
Q 997 -813 1206 -963 
Q 1416 -1113 1806 -1113 
Q 2313 -1113 2548 -827 
Q 2784 -541 2784 72 
L 2784 519 
Q 2616 206 2355 57 
Q 2094 -91 1709 -91 
Q 1097 -91 708 395 
Q 319 881 319 1663 
Q 319 2444 706 2928 
Q 1094 3413 1709 3413 
Q 2094 3413 2355 3264 
Q 2616 3116 2784 2803 
L 2784 3322 
L 3909 3322 
L 3909 2988 
L 3359 2988 
z
M 2784 1825 
Q 2784 2422 2554 2737 
Q 2325 3053 1888 3053 
Q 1444 3053 1217 2703 
Q 991 2353 991 1663 
Q 991 975 1217 622 
Q 1444 269 1888 269 
Q 2325 269 2554 583 
Q 2784 897 2784 1497 
L 2784 1825 
z
" transform="scale(0.015625)"/>
     </defs>
     <use xlink:href="#DejaVuSerif-47" transform="translate(0 0.015625)"/>
     <use xlink:href="#DejaVuSerif-43" transform="translate(79.882812 0.015625)"/>
     <use xlink:href="#DejaVuSerif-73" transform="translate(156.396484 0.015625)"/>
     <use xlink:href="#DejaVuSerif-6e" transform="translate(207.714844 0.015625)"/>
     <use xlink:href="#DejaVuSerif-61" transform="translate(272.119141 0.015625)"/>
     <use xlink:href="#DejaVuSerif-70" transform="translate(331.738281 0.015625)"/>
     <use xlink:href="#DejaVuSerif-31" transform="translate(395.751953 0.015625)"/>
     <use xlink:href="#DejaVuSerif-20" transform="translate(459.375 0.015625)"/>
     <use xlink:href="#DejaVuSerif-44" transform="translate(491.162109 0.015625)"/>
     <use xlink:href="#DejaVuSerif-65" transform="translate(571.337891 0.015625)"/>
     <use xlink:href="#DejaVuSerif-73" transform="translate(630.517578 0.015625)"/>
     <use xlink:href="#DejaVuSerif-6b" transform="translate(681.835938 0.015625)"/>
     <use xlink:href="#DejaVuSerif-74" transform="translate(742.431641 0.015625)"/>
     <use xlink:href="#DejaVuSerif-6f" transform="translate(782.617188 0.015625)"/>
     <use xlink:href="#DejaVuSerif-70" transform="translate(842.822266 0.015625)"/>
     <use xlink:href="#DejaVuSerif-20" transform="translate(906.835938 0.015625)"/>
     <use xlink:href="#DejaVuSerif-65" transform="translate(938.623047 0.015625)"/>
     <use xlink:href="#DejaVuSerif-6e" transform="translate(997.802734 0.015625)"/>
     <use xlink:href="#DejaVuSerif-64" transform="translate(1062.207031 0.015625)"/>
     <use xlink:href="#DejaVuSerif-2d" transform="translate(1126.220703 0.015625)"/>
     <use xlink:href="#DejaVuSerif-74" transform="translate(1160.009766 0.015625)"/>
     <use xlink:href="#DejaVuSerif-6f" transform="translate(1200.195312 0.015625)"/>
     <use xlink:href="#DejaVuSerif-2d" transform="translate(1260.400391 0.015625)"/>
     <use xlink:href="#DejaVuSerif-65" transform="translate(1294.189453 0.015625)"/>
     <use xlink:href="#DejaVuSerif-6e" transform="translate(1353.369141 0.015625)"/>
     <use xlink:href="#DejaVuSerif-64" transform="translate(1417.773438 0.015625)"/>
     <use xlink:href="#DejaVuSerif-20" transform="translate(1481.787109 0.015625)"/>
     <use xlink:href="#DejaVuSerif-65" transform="translate(1513.574219 0.015625)"/>
     <use xlink:href="#DejaVuSerif-78" transform="translate(1572.753906 0.015625)"/>
     <use xlink:href="#DejaVuSerif-65" transform="translate(1629.150391 0.015625)"/>
     <use xlink:href="#DejaVuSerif-63" transform="translate(1688.330078 0.015625)"/>
     <use xlink:href="#DejaVuSerif-75" transform="translate(1744.335938 0.015625)"/>
     <use xlink:href="#DejaVuSerif-74" transform="translate(1808.740234 0.015625)"/>
     <use xlink:href="#DejaVuSerif-69" transform="translate(1848.925781 0.015625)"/>
     <use xlink:href="#DejaVuSerif-6f" transform="translate(1880.908203 0.015625)"/>
     <use xlink:href="#DejaVuSerif-6e" transform="translate(1941.113281 0.015625)"/>
     <use xlink:href="#DejaVuSerif-20" transform="translate(2005.517578 0.015625)"/>
     <use xlink:href="#DejaVuSerif-70" transform="translate(2037.304688 0.015625)"/>
     <use xlink:href="#DejaVuSerif-72" transform="translate(2101.318359 0.015625)"/>
     <use xlink:href="#DejaVuSerif-6f" transform="translate(2149.121094 0.015625)"/>
     <use xlink:href="#DejaVuSerif-66" transform="translate(2209.326172 0.015625)"/>
     <use xlink:href="#DejaVuSerif-69" transform="translate(2246.337891 0.015625)"/>
     <use xlink:href="#DejaVuSerif-6c" transform="translate(2278.320312 0.015625)"/>
     <use xlink:href="#DejaVuSerif-65" transform="translate(2310.302734 0.015625)"/>
     <use xlink:href="#DejaVuSerif-3a" transform="translate(2369.482422 0.015625)"/>
     <use xlink:href="#DejaVuSerif-20" transform="translate(2403.173828 0.015625)"/>
     <use xlink:href="#DejaVuSans-Bold-31" transform="translate(2434.960938 0.015625)"/>
     <use xlink:href="#DejaVuSans-Bold-30" transform="translate(2504.541016 0.015625)"/>
     <use xlink:href="#DejaVuSans-Bold-30" transform="translate(2574.121094 0.015625)"/>
     <use xlink:href="#DejaVuSerif-20" transform="translate(2643.701172 0.015625)"/>
     <use xlink:href="#DejaVuSerif-74" transform="translate(2675.488281 0.015625)"/>
     <use xlink:href="#DejaVuSerif-61" transform="translate(2715.673828 0.015625)"/>
     <use xlink:href="#DejaVuSerif-72" transform="translate(2775.292969 0.015625)"/>
     <use xlink:href="#DejaVuSerif-67" transform="translate(2823.095703 0.015625)"/>
     <use xlink:href="#DejaVuSerif-65" transform="translate(2887.109375 0.015625)"/>
     <use xlink:href="#DejaVuSerif-74" transform="translate(2946.289062 0.015625)"/>
     <use xlink:href="#DejaVuSerif-73" transform="translate(2986.474609 0.015625)"/>
    </g>
   </g>
  </g>
 </g>
 <defs>
  <clipPath id="pbc0623ca2d">
   <rect x="33.185" y="25.36" width="502.2" height="62.37"/>
  </clipPath>
 </defs>
</svg>
