<?xml version="1.0" encoding="utf-8" standalone="no"?>
<!DOCTYPE svg PUBLIC "-//W3C//DTD SVG 1.1//EN"
  "http://www.w3.org/Graphics/SVG/1.1/DTD/svg11.dtd">
<svg xmlns:xlink="http://www.w3.org/1999/xlink" width="624.34875pt" height="429.872859pt" viewBox="0 0 624.34875 429.872859" xmlns="http://www.w3.org/2000/svg" version="1.1">
 <metadata>
  <rdf:RDF xmlns:dc="http://purl.org/dc/elements/1.1/" xmlns:cc="http://creativecommons.org/ns#" xmlns:rdf="http://www.w3.org/1999/02/22-rdf-syntax-ns#">
   <cc:Work>
    <dc:type rdf:resource="http://purl.org/dc/dcmitype/StillImage"/>
    <dc:date>2025-03-16T12:24:21.195179</dc:date>
    <dc:format>image/svg+xml</dc:format>
    <dc:creator>
     <cc:Agent>
      <dc:title>Matplotlib v3.9.2, https://matplotlib.org/</dc:title>
     </cc:Agent>
    </dc:creator>
   </cc:Work>
  </rdf:RDF>
 </metadata>
 <defs>
  <style type="text/css">*{stroke-linejoin: round; stroke-linecap: butt}</style>
 </defs>
 <g id="figure_1">
  <g id="patch_1">
   <path d="M 0 429.872859 
L 624.34875 429.872859 
L 624.34875 0 
L 0 0 
z
" style="fill: #ffffff"/>
  </g>
  <g id="axes_1">
   <g id="patch_2">
    <path d="M 45.61875 243.45 
L 617.14875 243.45 
L 617.14875 27.24 
L 45.61875 27.24 
z
" style="fill: #ffffff"/>
   </g>
   <g id="matplotlib.axis_1">
    <g id="xtick_1">
     <g id="line2d_1">
      <defs>
       <path id="mb1eb054a6c" d="M 0 0 
L 0 3 
" style="stroke: #262626; stroke-width: 0.8"/>
      </defs>
      <g>
       <use xlink:href="#mb1eb054a6c" x="45.61875" y="243.45" style="fill: #262626; stroke: #262626; stroke-width: 0.8"/>
      </g>
     </g>
     <g id="text_1">
      <!-- 0 -->
      <g style="fill: #262626" transform="translate(40.369688 262.487422) scale(0.165 -0.165)">
       <defs>
        <path id="DejaVuSerif-30" d="M 2034 219 
Q 2513 219 2750 744 
Q 2988 1269 2988 2328 
Q 2988 3391 2750 3916 
Q 2513 4441 2034 4441 
Q 1556 4441 1318 3916 
Q 1081 3391 1081 2328 
Q 1081 1269 1318 744 
Q 1556 219 2034 219 
z
M 2034 -91 
Q 1275 -91 848 546 
Q 422 1184 422 2328 
Q 422 3475 848 4112 
Q 1275 4750 2034 4750 
Q 2797 4750 3222 4112 
Q 3647 3475 3647 2328 
Q 3647 1184 3222 546 
Q 2797 -91 2034 -91 
z
" transform="scale(0.015625)"/>
       </defs>
       <use xlink:href="#DejaVuSerif-30"/>
      </g>
     </g>
    </g>
    <g id="xtick_2">
     <g id="line2d_2">
      <g>
       <use xlink:href="#mb1eb054a6c" x="121.924491" y="243.45" style="fill: #262626; stroke: #262626; stroke-width: 0.8"/>
      </g>
     </g>
     <g id="text_2">
      <!-- 100 -->
      <g style="fill: #262626" transform="translate(106.177303 262.487422) scale(0.165 -0.165)">
       <defs>
        <path id="DejaVuSerif-31" d="M 909 0 
L 909 331 
L 1722 331 
L 1722 4213 
L 781 3603 
L 781 4013 
L 1919 4750 
L 2350 4750 
L 2350 331 
L 3163 331 
L 3163 0 
L 909 0 
z
" transform="scale(0.015625)"/>
       </defs>
       <use xlink:href="#DejaVuSerif-31"/>
       <use xlink:href="#DejaVuSerif-30" x="63.623047"/>
       <use xlink:href="#DejaVuSerif-30" x="127.246094"/>
      </g>
     </g>
    </g>
    <g id="xtick_3">
     <g id="line2d_3">
      <g>
       <use xlink:href="#mb1eb054a6c" x="198.230232" y="243.45" style="fill: #262626; stroke: #262626; stroke-width: 0.8"/>
      </g>
     </g>
     <g id="text_3">
      <!-- 200 -->
      <g style="fill: #262626" transform="translate(182.483044 262.487422) scale(0.165 -0.165)">
       <defs>
        <path id="DejaVuSerif-32" d="M 819 3553 
L 469 3553 
L 469 4384 
Q 803 4563 1142 4656 
Q 1481 4750 1806 4750 
Q 2534 4750 2956 4397 
Q 3378 4044 3378 3438 
Q 3378 2753 2422 1800 
Q 2347 1728 2309 1691 
L 1131 513 
L 3078 513 
L 3078 1088 
L 3444 1088 
L 3444 0 
L 434 0 
L 434 341 
L 1850 1753 
Q 2319 2222 2519 2614 
Q 2719 3006 2719 3438 
Q 2719 3909 2473 4175 
Q 2228 4441 1797 4441 
Q 1350 4441 1106 4219 
Q 863 3997 819 3553 
z
" transform="scale(0.015625)"/>
       </defs>
       <use xlink:href="#DejaVuSerif-32"/>
       <use xlink:href="#DejaVuSerif-30" x="63.623047"/>
       <use xlink:href="#DejaVuSerif-30" x="127.246094"/>
      </g>
     </g>
    </g>
    <g id="xtick_4">
     <g id="line2d_4">
      <g>
       <use xlink:href="#mb1eb054a6c" x="274.535973" y="243.45" style="fill: #262626; stroke: #262626; stroke-width: 0.8"/>
      </g>
     </g>
     <g id="text_4">
      <!-- 300 -->
      <g style="fill: #262626" transform="translate(258.788785 262.487422) scale(0.165 -0.165)">
       <defs>
        <path id="DejaVuSerif-33" d="M 622 4469 
Q 988 4606 1323 4678 
Q 1659 4750 1953 4750 
Q 2638 4750 3022 4454 
Q 3406 4159 3406 3634 
Q 3406 3213 3140 2930 
Q 2875 2647 2388 2547 
Q 2963 2466 3280 2130 
Q 3597 1794 3597 1259 
Q 3597 606 3158 257 
Q 2719 -91 1894 -91 
Q 1528 -91 1179 -12 
Q 831 66 488 225 
L 488 1131 
L 838 1131 
Q 869 681 1141 450 
Q 1413 219 1906 219 
Q 2384 219 2661 495 
Q 2938 772 2938 1253 
Q 2938 1803 2653 2086 
Q 2369 2369 1819 2369 
L 1522 2369 
L 1522 2688 
L 1678 2688 
Q 2225 2688 2498 2914 
Q 2772 3141 2772 3597 
Q 2772 4006 2547 4223 
Q 2322 4441 1900 4441 
Q 1478 4441 1245 4241 
Q 1013 4041 972 3647 
L 622 3647 
L 622 4469 
z
" transform="scale(0.015625)"/>
       </defs>
       <use xlink:href="#DejaVuSerif-33"/>
       <use xlink:href="#DejaVuSerif-30" x="63.623047"/>
       <use xlink:href="#DejaVuSerif-30" x="127.246094"/>
      </g>
     </g>
    </g>
    <g id="xtick_5">
     <g id="line2d_5">
      <g>
       <use xlink:href="#mb1eb054a6c" x="350.841714" y="243.45" style="fill: #262626; stroke: #262626; stroke-width: 0.8"/>
      </g>
     </g>
     <g id="text_5">
      <!-- 400 -->
      <g style="fill: #262626" transform="translate(335.094526 262.487422) scale(0.165 -0.165)">
       <defs>
        <path id="DejaVuSerif-34" d="M 2234 1581 
L 2234 4063 
L 641 1581 
L 2234 1581 
z
M 3609 0 
L 1484 0 
L 1484 331 
L 2234 331 
L 2234 1247 
L 197 1247 
L 197 1588 
L 2241 4750 
L 2859 4750 
L 2859 1581 
L 3750 1581 
L 3750 1247 
L 2859 1247 
L 2859 331 
L 3609 331 
L 3609 0 
z
" transform="scale(0.015625)"/>
       </defs>
       <use xlink:href="#DejaVuSerif-34"/>
       <use xlink:href="#DejaVuSerif-30" x="63.623047"/>
       <use xlink:href="#DejaVuSerif-30" x="127.246094"/>
      </g>
     </g>
    </g>
    <g id="xtick_6">
     <g id="line2d_6">
      <g>
       <use xlink:href="#mb1eb054a6c" x="427.147455" y="243.45" style="fill: #262626; stroke: #262626; stroke-width: 0.8"/>
      </g>
     </g>
     <g id="text_6">
      <!-- 500 -->
      <g style="fill: #262626" transform="translate(411.400267 262.487422) scale(0.165 -0.165)">
       <defs>
        <path id="DejaVuSerif-35" d="M 3219 4666 
L 3219 4153 
L 1081 4153 
L 1081 2816 
Q 1244 2928 1461 2984 
Q 1678 3041 1947 3041 
Q 2703 3041 3140 2622 
Q 3578 2203 3578 1478 
Q 3578 738 3136 323 
Q 2694 -91 1894 -91 
Q 1572 -91 1234 -12 
Q 897 66 544 225 
L 544 1131 
L 897 1131 
Q 925 688 1179 453 
Q 1434 219 1894 219 
Q 2388 219 2653 544 
Q 2919 869 2919 1478 
Q 2919 2084 2655 2407 
Q 2391 2731 1894 2731 
Q 1613 2731 1398 2631 
Q 1184 2531 1019 2322 
L 750 2322 
L 750 4666 
L 3219 4666 
z
" transform="scale(0.015625)"/>
       </defs>
       <use xlink:href="#DejaVuSerif-35"/>
       <use xlink:href="#DejaVuSerif-30" x="63.623047"/>
       <use xlink:href="#DejaVuSerif-30" x="127.246094"/>
      </g>
     </g>
    </g>
    <g id="xtick_7">
     <g id="line2d_7">
      <g>
       <use xlink:href="#mb1eb054a6c" x="503.453196" y="243.45" style="fill: #262626; stroke: #262626; stroke-width: 0.8"/>
      </g>
     </g>
     <g id="text_7">
      <!-- 600 -->
      <g style="fill: #262626" transform="translate(487.706008 262.487422) scale(0.165 -0.165)">
       <defs>
        <path id="DejaVuSerif-36" d="M 2094 219 
Q 2534 219 2771 542 
Q 3009 866 3009 1472 
Q 3009 2078 2771 2401 
Q 2534 2725 2094 2725 
Q 1647 2725 1412 2412 
Q 1178 2100 1178 1509 
Q 1178 888 1415 553 
Q 1653 219 2094 219 
z
M 1075 2569 
Q 1288 2803 1556 2918 
Q 1825 3034 2163 3034 
Q 2859 3034 3264 2615 
Q 3669 2197 3669 1472 
Q 3669 763 3233 336 
Q 2797 -91 2069 -91 
Q 1278 -91 853 498 
Q 428 1088 428 2181 
Q 428 3406 931 4078 
Q 1434 4750 2350 4750 
Q 2597 4750 2869 4703 
Q 3141 4656 3425 4563 
L 3425 3794 
L 3072 3794 
Q 3034 4109 2831 4275 
Q 2628 4441 2284 4441 
Q 1678 4441 1381 3981 
Q 1084 3522 1075 2569 
z
" transform="scale(0.015625)"/>
       </defs>
       <use xlink:href="#DejaVuSerif-36"/>
       <use xlink:href="#DejaVuSerif-30" x="63.623047"/>
       <use xlink:href="#DejaVuSerif-30" x="127.246094"/>
      </g>
     </g>
    </g>
    <g id="xtick_8">
     <g id="line2d_8">
      <g>
       <use xlink:href="#mb1eb054a6c" x="579.758937" y="243.45" style="fill: #262626; stroke: #262626; stroke-width: 0.8"/>
      </g>
     </g>
     <g id="text_8">
      <!-- 700 -->
      <g style="fill: #262626" transform="translate(564.011749 262.487422) scale(0.165 -0.165)">
       <defs>
        <path id="DejaVuSerif-37" d="M 3609 4347 
L 1784 0 
L 1319 0 
L 3059 4153 
L 903 4153 
L 903 3578 
L 538 3578 
L 538 4666 
L 3609 4666 
L 3609 4347 
z
" transform="scale(0.015625)"/>
       </defs>
       <use xlink:href="#DejaVuSerif-37"/>
       <use xlink:href="#DejaVuSerif-30" x="63.623047"/>
       <use xlink:href="#DejaVuSerif-30" x="127.246094"/>
      </g>
     </g>
    </g>
    <g id="text_9">
     <!-- Execution time (s) -->
     <g style="fill: #262626" transform="translate(248.146406 283.596094) scale(0.18 -0.18)">
      <defs>
       <path id="DejaVuSerif-45" d="M 353 0 
L 353 331 
L 947 331 
L 947 4331 
L 353 4331 
L 353 4666 
L 4109 4666 
L 4109 3628 
L 3725 3628 
L 3725 4281 
L 1581 4281 
L 1581 2719 
L 3109 2719 
L 3109 3303 
L 3494 3303 
L 3494 1753 
L 3109 1753 
L 3109 2338 
L 1581 2338 
L 1581 384 
L 3775 384 
L 3775 1038 
L 4159 1038 
L 4159 0 
L 353 0 
z
" transform="scale(0.015625)"/>
       <path id="DejaVuSerif-78" d="M 1863 2028 
L 2559 2988 
L 2113 2988 
L 2113 3322 
L 3391 3322 
L 3391 2988 
L 2950 2988 
L 2059 1759 
L 3097 331 
L 3531 331 
L 3531 0 
L 1997 0 
L 1997 331 
L 2419 331 
L 1697 1325 
L 972 331 
L 1403 331 
L 1403 0 
L 141 0 
L 141 331 
L 581 331 
L 1497 1594 
L 488 2988 
L 78 2988 
L 78 3322 
L 1563 3322 
L 1563 2988 
L 1166 2988 
L 1863 2028 
z
" transform="scale(0.015625)"/>
       <path id="DejaVuSerif-65" d="M 3469 1600 
L 991 1600 
L 991 1575 
Q 991 903 1244 561 
Q 1497 219 1991 219 
Q 2369 219 2611 417 
Q 2853 616 2950 1006 
L 3413 1006 
Q 3275 459 2904 184 
Q 2534 -91 1931 -91 
Q 1203 -91 761 389 
Q 319 869 319 1663 
Q 319 2450 753 2931 
Q 1188 3413 1894 3413 
Q 2647 3413 3050 2948 
Q 3453 2484 3469 1600 
z
M 2791 1931 
Q 2772 2513 2545 2808 
Q 2319 3103 1894 3103 
Q 1497 3103 1269 2806 
Q 1041 2509 991 1931 
L 2791 1931 
z
" transform="scale(0.015625)"/>
       <path id="DejaVuSerif-63" d="M 3291 997 
Q 3169 466 2822 187 
Q 2475 -91 1925 -91 
Q 1200 -91 759 389 
Q 319 869 319 1663 
Q 319 2459 759 2936 
Q 1200 3413 1925 3413 
Q 2241 3413 2553 3339 
Q 2866 3266 3181 3116 
L 3181 2266 
L 2847 2266 
Q 2781 2703 2561 2903 
Q 2341 3103 1931 3103 
Q 1466 3103 1228 2742 
Q 991 2381 991 1663 
Q 991 944 1227 581 
Q 1463 219 1931 219 
Q 2303 219 2525 412 
Q 2747 606 2828 997 
L 3291 997 
z
" transform="scale(0.015625)"/>
       <path id="DejaVuSerif-75" d="M 2266 3322 
L 3341 3322 
L 3341 331 
L 3884 331 
L 3884 0 
L 2766 0 
L 2766 588 
Q 2606 256 2353 82 
Q 2100 -91 1766 -91 
Q 1213 -91 952 223 
Q 691 538 691 1209 
L 691 2988 
L 172 2988 
L 172 3322 
L 1269 3322 
L 1269 1388 
Q 1269 781 1417 556 
Q 1566 331 1947 331 
Q 2347 331 2556 625 
Q 2766 919 2766 1478 
L 2766 2988 
L 2266 2988 
L 2266 3322 
z
" transform="scale(0.015625)"/>
       <path id="DejaVuSerif-74" d="M 691 2988 
L 184 2988 
L 184 3322 
L 691 3322 
L 691 4353 
L 1269 4353 
L 1269 3322 
L 2350 3322 
L 2350 2988 
L 1269 2988 
L 1269 878 
Q 1269 456 1350 337 
Q 1431 219 1650 219 
Q 1875 219 1978 351 
Q 2081 484 2088 781 
L 2522 781 
Q 2497 328 2275 118 
Q 2053 -91 1600 -91 
Q 1103 -91 897 129 
Q 691 350 691 878 
L 691 2988 
z
" transform="scale(0.015625)"/>
       <path id="DejaVuSerif-69" d="M 622 4353 
Q 622 4497 726 4603 
Q 831 4709 978 4709 
Q 1122 4709 1226 4603 
Q 1331 4497 1331 4353 
Q 1331 4206 1228 4103 
Q 1125 4000 978 4000 
Q 831 4000 726 4103 
Q 622 4206 622 4353 
z
M 1356 331 
L 1900 331 
L 1900 0 
L 231 0 
L 231 331 
L 781 331 
L 781 2988 
L 231 2988 
L 231 3322 
L 1356 3322 
L 1356 331 
z
" transform="scale(0.015625)"/>
       <path id="DejaVuSerif-6f" d="M 1925 219 
Q 2388 219 2623 584 
Q 2859 950 2859 1663 
Q 2859 2375 2623 2739 
Q 2388 3103 1925 3103 
Q 1463 3103 1227 2739 
Q 991 2375 991 1663 
Q 991 950 1228 584 
Q 1466 219 1925 219 
z
M 1925 -91 
Q 1200 -91 759 389 
Q 319 869 319 1663 
Q 319 2456 758 2934 
Q 1197 3413 1925 3413 
Q 2653 3413 3092 2934 
Q 3531 2456 3531 1663 
Q 3531 869 3092 389 
Q 2653 -91 1925 -91 
z
" transform="scale(0.015625)"/>
       <path id="DejaVuSerif-6e" d="M 263 0 
L 263 331 
L 781 331 
L 781 2988 
L 231 2988 
L 231 3322 
L 1356 3322 
L 1356 2731 
Q 1516 3069 1770 3241 
Q 2025 3413 2363 3413 
Q 2913 3413 3172 3097 
Q 3431 2781 3431 2113 
L 3431 331 
L 3944 331 
L 3944 0 
L 2356 0 
L 2356 331 
L 2853 331 
L 2853 1931 
Q 2853 2541 2703 2767 
Q 2553 2994 2175 2994 
Q 1775 2994 1565 2701 
Q 1356 2409 1356 1850 
L 1356 331 
L 1856 331 
L 1856 0 
L 263 0 
z
" transform="scale(0.015625)"/>
       <path id="DejaVuSerif-20" transform="scale(0.015625)"/>
       <path id="DejaVuSerif-6d" d="M 3316 2675 
Q 3481 3041 3739 3227 
Q 3997 3413 4341 3413 
Q 4863 3413 5119 3089 
Q 5375 2766 5375 2113 
L 5375 331 
L 5894 331 
L 5894 0 
L 4300 0 
L 4300 331 
L 4800 331 
L 4800 2047 
Q 4800 2556 4650 2772 
Q 4500 2988 4153 2988 
Q 3769 2988 3567 2697 
Q 3366 2406 3366 1850 
L 3366 331 
L 3866 331 
L 3866 0 
L 2291 0 
L 2291 331 
L 2791 331 
L 2791 2069 
Q 2791 2566 2641 2777 
Q 2491 2988 2144 2988 
Q 1759 2988 1557 2697 
Q 1356 2406 1356 1850 
L 1356 331 
L 1856 331 
L 1856 0 
L 263 0 
L 263 331 
L 781 331 
L 781 2994 
L 231 2994 
L 231 3322 
L 1356 3322 
L 1356 2731 
Q 1516 3063 1762 3238 
Q 2009 3413 2322 3413 
Q 2709 3413 2968 3220 
Q 3228 3028 3316 2675 
z
" transform="scale(0.015625)"/>
       <path id="DejaVuSerif-28" d="M 2041 -997 
Q 1281 -656 893 83 
Q 506 822 506 1931 
Q 506 3044 893 3783 
Q 1281 4522 2041 4863 
L 2041 4556 
Q 1559 4225 1350 3623 
Q 1141 3022 1141 1931 
Q 1141 844 1350 242 
Q 1559 -359 2041 -691 
L 2041 -997 
z
" transform="scale(0.015625)"/>
       <path id="DejaVuSerif-73" d="M 359 184 
L 359 959 
L 691 959 
Q 703 588 923 403 
Q 1144 219 1575 219 
Q 1963 219 2166 364 
Q 2369 509 2369 788 
Q 2369 1006 2220 1140 
Q 2072 1275 1594 1428 
L 1178 1569 
Q 750 1706 558 1912 
Q 366 2119 366 2438 
Q 366 2894 700 3153 
Q 1034 3413 1625 3413 
Q 1888 3413 2178 3344 
Q 2469 3275 2778 3144 
L 2778 2419 
L 2447 2419 
Q 2434 2741 2221 2922 
Q 2009 3103 1644 3103 
Q 1281 3103 1095 2975 
Q 909 2847 909 2591 
Q 909 2381 1050 2254 
Q 1191 2128 1613 1997 
L 2069 1856 
Q 2541 1709 2748 1489 
Q 2956 1269 2956 922 
Q 2956 450 2595 179 
Q 2234 -91 1600 -91 
Q 1278 -91 972 -22 
Q 666 47 359 184 
z
" transform="scale(0.015625)"/>
       <path id="DejaVuSerif-29" d="M 453 -997 
L 453 -691 
Q 934 -359 1145 242 
Q 1356 844 1356 1931 
Q 1356 3022 1145 3623 
Q 934 4225 453 4556 
L 453 4863 
Q 1216 4522 1603 3783 
Q 1991 3044 1991 1931 
Q 1991 822 1603 83 
Q 1216 -656 453 -997 
z
" transform="scale(0.015625)"/>
      </defs>
      <use xlink:href="#DejaVuSerif-45"/>
      <use xlink:href="#DejaVuSerif-78" x="72.998047"/>
      <use xlink:href="#DejaVuSerif-65" x="129.394531"/>
      <use xlink:href="#DejaVuSerif-63" x="188.574219"/>
      <use xlink:href="#DejaVuSerif-75" x="244.580078"/>
      <use xlink:href="#DejaVuSerif-74" x="308.984375"/>
      <use xlink:href="#DejaVuSerif-69" x="349.169922"/>
      <use xlink:href="#DejaVuSerif-6f" x="381.152344"/>
      <use xlink:href="#DejaVuSerif-6e" x="441.357422"/>
      <use xlink:href="#DejaVuSerif-20" x="505.761719"/>
      <use xlink:href="#DejaVuSerif-74" x="537.548828"/>
      <use xlink:href="#DejaVuSerif-69" x="577.734375"/>
      <use xlink:href="#DejaVuSerif-6d" x="609.716797"/>
      <use xlink:href="#DejaVuSerif-65" x="704.541016"/>
      <use xlink:href="#DejaVuSerif-20" x="763.720703"/>
      <use xlink:href="#DejaVuSerif-28" x="795.507812"/>
      <use xlink:href="#DejaVuSerif-73" x="834.521484"/>
      <use xlink:href="#DejaVuSerif-29" x="885.839844"/>
     </g>
    </g>
   </g>
   <g id="matplotlib.axis_2">
    <g id="ytick_1">
     <g id="line2d_9">
      <path d="M 45.61875 221.337614 
L 617.14875 221.337614 
" clip-path="url(#p68905f60dd)" style="fill: none; stroke: #808080; stroke-opacity: 0.5; stroke-width: 0.5; stroke-linecap: round"/>
     </g>
     <g id="line2d_10">
      <defs>
       <path id="m6ed3ae551f" d="M 0 0 
L -3 0 
" style="stroke: #262626; stroke-width: 0.8"/>
      </defs>
      <g>
       <use xlink:href="#m6ed3ae551f" x="45.61875" y="221.337614" style="fill: #262626; stroke: #262626; stroke-width: 0.8"/>
      </g>
     </g>
     <g id="text_10">
      <!-- 7 -->
      <g style="fill: #262626" transform="translate(28.620625 227.606325) scale(0.165 -0.165)">
       <use xlink:href="#DejaVuSerif-37"/>
      </g>
     </g>
    </g>
    <g id="ytick_2">
     <g id="line2d_11">
      <path d="M 45.61875 196.768295 
L 617.14875 196.768295 
" clip-path="url(#p68905f60dd)" style="fill: none; stroke: #808080; stroke-opacity: 0.5; stroke-width: 0.5; stroke-linecap: round"/>
     </g>
     <g id="line2d_12">
      <g>
       <use xlink:href="#m6ed3ae551f" x="45.61875" y="196.768295" style="fill: #262626; stroke: #262626; stroke-width: 0.8"/>
      </g>
     </g>
     <g id="text_11">
      <!-- 6 -->
      <g style="fill: #262626" transform="translate(28.620625 203.037006) scale(0.165 -0.165)">
       <use xlink:href="#DejaVuSerif-36"/>
      </g>
     </g>
    </g>
    <g id="ytick_3">
     <g id="line2d_13">
      <path d="M 45.61875 172.198977 
L 617.14875 172.198977 
" clip-path="url(#p68905f60dd)" style="fill: none; stroke: #808080; stroke-opacity: 0.5; stroke-width: 0.5; stroke-linecap: round"/>
     </g>
     <g id="line2d_14">
      <g>
       <use xlink:href="#m6ed3ae551f" x="45.61875" y="172.198977" style="fill: #262626; stroke: #262626; stroke-width: 0.8"/>
      </g>
     </g>
     <g id="text_12">
      <!-- 5 -->
      <g style="fill: #262626" transform="translate(28.620625 178.467688) scale(0.165 -0.165)">
       <use xlink:href="#DejaVuSerif-35"/>
      </g>
     </g>
    </g>
    <g id="ytick_4">
     <g id="line2d_15">
      <path d="M 45.61875 147.629659 
L 617.14875 147.629659 
" clip-path="url(#p68905f60dd)" style="fill: none; stroke: #808080; stroke-opacity: 0.5; stroke-width: 0.5; stroke-linecap: round"/>
     </g>
     <g id="line2d_16">
      <g>
       <use xlink:href="#m6ed3ae551f" x="45.61875" y="147.629659" style="fill: #262626; stroke: #262626; stroke-width: 0.8"/>
      </g>
     </g>
     <g id="text_13">
      <!-- 4 -->
      <g style="fill: #262626" transform="translate(28.620625 153.89837) scale(0.165 -0.165)">
       <use xlink:href="#DejaVuSerif-34"/>
      </g>
     </g>
    </g>
    <g id="ytick_5">
     <g id="line2d_17">
      <path d="M 45.61875 123.060341 
L 617.14875 123.060341 
" clip-path="url(#p68905f60dd)" style="fill: none; stroke: #808080; stroke-opacity: 0.5; stroke-width: 0.5; stroke-linecap: round"/>
     </g>
     <g id="line2d_18">
      <g>
       <use xlink:href="#m6ed3ae551f" x="45.61875" y="123.060341" style="fill: #262626; stroke: #262626; stroke-width: 0.8"/>
      </g>
     </g>
     <g id="text_14">
      <!-- 3 -->
      <g style="fill: #262626" transform="translate(28.620625 129.329052) scale(0.165 -0.165)">
       <use xlink:href="#DejaVuSerif-33"/>
      </g>
     </g>
    </g>
    <g id="ytick_6">
     <g id="line2d_19">
      <path d="M 45.61875 98.491023 
L 617.14875 98.491023 
" clip-path="url(#p68905f60dd)" style="fill: none; stroke: #808080; stroke-opacity: 0.5; stroke-width: 0.5; stroke-linecap: round"/>
     </g>
     <g id="line2d_20">
      <g>
       <use xlink:href="#m6ed3ae551f" x="45.61875" y="98.491023" style="fill: #262626; stroke: #262626; stroke-width: 0.8"/>
      </g>
     </g>
     <g id="text_15">
      <!-- 2 -->
      <g style="fill: #262626" transform="translate(28.620625 104.759734) scale(0.165 -0.165)">
       <use xlink:href="#DejaVuSerif-32"/>
      </g>
     </g>
    </g>
    <g id="ytick_7">
     <g id="line2d_21">
      <path d="M 45.61875 73.921705 
L 617.14875 73.921705 
" clip-path="url(#p68905f60dd)" style="fill: none; stroke: #808080; stroke-opacity: 0.5; stroke-width: 0.5; stroke-linecap: round"/>
     </g>
     <g id="line2d_22">
      <g>
       <use xlink:href="#m6ed3ae551f" x="45.61875" y="73.921705" style="fill: #262626; stroke: #262626; stroke-width: 0.8"/>
      </g>
     </g>
     <g id="text_16">
      <!-- 1 -->
      <g style="fill: #262626" transform="translate(28.620625 80.190415) scale(0.165 -0.165)">
       <use xlink:href="#DejaVuSerif-31"/>
      </g>
     </g>
    </g>
    <g id="ytick_8">
     <g id="line2d_23">
      <path d="M 45.61875 49.352386 
L 617.14875 49.352386 
" clip-path="url(#p68905f60dd)" style="fill: none; stroke: #808080; stroke-opacity: 0.5; stroke-width: 0.5; stroke-linecap: round"/>
     </g>
     <g id="line2d_24">
      <g>
       <use xlink:href="#m6ed3ae551f" x="45.61875" y="49.352386" style="fill: #262626; stroke: #262626; stroke-width: 0.8"/>
      </g>
     </g>
     <g id="text_17">
      <!-- 0 -->
      <g style="fill: #262626" transform="translate(28.620625 55.621097) scale(0.165 -0.165)">
       <use xlink:href="#DejaVuSerif-30"/>
      </g>
     </g>
    </g>
    <g id="text_18">
     <!-- MPI Ranks -->
     <g style="fill: #262626" transform="translate(20.877188 185.244375) rotate(-90) scale(0.18 -0.18)">
      <defs>
       <path id="DejaVuSerif-4d" d="M 353 0 
L 353 331 
L 947 331 
L 947 4331 
L 319 4331 
L 319 4666 
L 1678 4666 
L 3316 1344 
L 4953 4666 
L 6228 4666 
L 6228 4331 
L 5606 4331 
L 5606 331 
L 6203 331 
L 6203 0 
L 4378 0 
L 4378 331 
L 4972 331 
L 4972 3938 
L 3372 684 
L 2931 684 
L 1331 3938 
L 1331 331 
L 1925 331 
L 1925 0 
L 353 0 
z
" transform="scale(0.015625)"/>
       <path id="DejaVuSerif-50" d="M 1581 2375 
L 2406 2375 
Q 2872 2375 3115 2626 
Q 3359 2878 3359 3353 
Q 3359 3831 3115 4081 
Q 2872 4331 2406 4331 
L 1581 4331 
L 1581 2375 
z
M 353 0 
L 353 331 
L 947 331 
L 947 4331 
L 353 4331 
L 353 4666 
L 2559 4666 
Q 3259 4666 3668 4311 
Q 4078 3956 4078 3353 
Q 4078 2753 3668 2397 
Q 3259 2041 2559 2041 
L 1581 2041 
L 1581 331 
L 2303 331 
L 2303 0 
L 353 0 
z
" transform="scale(0.015625)"/>
       <path id="DejaVuSerif-49" d="M 1581 331 
L 2175 331 
L 2175 0 
L 353 0 
L 353 331 
L 947 331 
L 947 4331 
L 353 4331 
L 353 4666 
L 2175 4666 
L 2175 4331 
L 1581 4331 
L 1581 331 
z
" transform="scale(0.015625)"/>
       <path id="DejaVuSerif-52" d="M 3066 2316 
Q 3284 2256 3442 2114 
Q 3600 1972 3725 1716 
L 4403 331 
L 4972 331 
L 4972 0 
L 3872 0 
L 3144 1484 
Q 2934 1916 2759 2042 
Q 2584 2169 2278 2169 
L 1581 2169 
L 1581 331 
L 2241 331 
L 2241 0 
L 353 0 
L 353 331 
L 947 331 
L 947 4331 
L 353 4331 
L 353 4666 
L 2719 4666 
Q 3400 4666 3770 4341 
Q 4141 4016 4141 3419 
Q 4141 2938 3870 2661 
Q 3600 2384 3066 2316 
z
M 1581 2503 
L 2503 2503 
Q 2975 2503 3200 2726 
Q 3425 2950 3425 3419 
Q 3425 3888 3200 4109 
Q 2975 4331 2503 4331 
L 1581 4331 
L 1581 2503 
z
" transform="scale(0.015625)"/>
       <path id="DejaVuSerif-61" d="M 2547 1044 
L 2547 1747 
L 1806 1747 
Q 1378 1747 1168 1562 
Q 959 1378 959 997 
Q 959 650 1171 447 
Q 1384 244 1747 244 
Q 2106 244 2326 466 
Q 2547 688 2547 1044 
z
M 3122 2075 
L 3122 331 
L 3634 331 
L 3634 0 
L 2547 0 
L 2547 359 
Q 2356 128 2106 18 
Q 1856 -91 1522 -91 
Q 969 -91 644 203 
Q 319 497 319 997 
Q 319 1513 691 1797 
Q 1063 2081 1741 2081 
L 2547 2081 
L 2547 2309 
Q 2547 2688 2317 2895 
Q 2088 3103 1672 3103 
Q 1328 3103 1125 2947 
Q 922 2791 872 2484 
L 575 2484 
L 575 3156 
Q 875 3284 1158 3348 
Q 1441 3413 1709 3413 
Q 2400 3413 2761 3070 
Q 3122 2728 3122 2075 
z
" transform="scale(0.015625)"/>
       <path id="DejaVuSerif-6b" d="M 1831 0 
L 219 0 
L 219 331 
L 738 331 
L 738 4531 
L 184 4531 
L 184 4863 
L 1313 4863 
L 1313 1697 
L 2713 2988 
L 2234 2988 
L 2234 3322 
L 3738 3322 
L 3738 2988 
L 3169 2988 
L 2181 2075 
L 3444 331 
L 3922 331 
L 3922 0 
L 2284 0 
L 2284 331 
L 2759 331 
L 1766 1697 
L 1313 1275 
L 1313 331 
L 1831 331 
L 1831 0 
z
" transform="scale(0.015625)"/>
      </defs>
      <use xlink:href="#DejaVuSerif-4d"/>
      <use xlink:href="#DejaVuSerif-50" x="102.392578"/>
      <use xlink:href="#DejaVuSerif-49" x="169.677734"/>
      <use xlink:href="#DejaVuSerif-20" x="209.179688"/>
      <use xlink:href="#DejaVuSerif-52" x="240.966797"/>
      <use xlink:href="#DejaVuSerif-61" x="318.509766"/>
      <use xlink:href="#DejaVuSerif-6e" x="378.128906"/>
      <use xlink:href="#DejaVuSerif-6b" x="442.533203"/>
      <use xlink:href="#DejaVuSerif-73" x="503.128906"/>
     </g>
    </g>
   </g>
   <g id="patch_3">
    <path d="M 325.18925 37.067727 
L 333.229586 37.067727 
L 333.229586 61.637045 
L 325.18925 61.637045 
z
" clip-path="url(#p68905f60dd)" style="fill: #a9a9a9; stroke: #ffffff; stroke-linejoin: miter"/>
   </g>
   <g id="patch_4">
    <path d="M 166.849496 37.067727 
L 325.18925 37.067727 
L 325.18925 61.637045 
L 166.849496 61.637045 
z
" clip-path="url(#p68905f60dd)" style="fill: #785ef0; stroke: #ffffff; stroke-linejoin: miter"/>
   </g>
   <g id="patch_5">
    <path d="M 333.229586 37.067727 
L 525.541419 37.067727 
L 525.541419 61.637045 
L 333.229586 61.637045 
z
" clip-path="url(#p68905f60dd)" style="fill: #dc267f; stroke: #ffffff; stroke-linejoin: miter"/>
   </g>
   <g id="patch_6">
    <path d="M 46.286425 37.067727 
L 48.388648 37.067727 
L 48.388648 61.637045 
L 46.286425 61.637045 
z
" clip-path="url(#p68905f60dd)" style="fill: #696969; stroke: #ffffff; stroke-linejoin: miter"/>
   </g>
   <g id="patch_7">
    <path d="M 48.388648 37.067727 
L 162.889228 37.067727 
L 162.889228 61.637045 
L 48.388648 61.637045 
z
" clip-path="url(#p68905f60dd)" style="fill: #648fff; stroke: #ffffff; stroke-linejoin: miter"/>
   </g>
   <g id="patch_8">
    <path d="M 543.554915 37.067727 
L 607.686075 37.067727 
L 607.686075 61.637045 
L 543.554915 61.637045 
z
" clip-path="url(#p68905f60dd)" style="fill: #fe6100; stroke: #ffffff; stroke-linejoin: miter"/>
   </g>
   <g id="patch_9">
    <path d="M 162.889228 37.067727 
L 166.849496 37.067727 
L 166.849496 61.637045 
L 162.889228 61.637045 
z
" clip-path="url(#p68905f60dd)" style="fill: #e55c9f; stroke: #ffffff; stroke-linejoin: miter"/>
   </g>
   <g id="patch_10">
    <path d="M 525.541419 37.067727 
L 543.554915 37.067727 
L 543.554915 61.637045 
L 525.541419 61.637045 
z
" clip-path="url(#p68905f60dd)" style="fill: #ffc440; stroke: #ffffff; stroke-linejoin: miter"/>
   </g>
   <g id="patch_11">
    <path d="M 325.232148 61.637045 
L 325.661377 61.637045 
L 325.661377 86.206364 
L 325.232148 86.206364 
z
" clip-path="url(#p68905f60dd)" style="fill: #a9a9a9; stroke: #ffffff; stroke-linejoin: miter"/>
   </g>
   <g id="patch_12">
    <path d="M 306.76856 61.637045 
L 312.023216 61.637045 
L 312.023216 86.206364 
L 306.76856 86.206364 
z
" clip-path="url(#p68905f60dd)" style="fill: #785ef0; stroke: #ffffff; stroke-linejoin: miter"/>
   </g>
   <g id="patch_13">
    <path d="M 47.75128 61.637045 
L 47.934379 61.637045 
L 47.934379 86.206364 
L 47.75128 86.206364 
z
" clip-path="url(#p68905f60dd)" style="fill: #696969; stroke: #ffffff; stroke-linejoin: miter"/>
   </g>
   <g id="patch_14">
    <path d="M 48.400196 61.637045 
L 66.921163 61.637045 
L 66.921163 86.206364 
L 48.400196 86.206364 
z
" clip-path="url(#p68905f60dd)" style="fill: #648fff; stroke: #ffffff; stroke-linejoin: miter"/>
   </g>
   <g id="patch_15">
    <path d="M 163.188402 61.637045 
L 165.62745 61.637045 
L 165.62745 86.206364 
L 163.188402 86.206364 
z
" clip-path="url(#p68905f60dd)" style="fill: #e55c9f; stroke: #ffffff; stroke-linejoin: miter"/>
   </g>
   <g id="patch_16">
    <path d="M 542.510664 61.637045 
L 542.512498 61.637045 
L 542.512498 86.206364 
L 542.510664 86.206364 
z
" clip-path="url(#p68905f60dd)" style="fill: #ffc440; stroke: #ffffff; stroke-linejoin: miter"/>
   </g>
   <g id="patch_17">
    <path d="M 325.21403 86.206364 
L 325.739989 86.206364 
L 325.739989 110.775682 
L 325.21403 110.775682 
z
" clip-path="url(#p68905f60dd)" style="fill: #a9a9a9; stroke: #ffffff; stroke-linejoin: miter"/>
   </g>
   <g id="patch_18">
    <path d="M 306.881367 86.206364 
L 313.795638 86.206364 
L 313.795638 110.775682 
L 306.881367 110.775682 
z
" clip-path="url(#p68905f60dd)" style="fill: #785ef0; stroke: #ffffff; stroke-linejoin: miter"/>
   </g>
   <g id="patch_19">
    <path d="M 47.752101 86.206364 
L 47.958602 86.206364 
L 47.958602 110.775682 
L 47.752101 110.775682 
z
" clip-path="url(#p68905f60dd)" style="fill: #696969; stroke: #ffffff; stroke-linejoin: miter"/>
   </g>
   <g id="patch_20">
    <path d="M 48.394087 86.206364 
L 127.311691 86.206364 
L 127.311691 110.775682 
L 48.394087 110.775682 
z
" clip-path="url(#p68905f60dd)" style="fill: #648fff; stroke: #ffffff; stroke-linejoin: miter"/>
   </g>
   <g id="patch_21">
    <path d="M 163.133473 86.206364 
L 166.192394 86.206364 
L 166.192394 110.775682 
L 163.133473 110.775682 
z
" clip-path="url(#p68905f60dd)" style="fill: #e55c9f; stroke: #ffffff; stroke-linejoin: miter"/>
   </g>
   <g id="patch_22">
    <path d="M 542.812994 86.206364 
L 542.81491 86.206364 
L 542.81491 110.775682 
L 542.812994 110.775682 
z
" clip-path="url(#p68905f60dd)" style="fill: #ffc440; stroke: #ffffff; stroke-linejoin: miter"/>
   </g>
   <g id="patch_23">
    <path d="M 325.225844 110.775682 
L 325.859622 110.775682 
L 325.859622 135.345 
L 325.225844 135.345 
z
" clip-path="url(#p68905f60dd)" style="fill: #a9a9a9; stroke: #ffffff; stroke-linejoin: miter"/>
   </g>
   <g id="patch_24">
    <path d="M 306.803885 110.775682 
L 313.385033 110.775682 
L 313.385033 135.345 
L 306.803885 135.345 
z
" clip-path="url(#p68905f60dd)" style="fill: #785ef0; stroke: #ffffff; stroke-linejoin: miter"/>
   </g>
   <g id="patch_25">
    <path d="M 47.752899 110.775682 
L 47.939155 110.775682 
L 47.939155 135.345 
L 47.752899 135.345 
z
" clip-path="url(#p68905f60dd)" style="fill: #696969; stroke: #ffffff; stroke-linejoin: miter"/>
   </g>
   <g id="patch_26">
    <path d="M 48.401552 110.775682 
L 162.853312 110.775682 
L 162.853312 135.345 
L 48.401552 135.345 
z
" clip-path="url(#p68905f60dd)" style="fill: #648fff; stroke: #ffffff; stroke-linejoin: miter"/>
   </g>
   <g id="patch_27">
    <path d="M 163.160472 110.775682 
L 166.024999 110.775682 
L 166.024999 135.345 
L 163.160472 135.345 
z
" clip-path="url(#p68905f60dd)" style="fill: #e55c9f; stroke: #ffffff; stroke-linejoin: miter"/>
   </g>
   <g id="patch_28">
    <path d="M 542.367512 110.775682 
L 542.369346 110.775682 
L 542.369346 135.345 
L 542.367512 135.345 
z
" clip-path="url(#p68905f60dd)" style="fill: #ffc440; stroke: #ffffff; stroke-linejoin: miter"/>
   </g>
   <g id="patch_29">
    <path d="M 325.220063 135.345 
L 325.649345 135.345 
L 325.649345 159.914318 
L 325.220063 159.914318 
z
" clip-path="url(#p68905f60dd)" style="fill: #a9a9a9; stroke: #ffffff; stroke-linejoin: miter"/>
   </g>
   <g id="patch_30">
    <path d="M 306.953173 135.345 
L 314.492586 135.345 
L 314.492586 159.914318 
L 306.953173 159.914318 
z
" clip-path="url(#p68905f60dd)" style="fill: #785ef0; stroke: #ffffff; stroke-linejoin: miter"/>
   </g>
   <g id="patch_31">
    <path d="M 47.753705 135.345 
L 47.960327 135.345 
L 47.960327 159.914318 
L 47.753705 159.914318 
z
" clip-path="url(#p68905f60dd)" style="fill: #696969; stroke: #ffffff; stroke-linejoin: miter"/>
   </g>
   <g id="patch_32">
    <path d="M 48.402615 135.345 
L 84.146787 135.345 
L 84.146787 159.914318 
L 48.402615 159.914318 
z
" clip-path="url(#p68905f60dd)" style="fill: #648fff; stroke: #ffffff; stroke-linejoin: miter"/>
   </g>
   <g id="patch_33">
    <path d="M 163.111464 135.345 
L 166.308371 135.345 
L 166.308371 159.914318 
L 163.111464 159.914318 
z
" clip-path="url(#p68905f60dd)" style="fill: #e55c9f; stroke: #ffffff; stroke-linejoin: miter"/>
   </g>
   <g id="patch_34">
    <path d="M 542.702008 135.345 
L 542.703899 135.345 
L 542.703899 159.914318 
L 542.702008 159.914318 
z
" clip-path="url(#p68905f60dd)" style="fill: #ffc440; stroke: #ffffff; stroke-linejoin: miter"/>
   </g>
   <g id="patch_35">
    <path d="M 325.228878 159.914318 
L 325.675046 159.914318 
L 325.675046 184.483636 
L 325.228878 184.483636 
z
" clip-path="url(#p68905f60dd)" style="fill: #a9a9a9; stroke: #ffffff; stroke-linejoin: miter"/>
   </g>
   <g id="patch_36">
    <path d="M 306.845723 159.914318 
L 313.720609 159.914318 
L 313.720609 184.483636 
L 306.845723 184.483636 
z
" clip-path="url(#p68905f60dd)" style="fill: #785ef0; stroke: #ffffff; stroke-linejoin: miter"/>
   </g>
   <g id="patch_37">
    <path d="M 47.754498 159.914318 
L 47.982405 159.914318 
L 47.982405 184.483636 
L 47.754498 184.483636 
z
" clip-path="url(#p68905f60dd)" style="fill: #696969; stroke: #ffffff; stroke-linejoin: miter"/>
   </g>
   <g id="patch_38">
    <path d="M 48.397102 159.914318 
L 77.273118 159.914318 
L 77.273118 184.483636 
L 48.397102 184.483636 
z
" clip-path="url(#p68905f60dd)" style="fill: #648fff; stroke: #ffffff; stroke-linejoin: miter"/>
   </g>
   <g id="patch_39">
    <path d="M 163.060737 159.914318 
L 166.027029 159.914318 
L 166.027029 184.483636 
L 163.060737 184.483636 
z
" clip-path="url(#p68905f60dd)" style="fill: #e55c9f; stroke: #ffffff; stroke-linejoin: miter"/>
   </g>
   <g id="patch_40">
    <path d="M 542.497778 159.914318 
L 542.499549 159.914318 
L 542.499549 184.483636 
L 542.497778 184.483636 
z
" clip-path="url(#p68905f60dd)" style="fill: #ffc440; stroke: #ffffff; stroke-linejoin: miter"/>
   </g>
   <g id="patch_41">
    <path d="M 325.223034 184.483636 
L 326.151436 184.483636 
L 326.151436 209.052955 
L 325.223034 209.052955 
z
" clip-path="url(#p68905f60dd)" style="fill: #a9a9a9; stroke: #ffffff; stroke-linejoin: miter"/>
   </g>
   <g id="patch_42">
    <path d="M 306.92001 184.483636 
L 314.326117 184.483636 
L 314.326117 209.052955 
L 306.92001 209.052955 
z
" clip-path="url(#p68905f60dd)" style="fill: #785ef0; stroke: #ffffff; stroke-linejoin: miter"/>
   </g>
   <g id="patch_43">
    <path d="M 47.755381 184.483636 
L 47.97655 184.483636 
L 47.97655 209.052955 
L 47.755381 209.052955 
z
" clip-path="url(#p68905f60dd)" style="fill: #696969; stroke: #ffffff; stroke-linejoin: miter"/>
   </g>
   <g id="patch_44">
    <path d="M 48.395559 184.483636 
L 67.75671 184.483636 
L 67.75671 209.052955 
L 48.395559 209.052955 
z
" clip-path="url(#p68905f60dd)" style="fill: #648fff; stroke: #ffffff; stroke-linejoin: miter"/>
   </g>
   <g id="patch_45">
    <path d="M 163.034774 184.483636 
L 166.27775 184.483636 
L 166.27775 209.052955 
L 163.034774 209.052955 
z
" clip-path="url(#p68905f60dd)" style="fill: #e55c9f; stroke: #ffffff; stroke-linejoin: miter"/>
   </g>
   <g id="patch_46">
    <path d="M 542.622238 184.483636 
L 542.624112 184.483636 
L 542.624112 209.052955 
L 542.622238 209.052955 
z
" clip-path="url(#p68905f60dd)" style="fill: #ffc440; stroke: #ffffff; stroke-linejoin: miter"/>
   </g>
   <g id="patch_47">
    <path d="M 325.217407 209.052955 
L 326.280984 209.052955 
L 326.280984 233.622273 
L 325.217407 233.622273 
z
" clip-path="url(#p68905f60dd)" style="fill: #a9a9a9; stroke: #ffffff; stroke-linejoin: miter"/>
   </g>
   <g id="patch_48">
    <path d="M 306.991431 209.052955 
L 314.479801 209.052955 
L 314.479801 233.622273 
L 306.991431 233.622273 
z
" clip-path="url(#p68905f60dd)" style="fill: #785ef0; stroke: #ffffff; stroke-linejoin: miter"/>
   </g>
   <g id="patch_49">
    <path d="M 47.75622 209.052955 
L 48.001313 209.052955 
L 48.001313 233.622273 
L 47.75622 233.622273 
z
" clip-path="url(#p68905f60dd)" style="fill: #696969; stroke: #ffffff; stroke-linejoin: miter"/>
   </g>
   <g id="patch_50">
    <path d="M 48.398654 209.052955 
L 84.014506 209.052955 
L 84.014506 233.622273 
L 48.398654 233.622273 
z
" clip-path="url(#p68905f60dd)" style="fill: #648fff; stroke: #ffffff; stroke-linejoin: miter"/>
   </g>
   <g id="patch_51">
    <path d="M 163.084788 209.052955 
L 165.615463 209.052955 
L 165.615463 233.622273 
L 163.084788 233.622273 
z
" clip-path="url(#p68905f60dd)" style="fill: #e55c9f; stroke: #ffffff; stroke-linejoin: miter"/>
   </g>
   <g id="patch_52">
    <path d="M 542.558898 209.052955 
L 542.560909 209.052955 
L 542.560909 233.622273 
L 542.558898 233.622273 
z
" clip-path="url(#p68905f60dd)" style="fill: #ffc440; stroke: #ffffff; stroke-linejoin: miter"/>
   </g>
   <g id="patch_53">
    <path d="M 173.049337 34.119409 
L 235.620045 34.119409 
L 235.620045 63.602591 
L 173.049337 63.602591 
z
" clip-path="url(#p68905f60dd)" style="fill: #ffffff"/>
   </g>
   <g id="line2d_25">
    <path d="M 173.812395 76.378636 
L 173.812395 66.550909 
" clip-path="url(#p68905f60dd)" style="fill: none; stroke: #000000; stroke-linecap: round"/>
   </g>
   <g id="line2d_26">
    <path d="M 234.856988 76.378636 
L 234.856988 66.550909 
" clip-path="url(#p68905f60dd)" style="fill: none; stroke: #000000; stroke-linecap: round"/>
   </g>
   <g id="line2d_27">
    <path d="M 173.812395 76.378636 
L 234.856988 76.378636 
" clip-path="url(#p68905f60dd)" style="fill: none; stroke: #000000; stroke-linecap: round"/>
   </g>
   <g id="line2d_28">
    <path d="M 204.334691 76.378636 
L 204.334691 86.206364 
" clip-path="url(#p68905f60dd)" style="fill: none; stroke: #000000; stroke-linecap: round"/>
   </g>
   <g id="line2d_29">
    <path d="M 336.343623 76.378636 
L 336.343623 66.550909 
" clip-path="url(#p68905f60dd)" style="fill: none; stroke: #000000; stroke-linecap: round"/>
   </g>
   <g id="line2d_30">
    <path d="M 522.529631 76.378636 
L 522.529631 66.550909 
" clip-path="url(#p68905f60dd)" style="fill: none; stroke: #000000; stroke-linecap: round"/>
   </g>
   <g id="line2d_31">
    <path d="M 336.343623 76.378636 
L 522.529631 76.378636 
" clip-path="url(#p68905f60dd)" style="fill: none; stroke: #000000; stroke-linecap: round"/>
   </g>
   <g id="line2d_32">
    <path d="M 429.436627 76.378636 
L 429.436627 86.206364 
" clip-path="url(#p68905f60dd)" style="fill: none; stroke: #000000; stroke-linecap: round"/>
   </g>
   <g id="line2d_33">
    <path d="M 547.710526 76.378636 
L 547.710526 66.550909 
" clip-path="url(#p68905f60dd)" style="fill: none; stroke: #000000; stroke-linecap: round"/>
   </g>
   <g id="line2d_34">
    <path d="M 604.176774 76.378636 
L 604.176774 66.550909 
" clip-path="url(#p68905f60dd)" style="fill: none; stroke: #000000; stroke-linecap: round"/>
   </g>
   <g id="line2d_35">
    <path d="M 547.710526 76.378636 
L 604.176774 76.378636 
" clip-path="url(#p68905f60dd)" style="fill: none; stroke: #000000; stroke-linecap: round"/>
   </g>
   <g id="line2d_36">
    <path d="M 575.94365 76.378636 
L 575.94365 86.206364 
" clip-path="url(#p68905f60dd)" style="fill: none; stroke: #000000; stroke-linecap: round"/>
   </g>
   <g id="line2d_37">
    <path d="M 173.812395 39.033273 
L 234.856988 39.033273 
" clip-path="url(#p68905f60dd)" style="fill: none; stroke: #785ef0; stroke-width: 1.5"/>
   </g>
   <g id="line2d_38">
    <path d="M 173.812395 42.104437 
L 234.856988 42.104437 
" clip-path="url(#p68905f60dd)" style="fill: none; stroke: #785ef0; stroke-width: 1.5"/>
   </g>
   <g id="line2d_39">
    <path d="M 173.812395 45.175602 
L 234.856988 45.175602 
" clip-path="url(#p68905f60dd)" style="fill: none; stroke: #785ef0; stroke-width: 1.5"/>
   </g>
   <g id="line2d_40">
    <path d="M 173.812395 48.246767 
L 234.856988 48.246767 
" clip-path="url(#p68905f60dd)" style="fill: none; stroke: #785ef0; stroke-width: 1.5"/>
   </g>
   <g id="line2d_41">
    <path d="M 173.812395 51.317932 
L 234.856988 51.317932 
" clip-path="url(#p68905f60dd)" style="fill: none; stroke: #785ef0; stroke-width: 1.5"/>
   </g>
   <g id="line2d_42">
    <path d="M 173.812395 54.389097 
L 234.856988 54.389097 
" clip-path="url(#p68905f60dd)" style="fill: none; stroke: #785ef0; stroke-width: 1.5"/>
   </g>
   <g id="line2d_43">
    <path d="M 173.812395 57.460261 
L 234.856988 57.460261 
" clip-path="url(#p68905f60dd)" style="fill: none; stroke: #785ef0; stroke-width: 1.5"/>
   </g>
   <g id="line2d_44">
    <path d="M 173.812395 60.531426 
L 234.856988 60.531426 
" clip-path="url(#p68905f60dd)" style="fill: none; stroke: #785ef0; stroke-width: 1.5"/>
   </g>
   <g id="patch_54">
    <path d="M 45.61875 243.45 
L 45.61875 27.24 
" style="fill: none; stroke: #262626; stroke-width: 0.8; stroke-linejoin: miter; stroke-linecap: square"/>
   </g>
   <g id="patch_55">
    <path d="M 617.14875 243.45 
L 617.14875 27.24 
" style="fill: none; stroke: #262626; stroke-width: 0.8; stroke-linejoin: miter; stroke-linecap: square"/>
   </g>
   <g id="patch_56">
    <path d="M 45.61875 243.45 
L 617.14875 243.45 
" style="fill: none; stroke: #262626; stroke-width: 0.8; stroke-linejoin: miter; stroke-linecap: square"/>
   </g>
   <g id="patch_57">
    <path d="M 45.61875 27.24 
L 617.14875 27.24 
" style="fill: none; stroke: #262626; stroke-width: 0.8; stroke-linejoin: miter; stroke-linecap: square"/>
   </g>
   <g id="text_19">
    <g id="patch_58">
     <path d="M 177.368859 151.486591 
L 246.561672 151.486591 
Q 247.961672 151.486591 247.961672 150.086591 
L 247.961672 89.506403 
Q 247.961672 88.106403 246.561672 88.106403 
L 177.368859 88.106403 
Q 175.968859 88.106403 175.968859 89.506403 
L 175.968859 150.086591 
Q 175.968859 151.486591 177.368859 151.486591 
z
" style="fill: #ffffff; stroke: #ffffff; stroke-linejoin: miter"/>
    </g>
    <!-- MMseqs2 -->
    <g transform="translate(177.368859 100.144216) scale(0.14 -0.14)">
     <defs>
      <path id="DejaVuSerif-71" d="M 3359 2988 
L 3359 -997 
L 3909 -997 
L 3909 -1331 
L 2241 -1331 
L 2241 -997 
L 2784 -997 
L 2784 519 
Q 2616 206 2355 57 
Q 2094 -91 1709 -91 
Q 1097 -91 708 395 
Q 319 881 319 1663 
Q 319 2444 706 2928 
Q 1094 3413 1709 3413 
Q 2094 3413 2355 3264 
Q 2616 3116 2784 2803 
L 2784 3322 
L 3909 3322 
L 3909 2988 
L 3359 2988 
z
M 2784 1825 
Q 2784 2422 2554 2737 
Q 2325 3053 1888 3053 
Q 1444 3053 1217 2703 
Q 991 2353 991 1663 
Q 991 975 1217 622 
Q 1444 269 1888 269 
Q 2325 269 2554 583 
Q 2784 897 2784 1497 
L 2784 1825 
z
" transform="scale(0.015625)"/>
     </defs>
     <use xlink:href="#DejaVuSerif-4d"/>
     <use xlink:href="#DejaVuSerif-4d" x="102.392578"/>
     <use xlink:href="#DejaVuSerif-73" x="204.785156"/>
     <use xlink:href="#DejaVuSerif-65" x="256.103516"/>
     <use xlink:href="#DejaVuSerif-71" x="315.283203"/>
     <use xlink:href="#DejaVuSerif-73" x="379.296875"/>
     <use xlink:href="#DejaVuSerif-32" x="430.615234"/>
    </g>
    <!-- with 8 -->
    <g transform="translate(189.734797 115.821153) scale(0.14 -0.14)">
     <defs>
      <path id="DejaVuSerif-77" d="M 3072 3322 
L 3922 728 
L 4672 2988 
L 4191 2988 
L 4191 3322 
L 5394 3322 
L 5394 2988 
L 5025 2988 
L 4038 0 
L 3559 0 
L 2741 2484 
L 1919 0 
L 1459 0 
L 475 2988 
L 103 2988 
L 103 3322 
L 1606 3322 
L 1606 2988 
L 1069 2988 
L 1813 728 
L 2669 3322 
L 3072 3322 
z
" transform="scale(0.015625)"/>
      <path id="DejaVuSerif-68" d="M 263 0 
L 263 331 
L 781 331 
L 781 4531 
L 231 4531 
L 231 4863 
L 1356 4863 
L 1356 2731 
Q 1516 3069 1770 3241 
Q 2025 3413 2363 3413 
Q 2913 3413 3172 3097 
Q 3431 2781 3431 2113 
L 3431 331 
L 3944 331 
L 3944 0 
L 2356 0 
L 2356 331 
L 2853 331 
L 2853 1931 
Q 2853 2541 2704 2764 
Q 2556 2988 2175 2988 
Q 1775 2988 1565 2697 
Q 1356 2406 1356 1850 
L 1356 331 
L 1856 331 
L 1856 0 
L 263 0 
z
" transform="scale(0.015625)"/>
      <path id="DejaVuSerif-38" d="M 2981 1275 
Q 2981 1775 2732 2051 
Q 2484 2328 2034 2328 
Q 1584 2328 1336 2051 
Q 1088 1775 1088 1275 
Q 1088 772 1336 495 
Q 1584 219 2034 219 
Q 2484 219 2732 495 
Q 2981 772 2981 1275 
z
M 2853 3541 
Q 2853 3966 2637 4203 
Q 2422 4441 2034 4441 
Q 1650 4441 1433 4203 
Q 1216 3966 1216 3541 
Q 1216 3113 1433 2875 
Q 1650 2638 2034 2638 
Q 2422 2638 2637 2875 
Q 2853 3113 2853 3541 
z
M 2516 2484 
Q 3047 2413 3344 2092 
Q 3641 1772 3641 1275 
Q 3641 619 3225 264 
Q 2809 -91 2034 -91 
Q 1263 -91 845 264 
Q 428 619 428 1275 
Q 428 1772 725 2092 
Q 1022 2413 1556 2484 
Q 1084 2569 832 2842 
Q 581 3116 581 3541 
Q 581 4103 968 4426 
Q 1356 4750 2034 4750 
Q 2713 4750 3100 4426 
Q 3488 4103 3488 3541 
Q 3488 3116 3236 2842 
Q 2984 2569 2516 2484 
z
" transform="scale(0.015625)"/>
     </defs>
     <use xlink:href="#DejaVuSerif-77"/>
     <use xlink:href="#DejaVuSerif-69" x="85.595703"/>
     <use xlink:href="#DejaVuSerif-74" x="117.578125"/>
     <use xlink:href="#DejaVuSerif-68" x="157.763672"/>
     <use xlink:href="#DejaVuSerif-20" x="222.167969"/>
     <use xlink:href="#DejaVuSerif-38" x="253.955078"/>
    </g>
    <!-- OpenMP -->
    <g transform="translate(181.216672 131.498091) scale(0.14 -0.14)">
     <defs>
      <path id="DejaVuSerif-4f" d="M 2625 244 
Q 3391 244 3781 770 
Q 4172 1297 4172 2328 
Q 4172 3363 3781 3889 
Q 3391 4416 2625 4416 
Q 1856 4416 1465 3889 
Q 1075 3363 1075 2328 
Q 1075 1297 1465 770 
Q 1856 244 2625 244 
z
M 2625 -91 
Q 2150 -91 1751 65 
Q 1353 222 1050 525 
Q 700 875 529 1319 
Q 359 1763 359 2328 
Q 359 2894 529 3339 
Q 700 3784 1050 4134 
Q 1356 4441 1750 4595 
Q 2144 4750 2625 4750 
Q 3641 4750 4266 4084 
Q 4891 3419 4891 2328 
Q 4891 1769 4719 1320 
Q 4547 872 4197 525 
Q 3891 219 3497 64 
Q 3103 -91 2625 -91 
z
" transform="scale(0.015625)"/>
      <path id="DejaVuSerif-70" d="M 1313 1825 
L 1313 1497 
Q 1313 897 1542 583 
Q 1772 269 2209 269 
Q 2650 269 2876 622 
Q 3103 975 3103 1663 
Q 3103 2353 2876 2703 
Q 2650 3053 2209 3053 
Q 1772 3053 1542 2737 
Q 1313 2422 1313 1825 
z
M 738 2988 
L 184 2988 
L 184 3322 
L 1313 3322 
L 1313 2803 
Q 1481 3116 1742 3264 
Q 2003 3413 2388 3413 
Q 3000 3413 3387 2928 
Q 3775 2444 3775 1663 
Q 3775 881 3387 395 
Q 3000 -91 2388 -91 
Q 2003 -91 1742 57 
Q 1481 206 1313 519 
L 1313 -997 
L 1856 -997 
L 1856 -1331 
L 184 -1331 
L 184 -997 
L 738 -997 
L 738 2988 
z
" transform="scale(0.015625)"/>
     </defs>
     <use xlink:href="#DejaVuSerif-4f"/>
     <use xlink:href="#DejaVuSerif-70" x="81.982422"/>
     <use xlink:href="#DejaVuSerif-65" x="145.996094"/>
     <use xlink:href="#DejaVuSerif-6e" x="205.175781"/>
     <use xlink:href="#DejaVuSerif-4d" x="269.580078"/>
     <use xlink:href="#DejaVuSerif-50" x="371.972656"/>
    </g>
    <!-- threads -->
    <g transform="translate(184.908078 147.175028) scale(0.14 -0.14)">
     <defs>
      <path id="DejaVuSerif-72" d="M 3059 3328 
L 3059 2497 
L 2728 2497 
Q 2713 2744 2591 2866 
Q 2469 2988 2234 2988 
Q 1809 2988 1582 2694 
Q 1356 2400 1356 1850 
L 1356 331 
L 2022 331 
L 2022 0 
L 263 0 
L 263 331 
L 781 331 
L 781 2994 
L 231 2994 
L 231 3322 
L 1356 3322 
L 1356 2731 
Q 1525 3078 1790 3245 
Q 2056 3413 2438 3413 
Q 2578 3413 2733 3391 
Q 2888 3369 3059 3328 
z
" transform="scale(0.015625)"/>
      <path id="DejaVuSerif-64" d="M 3359 331 
L 3909 331 
L 3909 0 
L 2784 0 
L 2784 519 
Q 2616 206 2355 57 
Q 2094 -91 1709 -91 
Q 1097 -91 708 395 
Q 319 881 319 1663 
Q 319 2444 706 2928 
Q 1094 3413 1709 3413 
Q 2094 3413 2355 3264 
Q 2616 3116 2784 2803 
L 2784 4531 
L 2241 4531 
L 2241 4863 
L 3359 4863 
L 3359 331 
z
M 2784 1497 
L 2784 1825 
Q 2784 2422 2554 2737 
Q 2325 3053 1888 3053 
Q 1444 3053 1217 2703 
Q 991 2353 991 1663 
Q 991 975 1217 622 
Q 1444 269 1888 269 
Q 2325 269 2554 583 
Q 2784 897 2784 1497 
z
" transform="scale(0.015625)"/>
     </defs>
     <use xlink:href="#DejaVuSerif-74"/>
     <use xlink:href="#DejaVuSerif-68" x="40.185547"/>
     <use xlink:href="#DejaVuSerif-72" x="104.589844"/>
     <use xlink:href="#DejaVuSerif-65" x="152.392578"/>
     <use xlink:href="#DejaVuSerif-61" x="211.572266"/>
     <use xlink:href="#DejaVuSerif-64" x="271.191406"/>
     <use xlink:href="#DejaVuSerif-73" x="335.205078"/>
    </g>
   </g>
   <g id="text_20">
    <g id="patch_59">
     <path d="M 391.392721 107.261818 
L 467.480533 107.261818 
Q 468.880533 107.261818 468.880533 105.861818 
L 468.880533 92.312443 
Q 468.880533 90.912443 467.480533 90.912443 
L 391.392721 90.912443 
Q 389.992721 90.912443 389.992721 92.312443 
L 389.992721 105.861818 
Q 389.992721 107.261818 391.392721 107.261818 
z
" style="fill: #ffffff; stroke: #ffffff; stroke-linejoin: miter"/>
    </g>
    <!-- Sequential -->
    <g transform="translate(391.392721 102.950256) scale(0.14 -0.14)">
     <defs>
      <path id="DejaVuSerif-53" d="M 594 225 
L 594 1288 
L 953 1284 
Q 969 753 1261 498 
Q 1553 244 2150 244 
Q 2706 244 2998 464 
Q 3291 684 3291 1106 
Q 3291 1444 3114 1625 
Q 2938 1806 2369 1978 
L 1753 2163 
Q 1084 2366 811 2669 
Q 538 2972 538 3500 
Q 538 4094 959 4422 
Q 1381 4750 2144 4750 
Q 2469 4750 2856 4679 
Q 3244 4609 3681 4475 
L 3681 3481 
L 3328 3481 
Q 3275 3975 2998 4195 
Q 2722 4416 2156 4416 
Q 1663 4416 1405 4214 
Q 1147 4013 1147 3628 
Q 1147 3294 1340 3103 
Q 1534 2913 2163 2725 
L 2741 2553 
Q 3375 2363 3645 2067 
Q 3916 1772 3916 1275 
Q 3916 597 3481 253 
Q 3047 -91 2188 -91 
Q 1803 -91 1404 -12 
Q 1006 66 594 225 
z
" transform="scale(0.015625)"/>
      <path id="DejaVuSerif-6c" d="M 1313 331 
L 1856 331 
L 1856 0 
L 184 0 
L 184 331 
L 738 331 
L 738 4531 
L 184 4531 
L 184 4863 
L 1313 4863 
L 1313 331 
z
" transform="scale(0.015625)"/>
     </defs>
     <use xlink:href="#DejaVuSerif-53"/>
     <use xlink:href="#DejaVuSerif-65" x="68.505859"/>
     <use xlink:href="#DejaVuSerif-71" x="127.685547"/>
     <use xlink:href="#DejaVuSerif-75" x="191.699219"/>
     <use xlink:href="#DejaVuSerif-65" x="256.103516"/>
     <use xlink:href="#DejaVuSerif-6e" x="315.283203"/>
     <use xlink:href="#DejaVuSerif-74" x="379.6875"/>
     <use xlink:href="#DejaVuSerif-69" x="419.873047"/>
     <use xlink:href="#DejaVuSerif-61" x="451.855469"/>
     <use xlink:href="#DejaVuSerif-6c" x="511.474609"/>
    </g>
   </g>
   <g id="text_21">
    <g id="patch_60">
     <path d="M 546.99865 122.003409 
L 604.88865 122.003409 
Q 606.28865 122.003409 606.28865 120.603409 
L 606.28865 91.377097 
Q 606.28865 89.977097 604.88865 89.977097 
L 546.99865 89.977097 
Q 545.59865 89.977097 545.59865 91.377097 
L 545.59865 120.603409 
Q 545.59865 122.003409 546.99865 122.003409 
z
" style="fill: #ffffff; stroke: #ffffff; stroke-linejoin: miter"/>
    </g>
    <!-- Sequen- -->
    <g transform="translate(546.99865 102.014909) scale(0.14 -0.14)">
     <defs>
      <path id="DejaVuSerif-2d" d="M 281 1959 
L 1881 1959 
L 1881 1472 
L 281 1472 
L 281 1959 
z
" transform="scale(0.015625)"/>
     </defs>
     <use xlink:href="#DejaVuSerif-53"/>
     <use xlink:href="#DejaVuSerif-65" x="68.505859"/>
     <use xlink:href="#DejaVuSerif-71" x="127.685547"/>
     <use xlink:href="#DejaVuSerif-75" x="191.699219"/>
     <use xlink:href="#DejaVuSerif-65" x="256.103516"/>
     <use xlink:href="#DejaVuSerif-6e" x="315.283203"/>
     <use xlink:href="#DejaVuSerif-2d" x="379.6875"/>
    </g>
    <!-- tial -->
    <g transform="translate(564.478962 117.691847) scale(0.14 -0.14)">
     <use xlink:href="#DejaVuSerif-74"/>
     <use xlink:href="#DejaVuSerif-69" x="40.185547"/>
     <use xlink:href="#DejaVuSerif-61" x="72.167969"/>
     <use xlink:href="#DejaVuSerif-6c" x="131.787109"/>
    </g>
   </g>
   <g id="text_22">
    <g id="patch_61">
     <path d="M 116.583089 201.500952 
C 119.634872 201.500952 122.562073 200.288465 124.72001 198.130529 
C 126.877947 195.972592 128.090433 193.045391 128.090433 189.993608 
C 128.090433 186.941825 126.877947 184.014624 124.72001 181.856687 
C 122.562073 179.698751 119.634872 178.486264 116.583089 178.486264 
C 113.531306 178.486264 110.604105 179.698751 108.446168 181.856687 
C 106.288232 184.014624 105.075745 186.941825 105.075745 189.993608 
C 105.075745 193.045391 106.288232 195.972592 108.446168 198.130529 
C 110.604105 200.288465 113.531306 201.500952 116.583089 201.500952 
z
" style="fill: #ffffff; stroke: #000000; stroke-linejoin: miter"/>
    </g>
    <!-- 1. -->
    <g transform="translate(109.275745 193.856733) scale(0.14 -0.14)">
     <defs>
      <path id="DejaVuSerif-Bold-31" d="M 878 0 
L 878 378 
L 1753 378 
L 1753 4153 
L 781 3578 
L 781 4044 
L 1953 4750 
L 2938 4750 
L 2938 378 
L 3816 378 
L 3816 0 
L 878 0 
z
" transform="scale(0.015625)"/>
      <path id="DejaVuSerif-Bold-2e" d="M 519 506 
Q 519 750 694 925 
Q 869 1100 1113 1100 
Q 1359 1100 1534 925 
Q 1709 750 1709 506 
Q 1709 259 1534 84 
Q 1359 -91 1113 -91 
Q 869 -91 694 84 
Q 519 259 519 506 
z
" transform="scale(0.015625)"/>
     </defs>
     <use xlink:href="#DejaVuSerif-Bold-31"/>
     <use xlink:href="#DejaVuSerif-Bold-2e" x="69.580078"/>
    </g>
   </g>
   <g id="text_23">
    <g id="patch_62">
     <path d="M 244.013677 176.931634 
C 247.06546 176.931634 249.992661 175.719147 252.150597 173.561211 
C 254.308534 171.403274 255.52102 168.476073 255.52102 165.42429 
C 255.52102 162.372507 254.308534 159.445306 252.150597 157.287369 
C 249.992661 155.129432 247.06546 153.916946 244.013677 153.916946 
C 240.961893 153.916946 238.034692 155.129432 235.876756 157.287369 
C 233.718819 159.445306 232.506333 162.372507 232.506333 165.42429 
C 232.506333 168.476073 233.718819 171.403274 235.876756 173.561211 
C 238.034692 175.719147 240.961893 176.931634 244.013677 176.931634 
z
" style="fill: #ffffff; stroke: #000000; stroke-linejoin: miter"/>
    </g>
    <!-- 2. -->
    <g transform="translate(236.706333 169.287415) scale(0.14 -0.14)">
     <defs>
      <path id="DejaVuSerif-Bold-32" d="M 844 3513 
L 469 3513 
L 469 4519 
Q 850 4634 1223 4692 
Q 1597 4750 1978 4750 
Q 2869 4750 3367 4386 
Q 3866 4022 3866 3372 
Q 3866 2909 3591 2542 
Q 3316 2175 2541 1672 
L 1241 819 
L 3450 819 
L 3450 1369 
L 3878 1369 
L 3878 0 
L 428 0 
L 428 763 
L 1119 1241 
Q 2003 1850 2297 2278 
Q 2591 2706 2591 3278 
Q 2591 3819 2367 4101 
Q 2144 4384 1716 4384 
Q 1347 4384 1125 4161 
Q 903 3938 844 3513 
z
" transform="scale(0.015625)"/>
     </defs>
     <use xlink:href="#DejaVuSerif-Bold-32"/>
     <use xlink:href="#DejaVuSerif-Bold-2e" x="69.580078"/>
    </g>
   </g>
   <g id="text_24">
    <g id="patch_63">
     <path d="M 465.300325 140.077656 
C 468.352109 140.077656 471.27931 138.86517 473.437246 136.707233 
C 475.595183 134.549297 476.807669 131.622096 476.807669 128.570312 
C 476.807669 125.518529 475.595183 122.591328 473.437246 120.433392 
C 471.27931 118.275455 468.352109 117.062969 465.300325 117.062969 
C 462.248542 117.062969 459.321341 118.275455 457.163405 120.433392 
C 455.005468 122.591328 453.792982 125.518529 453.792982 128.570312 
C 453.792982 131.622096 455.005468 134.549297 457.163405 136.707233 
C 459.321341 138.86517 462.248542 140.077656 465.300325 140.077656 
z
" style="fill: #ffffff; stroke: #000000; stroke-linejoin: miter"/>
    </g>
    <!-- 3. -->
    <g transform="translate(457.992982 132.433437) scale(0.14 -0.14)">
     <defs>
      <path id="DejaVuSerif-Bold-33" d="M 550 4531 
Q 963 4641 1350 4695 
Q 1738 4750 2106 4750 
Q 2950 4750 3401 4448 
Q 3853 4147 3853 3584 
Q 3853 3163 3593 2900 
Q 3334 2638 2834 2547 
Q 3444 2450 3744 2131 
Q 4044 1813 4044 1259 
Q 4044 606 3526 257 
Q 3009 -91 2028 -91 
Q 1659 -91 1267 -28 
Q 875 34 447 159 
L 447 1184 
L 825 1184 
Q 859 741 1103 508 
Q 1347 275 1778 275 
Q 2253 275 2512 539 
Q 2772 803 2772 1288 
Q 2772 1794 2501 2069 
Q 2231 2344 1734 2344 
L 1528 2344 
L 1528 2719 
L 1691 2719 
Q 2150 2719 2381 2931 
Q 2613 3144 2613 3566 
Q 2613 3963 2395 4173 
Q 2178 4384 1772 4384 
Q 1403 4384 1187 4182 
Q 972 3981 928 3597 
L 550 3597 
L 550 4531 
z
" transform="scale(0.015625)"/>
     </defs>
     <use xlink:href="#DejaVuSerif-Bold-33"/>
     <use xlink:href="#DejaVuSerif-Bold-2e" x="69.580078"/>
    </g>
   </g>
   <g id="text_25">
    <!-- GCsnap2 Cluster end-to-end execution profile: $\bf{10'000}$ targets -->
    <g style="fill: #262626" transform="translate(47.34375 21.24) scale(0.18 -0.18)">
     <defs>
      <path id="DejaVuSerif-47" d="M 4097 3272 
Q 3988 3856 3641 4136 
Q 3294 4416 2675 4416 
Q 1869 4416 1472 3897 
Q 1075 3378 1075 2328 
Q 1075 1300 1484 772 
Q 1894 244 2688 244 
Q 3041 244 3362 331 
Q 3684 419 3975 594 
L 3975 1797 
L 3097 1797 
L 3097 2131 
L 4609 2131 
L 4609 391 
Q 4194 150 3714 29 
Q 3234 -91 2688 -91 
Q 1631 -91 995 570 
Q 359 1231 359 2328 
Q 359 3434 996 4092 
Q 1634 4750 2713 4750 
Q 3113 4750 3539 4658 
Q 3966 4566 4447 4378 
L 4447 3272 
L 4097 3272 
z
" transform="scale(0.015625)"/>
      <path id="DejaVuSerif-43" d="M 4513 1234 
Q 4306 581 3820 245 
Q 3334 -91 2591 -91 
Q 2134 -91 1743 65 
Q 1353 222 1050 525 
Q 700 875 529 1320 
Q 359 1766 359 2328 
Q 359 3416 987 4083 
Q 1616 4750 2644 4750 
Q 3025 4750 3456 4650 
Q 3888 4550 4384 4347 
L 4384 3272 
L 4031 3272 
Q 3916 3859 3567 4137 
Q 3219 4416 2591 4416 
Q 1844 4416 1459 3886 
Q 1075 3356 1075 2328 
Q 1075 1303 1459 773 
Q 1844 244 2591 244 
Q 3113 244 3450 492 
Q 3788 741 3938 1234 
L 4513 1234 
z
" transform="scale(0.015625)"/>
      <path id="DejaVuSerif-66" d="M 2753 4078 
L 2450 4078 
Q 2447 4313 2317 4434 
Q 2188 4556 1941 4556 
Q 1619 4556 1487 4379 
Q 1356 4203 1356 3750 
L 1356 3322 
L 2284 3322 
L 2284 2988 
L 1356 2988 
L 1356 331 
L 2094 331 
L 2094 0 
L 231 0 
L 231 331 
L 781 331 
L 781 2988 
L 231 2988 
L 231 3322 
L 781 3322 
L 781 3738 
Q 781 4294 1070 4578 
Q 1359 4863 1919 4863 
Q 2128 4863 2337 4825 
Q 2547 4788 2753 4709 
L 2753 4078 
z
" transform="scale(0.015625)"/>
      <path id="DejaVuSerif-3a" d="M 666 325 
Q 666 500 786 622 
Q 906 744 1081 744 
Q 1256 744 1376 622 
Q 1497 500 1497 325 
Q 1497 150 1378 29 
Q 1259 -91 1081 -91 
Q 903 -91 784 29 
Q 666 150 666 325 
z
M 666 2363 
Q 666 2538 786 2658 
Q 906 2778 1081 2778 
Q 1259 2778 1378 2659 
Q 1497 2541 1497 2363 
Q 1497 2184 1378 2065 
Q 1259 1947 1081 1947 
Q 906 1947 786 2067 
Q 666 2188 666 2363 
z
" transform="scale(0.015625)"/>
      <path id="DejaVuSans-Bold-31" d="M 750 831 
L 1813 831 
L 1813 3847 
L 722 3622 
L 722 4441 
L 1806 4666 
L 2950 4666 
L 2950 831 
L 4013 831 
L 4013 0 
L 750 0 
L 750 831 
z
" transform="scale(0.015625)"/>
      <path id="DejaVuSans-Bold-30" d="M 2944 2338 
Q 2944 3213 2780 3570 
Q 2616 3928 2228 3928 
Q 1841 3928 1675 3570 
Q 1509 3213 1509 2338 
Q 1509 1453 1675 1090 
Q 1841 728 2228 728 
Q 2613 728 2778 1090 
Q 2944 1453 2944 2338 
z
M 4147 2328 
Q 4147 1169 3647 539 
Q 3147 -91 2228 -91 
Q 1306 -91 806 539 
Q 306 1169 306 2328 
Q 306 3491 806 4120 
Q 1306 4750 2228 4750 
Q 3147 4750 3647 4120 
Q 4147 3491 4147 2328 
z
" transform="scale(0.015625)"/>
      <path id="Cmsy10-30" d="M 225 347 
Q 184 359 184 409 
L 966 3316 
Q 1003 3434 1093 3506 
Q 1184 3578 1300 3578 
Q 1450 3578 1564 3479 
Q 1678 3381 1678 3231 
Q 1678 3166 1644 3084 
L 488 319 
Q 466 275 428 275 
Q 394 275 320 306 
Q 247 338 225 347 
z
" transform="scale(0.015625)"/>
      <path id="DejaVuSerif-67" d="M 3359 2988 
L 3359 72 
Q 3359 -644 2965 -1033 
Q 2572 -1422 1844 -1422 
Q 1516 -1422 1216 -1362 
Q 916 -1303 641 -1184 
L 641 -488 
L 941 -488 
Q 997 -813 1206 -963 
Q 1416 -1113 1806 -1113 
Q 2313 -1113 2548 -827 
Q 2784 -541 2784 72 
L 2784 519 
Q 2616 206 2355 57 
Q 2094 -91 1709 -91 
Q 1097 -91 708 395 
Q 319 881 319 1663 
Q 319 2444 706 2928 
Q 1094 3413 1709 3413 
Q 2094 3413 2355 3264 
Q 2616 3116 2784 2803 
L 2784 3322 
L 3909 3322 
L 3909 2988 
L 3359 2988 
z
M 2784 1825 
Q 2784 2422 2554 2737 
Q 2325 3053 1888 3053 
Q 1444 3053 1217 2703 
Q 991 2353 991 1663 
Q 991 975 1217 622 
Q 1444 269 1888 269 
Q 2325 269 2554 583 
Q 2784 897 2784 1497 
L 2784 1825 
z
" transform="scale(0.015625)"/>
     </defs>
     <use xlink:href="#DejaVuSerif-47" transform="translate(0 0.584375)"/>
     <use xlink:href="#DejaVuSerif-43" transform="translate(79.882812 0.584375)"/>
     <use xlink:href="#DejaVuSerif-73" transform="translate(156.396484 0.584375)"/>
     <use xlink:href="#DejaVuSerif-6e" transform="translate(207.714844 0.584375)"/>
     <use xlink:href="#DejaVuSerif-61" transform="translate(272.119141 0.584375)"/>
     <use xlink:href="#DejaVuSerif-70" transform="translate(331.738281 0.584375)"/>
     <use xlink:href="#DejaVuSerif-32" transform="translate(395.751953 0.584375)"/>
     <use xlink:href="#DejaVuSerif-20" transform="translate(459.375 0.584375)"/>
     <use xlink:href="#DejaVuSerif-43" transform="translate(491.162109 0.584375)"/>
     <use xlink:href="#DejaVuSerif-6c" transform="translate(567.675781 0.584375)"/>
     <use xlink:href="#DejaVuSerif-75" transform="translate(599.658203 0.584375)"/>
     <use xlink:href="#DejaVuSerif-73" transform="translate(664.0625 0.584375)"/>
     <use xlink:href="#DejaVuSerif-74" transform="translate(715.380859 0.584375)"/>
     <use xlink:href="#DejaVuSerif-65" transform="translate(755.566406 0.584375)"/>
     <use xlink:href="#DejaVuSerif-72" transform="translate(814.746094 0.584375)"/>
     <use xlink:href="#DejaVuSerif-20" transform="translate(862.548828 0.584375)"/>
     <use xlink:href="#DejaVuSerif-65" transform="translate(894.335938 0.584375)"/>
     <use xlink:href="#DejaVuSerif-6e" transform="translate(953.515625 0.584375)"/>
     <use xlink:href="#DejaVuSerif-64" transform="translate(1017.919922 0.584375)"/>
     <use xlink:href="#DejaVuSerif-2d" transform="translate(1081.933594 0.584375)"/>
     <use xlink:href="#DejaVuSerif-74" transform="translate(1115.722656 0.584375)"/>
     <use xlink:href="#DejaVuSerif-6f" transform="translate(1155.908203 0.584375)"/>
     <use xlink:href="#DejaVuSerif-2d" transform="translate(1216.113281 0.584375)"/>
     <use xlink:href="#DejaVuSerif-65" transform="translate(1249.902344 0.584375)"/>
     <use xlink:href="#DejaVuSerif-6e" transform="translate(1309.082031 0.584375)"/>
     <use xlink:href="#DejaVuSerif-64" transform="translate(1373.486328 0.584375)"/>
     <use xlink:href="#DejaVuSerif-20" transform="translate(1437.5 0.584375)"/>
     <use xlink:href="#DejaVuSerif-65" transform="translate(1469.287109 0.584375)"/>
     <use xlink:href="#DejaVuSerif-78" transform="translate(1528.466797 0.584375)"/>
     <use xlink:href="#DejaVuSerif-65" transform="translate(1584.863281 0.584375)"/>
     <use xlink:href="#DejaVuSerif-63" transform="translate(1644.042969 0.584375)"/>
     <use xlink:href="#DejaVuSerif-75" transform="translate(1700.048828 0.584375)"/>
     <use xlink:href="#DejaVuSerif-74" transform="translate(1764.453125 0.584375)"/>
     <use xlink:href="#DejaVuSerif-69" transform="translate(1804.638672 0.584375)"/>
     <use xlink:href="#DejaVuSerif-6f" transform="translate(1836.621094 0.584375)"/>
     <use xlink:href="#DejaVuSerif-6e" transform="translate(1896.826172 0.584375)"/>
     <use xlink:href="#DejaVuSerif-20" transform="translate(1961.230469 0.584375)"/>
     <use xlink:href="#DejaVuSerif-70" transform="translate(1993.017578 0.584375)"/>
     <use xlink:href="#DejaVuSerif-72" transform="translate(2057.03125 0.584375)"/>
     <use xlink:href="#DejaVuSerif-6f" transform="translate(2104.833984 0.584375)"/>
     <use xlink:href="#DejaVuSerif-66" transform="translate(2165.039062 0.584375)"/>
     <use xlink:href="#DejaVuSerif-69" transform="translate(2202.050781 0.584375)"/>
     <use xlink:href="#DejaVuSerif-6c" transform="translate(2234.033203 0.584375)"/>
     <use xlink:href="#DejaVuSerif-65" transform="translate(2266.015625 0.584375)"/>
     <use xlink:href="#DejaVuSerif-3a" transform="translate(2325.195312 0.584375)"/>
     <use xlink:href="#DejaVuSerif-20" transform="translate(2358.886719 0.584375)"/>
     <use xlink:href="#DejaVuSans-Bold-31" transform="translate(2390.673828 0.584375)"/>
     <use xlink:href="#DejaVuSans-Bold-30" transform="translate(2460.253906 0.584375)"/>
     <use xlink:href="#Cmsy10-30" transform="translate(2530.791016 38.865625) scale(0.7)"/>
     <use xlink:href="#DejaVuSans-Bold-30" transform="translate(2552.768555 0.584375)"/>
     <use xlink:href="#DejaVuSans-Bold-30" transform="translate(2622.348633 0.584375)"/>
     <use xlink:href="#DejaVuSans-Bold-30" transform="translate(2691.928711 0.584375)"/>
     <use xlink:href="#DejaVuSerif-20" transform="translate(2761.508789 0.584375)"/>
     <use xlink:href="#DejaVuSerif-74" transform="translate(2793.295898 0.584375)"/>
     <use xlink:href="#DejaVuSerif-61" transform="translate(2833.481445 0.584375)"/>
     <use xlink:href="#DejaVuSerif-72" transform="translate(2893.100586 0.584375)"/>
     <use xlink:href="#DejaVuSerif-67" transform="translate(2940.90332 0.584375)"/>
     <use xlink:href="#DejaVuSerif-65" transform="translate(3004.916992 0.584375)"/>
     <use xlink:href="#DejaVuSerif-74" transform="translate(3064.09668 0.584375)"/>
     <use xlink:href="#DejaVuSerif-73" transform="translate(3104.282227 0.584375)"/>
    </g>
   </g>
   <g id="legend_1">
    <g id="patch_64">
     <path d="M 110.75168 422.672859 
L 552.01582 422.672859 
Q 555.31582 422.672859 555.31582 419.372859 
L 555.31582 298.242 
Q 555.31582 294.942 552.01582 294.942 
L 110.75168 294.942 
Q 107.45168 294.942 107.45168 298.242 
L 107.45168 419.372859 
Q 107.45168 422.672859 110.75168 422.672859 
z
" style="fill: #ffffff; stroke: #cccccc; stroke-linejoin: miter"/>
    </g>
    <g id="text_26">
     <!-- Substep -->
     <g style="fill: #262626" transform="translate(294.3375 315.219188) scale(0.18 -0.18)">
      <defs>
       <path id="DejaVuSerif-62" d="M 738 331 
L 738 4531 
L 184 4531 
L 184 4863 
L 1313 4863 
L 1313 2803 
Q 1481 3116 1742 3264 
Q 2003 3413 2388 3413 
Q 3000 3413 3387 2928 
Q 3775 2444 3775 1663 
Q 3775 881 3387 395 
Q 3000 -91 2388 -91 
Q 2003 -91 1742 57 
Q 1481 206 1313 519 
L 1313 0 
L 184 0 
L 184 331 
L 738 331 
z
M 1313 1497 
Q 1313 897 1542 583 
Q 1772 269 2209 269 
Q 2650 269 2876 622 
Q 3103 975 3103 1663 
Q 3103 2353 2876 2703 
Q 2650 3053 2209 3053 
Q 1772 3053 1542 2737 
Q 1313 2422 1313 1825 
L 1313 1497 
z
" transform="scale(0.015625)"/>
      </defs>
      <use xlink:href="#DejaVuSerif-53"/>
      <use xlink:href="#DejaVuSerif-75" x="68.505859"/>
      <use xlink:href="#DejaVuSerif-62" x="132.910156"/>
      <use xlink:href="#DejaVuSerif-73" x="196.923828"/>
      <use xlink:href="#DejaVuSerif-74" x="248.242188"/>
      <use xlink:href="#DejaVuSerif-65" x="288.427734"/>
      <use xlink:href="#DejaVuSerif-70" x="347.607422"/>
     </g>
    </g>
    <g id="patch_65">
     <path d="M 114.05168 339.750047 
L 147.05168 339.750047 
L 147.05168 328.200047 
L 114.05168 328.200047 
z
" style="fill: #696969; stroke: #696969; stroke-linejoin: miter"/>
    </g>
    <g id="text_27">
     <!-- Mapping -->
     <g style="fill: #808080" transform="translate(160.25168 339.750047) scale(0.165 -0.165)">
      <use xlink:href="#DejaVuSerif-4d"/>
      <use xlink:href="#DejaVuSerif-61" x="102.392578"/>
      <use xlink:href="#DejaVuSerif-70" x="162.011719"/>
      <use xlink:href="#DejaVuSerif-70" x="226.025391"/>
      <use xlink:href="#DejaVuSerif-69" x="290.039062"/>
      <use xlink:href="#DejaVuSerif-6e" x="322.021484"/>
      <use xlink:href="#DejaVuSerif-67" x="386.425781"/>
     </g>
    </g>
    <g id="patch_66">
     <path d="M 114.05168 364.203563 
L 147.05168 364.203563 
L 147.05168 352.653563 
L 114.05168 352.653563 
z
" style="fill: #648fff; stroke: #648fff; stroke-linejoin: miter"/>
    </g>
    <g id="text_28">
     <!-- Parse Assemblies -->
     <g style="fill: #262626" transform="translate(160.25168 364.203563) scale(0.165 -0.165)">
      <defs>
       <path id="DejaVuSerif-41" d="M 1281 1691 
L 2994 1691 
L 2138 3909 
L 1281 1691 
z
M -38 0 
L -38 331 
L 372 331 
L 2034 4666 
L 2559 4666 
L 4225 331 
L 4684 331 
L 4684 0 
L 2988 0 
L 2988 331 
L 3506 331 
L 3116 1356 
L 1153 1356 
L 763 331 
L 1275 331 
L 1275 0 
L -38 0 
z
" transform="scale(0.015625)"/>
      </defs>
      <use xlink:href="#DejaVuSerif-50"/>
      <use xlink:href="#DejaVuSerif-61" x="62.785156"/>
      <use xlink:href="#DejaVuSerif-72" x="122.404297"/>
      <use xlink:href="#DejaVuSerif-73" x="170.207031"/>
      <use xlink:href="#DejaVuSerif-65" x="221.525391"/>
      <use xlink:href="#DejaVuSerif-20" x="280.705078"/>
      <use xlink:href="#DejaVuSerif-41" x="312.492188"/>
      <use xlink:href="#DejaVuSerif-73" x="384.708984"/>
      <use xlink:href="#DejaVuSerif-73" x="436.027344"/>
      <use xlink:href="#DejaVuSerif-65" x="487.345703"/>
      <use xlink:href="#DejaVuSerif-6d" x="546.525391"/>
      <use xlink:href="#DejaVuSerif-62" x="641.349609"/>
      <use xlink:href="#DejaVuSerif-6c" x="705.363281"/>
      <use xlink:href="#DejaVuSerif-69" x="737.345703"/>
      <use xlink:href="#DejaVuSerif-65" x="769.328125"/>
      <use xlink:href="#DejaVuSerif-73" x="828.507812"/>
     </g>
    </g>
    <g id="patch_67">
     <path d="M 114.05168 388.422469 
L 147.05168 388.422469 
L 147.05168 376.872469 
L 114.05168 376.872469 
z
" style="fill: #e55c9f; stroke: #e55c9f; stroke-linejoin: miter"/>
    </g>
    <g id="text_29">
     <!-- Sequences -->
     <g style="fill: #808080" transform="translate(160.25168 388.422469) scale(0.165 -0.165)">
      <use xlink:href="#DejaVuSerif-53"/>
      <use xlink:href="#DejaVuSerif-65" x="68.505859"/>
      <use xlink:href="#DejaVuSerif-71" x="127.685547"/>
      <use xlink:href="#DejaVuSerif-75" x="191.699219"/>
      <use xlink:href="#DejaVuSerif-65" x="256.103516"/>
      <use xlink:href="#DejaVuSerif-6e" x="315.283203"/>
      <use xlink:href="#DejaVuSerif-63" x="379.6875"/>
      <use xlink:href="#DejaVuSerif-65" x="435.693359"/>
      <use xlink:href="#DejaVuSerif-73" x="494.873047"/>
     </g>
    </g>
    <g id="patch_68">
     <path d="M 114.05168 412.641375 
L 147.05168 412.641375 
L 147.05168 401.091375 
L 114.05168 401.091375 
z
" style="fill: #785ef0; stroke: #785ef0; stroke-linejoin: miter"/>
    </g>
    <g id="text_30">
     <!-- Find Families -->
     <g style="fill: #262626" transform="translate(160.25168 412.641375) scale(0.165 -0.165)">
      <defs>
       <path id="DejaVuSerif-46" d="M 353 0 
L 353 331 
L 947 331 
L 947 4331 
L 353 4331 
L 353 4666 
L 4172 4666 
L 4172 3628 
L 3788 3628 
L 3788 4281 
L 1581 4281 
L 1581 2719 
L 3175 2719 
L 3175 3303 
L 3559 3303 
L 3559 1753 
L 3175 1753 
L 3175 2338 
L 1581 2338 
L 1581 331 
L 2328 331 
L 2328 0 
L 353 0 
z
" transform="scale(0.015625)"/>
      </defs>
      <use xlink:href="#DejaVuSerif-46"/>
      <use xlink:href="#DejaVuSerif-69" x="69.384766"/>
      <use xlink:href="#DejaVuSerif-6e" x="101.367188"/>
      <use xlink:href="#DejaVuSerif-64" x="165.771484"/>
      <use xlink:href="#DejaVuSerif-20" x="229.785156"/>
      <use xlink:href="#DejaVuSerif-46" x="261.572266"/>
      <use xlink:href="#DejaVuSerif-61" x="324.207031"/>
      <use xlink:href="#DejaVuSerif-6d" x="383.826172"/>
      <use xlink:href="#DejaVuSerif-69" x="478.650391"/>
      <use xlink:href="#DejaVuSerif-6c" x="510.632812"/>
      <use xlink:href="#DejaVuSerif-69" x="542.615234"/>
      <use xlink:href="#DejaVuSerif-65" x="574.597656"/>
      <use xlink:href="#DejaVuSerif-73" x="633.777344"/>
     </g>
    </g>
    <g id="patch_69">
     <path d="M 338.42332 339.750047 
L 371.42332 339.750047 
L 371.42332 328.200047 
L 338.42332 328.200047 
z
" style="fill: #a9a9a9; stroke: #a9a9a9; stroke-linejoin: miter"/>
    </g>
    <g id="text_31">
     <!-- Annotate Functions -->
     <g style="fill: #808080" transform="translate(384.62332 339.750047) scale(0.165 -0.165)">
      <use xlink:href="#DejaVuSerif-41"/>
      <use xlink:href="#DejaVuSerif-6e" x="72.216797"/>
      <use xlink:href="#DejaVuSerif-6e" x="136.621094"/>
      <use xlink:href="#DejaVuSerif-6f" x="201.025391"/>
      <use xlink:href="#DejaVuSerif-74" x="261.230469"/>
      <use xlink:href="#DejaVuSerif-61" x="301.416016"/>
      <use xlink:href="#DejaVuSerif-74" x="361.035156"/>
      <use xlink:href="#DejaVuSerif-65" x="401.220703"/>
      <use xlink:href="#DejaVuSerif-20" x="460.400391"/>
      <use xlink:href="#DejaVuSerif-46" x="492.1875"/>
      <use xlink:href="#DejaVuSerif-75" x="561.572266"/>
      <use xlink:href="#DejaVuSerif-6e" x="625.976562"/>
      <use xlink:href="#DejaVuSerif-63" x="690.380859"/>
      <use xlink:href="#DejaVuSerif-74" x="746.386719"/>
      <use xlink:href="#DejaVuSerif-69" x="786.572266"/>
      <use xlink:href="#DejaVuSerif-6f" x="818.554688"/>
      <use xlink:href="#DejaVuSerif-6e" x="878.759766"/>
      <use xlink:href="#DejaVuSerif-73" x="943.164062"/>
     </g>
    </g>
    <g id="patch_70">
     <path d="M 338.42332 363.968953 
L 371.42332 363.968953 
L 371.42332 352.418953 
L 338.42332 352.418953 
z
" style="fill: #dc267f; stroke: #dc267f; stroke-linejoin: miter"/>
    </g>
    <g id="text_32">
     <!-- Find Operons -->
     <g style="fill: #262626" transform="translate(384.62332 363.968953) scale(0.165 -0.165)">
      <use xlink:href="#DejaVuSerif-46"/>
      <use xlink:href="#DejaVuSerif-69" x="69.384766"/>
      <use xlink:href="#DejaVuSerif-6e" x="101.367188"/>
      <use xlink:href="#DejaVuSerif-64" x="165.771484"/>
      <use xlink:href="#DejaVuSerif-20" x="229.785156"/>
      <use xlink:href="#DejaVuSerif-4f" x="261.572266"/>
      <use xlink:href="#DejaVuSerif-70" x="343.554688"/>
      <use xlink:href="#DejaVuSerif-65" x="407.568359"/>
      <use xlink:href="#DejaVuSerif-72" x="466.748047"/>
      <use xlink:href="#DejaVuSerif-6f" x="514.550781"/>
      <use xlink:href="#DejaVuSerif-6e" x="574.755859"/>
      <use xlink:href="#DejaVuSerif-73" x="639.160156"/>
     </g>
    </g>
    <g id="patch_71">
     <path d="M 338.42332 388.187859 
L 371.42332 388.187859 
L 371.42332 376.637859 
L 338.42332 376.637859 
z
" style="fill: #ffc440; stroke: #ffc440; stroke-linejoin: miter"/>
    </g>
    <g id="text_33">
     <!-- Taxonomies -->
     <g style="fill: #808080" transform="translate(384.62332 388.187859) scale(0.165 -0.165)">
      <defs>
       <path id="DejaVuSerif-54" d="M 1222 0 
L 1222 331 
L 1819 331 
L 1819 4294 
L 447 4294 
L 447 3566 
L 63 3566 
L 63 4666 
L 4206 4666 
L 4206 3566 
L 3822 3566 
L 3822 4294 
L 2450 4294 
L 2450 331 
L 3047 331 
L 3047 0 
L 1222 0 
z
" transform="scale(0.015625)"/>
      </defs>
      <use xlink:href="#DejaVuSerif-54"/>
      <use xlink:href="#DejaVuSerif-61" x="58.949219"/>
      <use xlink:href="#DejaVuSerif-78" x="118.568359"/>
      <use xlink:href="#DejaVuSerif-6f" x="174.964844"/>
      <use xlink:href="#DejaVuSerif-6e" x="235.169922"/>
      <use xlink:href="#DejaVuSerif-6f" x="299.574219"/>
      <use xlink:href="#DejaVuSerif-6d" x="359.779297"/>
      <use xlink:href="#DejaVuSerif-69" x="454.603516"/>
      <use xlink:href="#DejaVuSerif-65" x="486.585938"/>
      <use xlink:href="#DejaVuSerif-73" x="545.765625"/>
     </g>
    </g>
    <g id="patch_72">
     <path d="M 338.42332 412.406766 
L 371.42332 412.406766 
L 371.42332 400.856766 
L 338.42332 400.856766 
z
" style="fill: #fe6100; stroke: #fe6100; stroke-linejoin: miter"/>
    </g>
    <g id="text_34">
     <!-- Produce Output -->
     <g style="fill: #262626" transform="translate(384.62332 412.406766) scale(0.165 -0.165)">
      <use xlink:href="#DejaVuSerif-50"/>
      <use xlink:href="#DejaVuSerif-72" x="67.285156"/>
      <use xlink:href="#DejaVuSerif-6f" x="115.087891"/>
      <use xlink:href="#DejaVuSerif-64" x="175.292969"/>
      <use xlink:href="#DejaVuSerif-75" x="239.306641"/>
      <use xlink:href="#DejaVuSerif-63" x="303.710938"/>
      <use xlink:href="#DejaVuSerif-65" x="359.716797"/>
      <use xlink:href="#DejaVuSerif-20" x="418.896484"/>
      <use xlink:href="#DejaVuSerif-4f" x="450.683594"/>
      <use xlink:href="#DejaVuSerif-75" x="532.666016"/>
      <use xlink:href="#DejaVuSerif-74" x="597.070312"/>
      <use xlink:href="#DejaVuSerif-70" x="637.255859"/>
      <use xlink:href="#DejaVuSerif-75" x="701.269531"/>
      <use xlink:href="#DejaVuSerif-74" x="765.673828"/>
     </g>
    </g>
   </g>
  </g>
 </g>
 <defs>
  <clipPath id="p68905f60dd">
   <rect x="45.61875" y="27.24" width="571.53" height="216.21"/>
  </clipPath>
 </defs>
</svg>
